<svg xml:space="preserve" width="500" height="500" xmlns="http://www.w3.org/2000/svg"><path d="M253.838-136.16h375v375h-375Z" style="fill:#0077d7;fill-opacity:1;fill-rule:nonzero;stroke:none;stroke-width:.15701" transform="matrix(1.33333 0 0 -1.33333 -338.451 318.452)"/><path style="fill:#b3d6f3;fill-opacity:1;fill-rule:nonzero;stroke:none;stroke-width:.15701" d="M558.769 115.09c-23.465 0-42.487 18.048-42.487 40.31 0 2.733.289 5.4.835 7.98h24a17.681 17.681 0 0 1-1.9-7.98c0-10.243 8.754-18.547 19.552-18.547 2.405 0 4.71.411 6.84 1.167v-22.406a44.807 44.807 0 0 0-6.84-.524m41.49 31.606h-24.224a17.712 17.712 0 0 1 2.283 8.705c0 10.244-8.752 18.549-19.55 18.549-2.02 0-3.968-.292-5.802-.83v38.135h21.036V193.04c15.938-5.81 27.252-20.47 27.252-37.638 0-2.988-.345-5.9-.995-8.705" transform="matrix(1.33333 0 0 -1.33333 -338.451 318.452)"/><path style="fill:#fff;fill-opacity:1;fill-rule:nonzero;stroke:none;stroke-width:.15701" d="M463.723 58.706v22.11h-4.098v5.824h4.098v2.428c0 5.769 2.857 9.544 8.897 9.544 1.24 0 2.86-.109 3.56-.324v-6.093c-.432.054-1.024.106-1.619.106-2.264 0-3.126-.807-3.126-3.83V86.64h4.852v-5.824h-4.852v-22.11h-7.712m47.605 11.97c0-3.666-.593-7.117-5.5-7.117-2.804 0-4.044 1.726-4.044 3.721 0 2.696 1.725 4.151 6.417 4.151h3.127zm7.55-4.745v11.704c0 6.687-4.097 9.598-11.54 9.653-7.663 0-10.92-3.23-11.772-7.488l7.135-1.465c.323 2.05 1.078 3.398 4.313 3.398 3.614 0 4.314-1.942 4.314-3.936v-1.672h-3.99c-8.197 0-13.267-2.966-13.267-9.33 0-4.315 2.804-8.738 9.545-8.738 4.963 0 6.85 1.834 7.874 3.398 0-.7.162-2.21.378-2.75h7.388c-.162.648-.377 4.53-.377 7.226m74.611 9.815c-.053 3.236-1.349 5.987-5.123 5.987-3.668 0-5.178-2.536-5.502-5.987zm-10.787-4.745c0-3.506 1.781-6.902 5.609-6.902 3.236 0 4.153 1.294 4.908 2.964h7.712c-.972-3.396-4.044-9.006-12.782-9.006-9.221 0-13.212 6.85-13.212 14.185 0 8.79 4.476 15.046 13.482 15.046 9.546 0 12.836-6.957 12.836-13.914 0-.97 0-1.564-.109-2.373h-18.444m-8.403-3.29c-.917-4.637-4.206-9.654-12.51-9.654-8.685 0-13.16 5.987-13.16 14.4 0 8.25 5.016 14.831 13.537 14.831 9.382 0 12.025-6.795 12.133-9.923h-7.495c-.486 2.266-1.78 3.828-4.8 3.828-3.56 0-5.555-3.073-5.555-8.466 0-5.987 2.157-8.683 5.5-8.683 2.697 0 4.1 1.564 4.8 3.666h7.55m-52.31 11.866c0 2.372 0 4.961-.054 7.065h7.495c.162-.755.27-2.697.324-3.56.917 1.726 3.183 4.207 8.09 4.207 5.609 0 9.222-3.83 9.222-10.84V58.704h-7.712v16.88c0 3.183-1.024 5.447-4.475 5.447-3.291 0-5.125-1.834-5.125-6.794V58.704h-7.766v20.872m-43.627-.539c0 2.804 0 5.23-.055 7.604h7.604c.109-.648.217-3.4.217-4.908 1.24 3.181 4.206 5.5 8.951 5.555v-7.389c-5.608.162-8.951-1.347-8.951-9.006V58.704h-7.766v20.333m122.709-105.12c0-9.07 0-19.254.185-27.768h-25.92c-.368 2.592-.554 7.776-.739 11.106-5.739-9.628-14.07-13.328-26.473-13.328-19.438 0-31.842 11.848-31.842 35.543v62.574h26.473v-57.205c0-10.553 3.332-19.254 14.81-19.254 12.033 0 17.032 6.48 17.032 25.363v51.096h26.474v-68.127M481.746 4.647c-.185 11.109-4.627 20.55-17.587 20.55-12.589 0-17.772-8.702-18.882-20.55zM444.72-11.644c0-12.032 6.11-23.696 19.253-23.696 11.108 0 14.255 4.443 16.847 10.18h26.472c-3.332-11.66-13.884-30.913-43.875-30.913-31.655 0-45.354 23.512-45.354 48.689 0 30.174 15.365 51.65 46.282 51.65 32.765 0 44.057-23.883 44.057-47.763 0-3.333 0-5.368-.369-8.147H444.72m-34.536 92.933v-135.14H382.6v135.14h27.584m-82.669-58.314c-15.18 0-20.547-9.81-20.547-29.434 0-16.109 4.813-28.51 20.178-28.51 13.513 0 20.733 12.03 20.733 30.177 0 16.106-6.11 27.767-20.364 27.767zm-45.91 58.314h26.659V31.86c3.886 6.11 11.847 12.406 27.397 12.406 26.102 0 39.06-21.662 39.06-48.504 0-27.398-14.069-51.835-41.651-51.835-14.255 0-20.55 4.26-25.178 11.293 0-3.15-.556-6.666-1.11-9.071H281.42c.184 10.367.184 20.92.184 31.283V81.29M593.487-89.318c-.055 3.238-1.347 5.992-5.122 5.992-3.67 0-5.178-2.541-5.506-5.992zm-10.788-4.746c0-3.502 1.78-6.903 5.611-6.903 3.235 0 4.153 1.292 4.905 2.967h7.716c-.972-3.4-4.046-9.004-12.782-9.004-9.226 0-13.218 6.844-13.218 14.182 0 8.792 4.477 15.05 13.485 15.05 9.549 0 12.838-6.956 12.838-13.919 0-.969 0-1.565-.105-2.373h-18.45m-8.35-3.29c-.919-4.634-4.21-9.65-12.515-9.65-8.681 0-13.158 5.985-13.158 14.395 0 8.255 5.017 14.837 13.536 14.837 9.386 0 12.03-6.794 12.137-9.923h-7.499c-.485 2.263-1.777 3.826-4.8 3.826-3.557 0-5.556-3.079-5.556-8.469 0-5.985 2.159-8.68 5.505-8.68 2.695 0 4.098 1.564 4.8 3.664h7.55m-35.706 3.724h-3.124c-4.693 0-6.42-1.454-6.42-4.158 0-1.989 1.242-3.715 4.043-3.715 4.91 0 5.501 3.453 5.501 7.116zm7.554-5.5c0-2.696.214-6.582.375-7.227h-7.389c-.213.535-.378 2.048-.378 2.746-1.025-1.565-2.913-3.393-7.874-3.393-6.742 0-9.548 4.421-9.548 8.731 0 6.37 5.072 9.336 13.268 9.336h3.992v1.667c0 1.998-.702 3.944-4.314 3.944-3.236 0-3.988-1.35-4.317-3.4h-7.332c.378 4.956 3.453 8.954 11.97 8.954 7.446-.052 11.547-2.97 11.547-9.66V-99.13m-42.694 1.182c.59-2.262 2.427-3.504 5.283-3.504 2.863 0 3.886 1.028 3.886 2.755 0 1.778-1.185 2.474-5.178 3.451-9.114 2.263-10.571 5.068-10.571 9.005 0 4.098 2.856 8.469 11.273 8.469 8.469 0 11.38-4.643 11.593-8.417h-7.333c-.269 1.028-.97 2.966-4.584 2.966-2.537 0-3.4-1.131-3.4-2.371 0-1.404.863-2.05 5.394-3.13 9.332-2.158 10.68-5.34 10.68-9.437 0-4.643-3.56-8.843-12.027-8.843-8.524 0-11.975 4.098-12.622 9.056h7.606m-17.562-8.41v39.374h7.768v-39.373h-7.768M474.43-93.63h-3.13c-4.69 0-6.415-1.454-6.415-4.158 0-1.989 1.237-3.715 4.043-3.715 4.91 0 5.501 3.453 5.501 7.116zm7.554-5.5c0-2.696.212-6.582.374-7.227h-7.388c-.218.535-.378 2.048-.378 2.746-1.025-1.565-2.913-3.393-7.874-3.393-6.742 0-9.548 4.421-9.548 8.731 0 6.37 5.072 9.336 13.272 9.336h3.988v1.667c0 1.998-.702 3.944-4.314 3.944-3.236 0-3.993-1.35-4.317-3.4h-7.332c.378 4.956 3.451 8.954 11.975 8.954 7.44-.052 11.542-2.97 11.542-9.66V-99.13" transform="matrix(1.33333 0 0 -1.33333 -338.451 318.452)"/></svg>
