<svg xml:space="preserve" width="500" height="500" xmlns="http://www.w3.org/2000/svg"><path d="M375-136.16H0v375h375Z" style="fill:#0077d7;fill-opacity:1;fill-rule:nonzero;stroke:none;stroke-width:1.57009" transform="matrix(1.33333 0 0 -1.33333 0 318.452)"/><path style="fill:#bfddf5;fill-opacity:1;fill-rule:nonzero;stroke:none;stroke-width:1.57009" d="M311.77 138.02a20.464 20.464 0 0 0-6.84-1.168c-10.797 0-19.55 8.305-19.55 18.55 0 2.856.681 5.562 1.898 7.979h-23.999a38.464 38.464 0 0 1-.835-7.98c0-22.262 19.021-40.31 42.486-40.31 2.329 0 4.613.18 6.84.523zm-6.84 35.93c10.798 0 19.551-8.304 19.551-18.549 0-3.146-.827-6.109-2.284-8.704h24.223c.65 2.804.997 5.715.997 8.704 0 17.17-11.314 31.83-27.254 37.639v18.216h-21.036V173.12c1.834.54 3.783.83 5.803.83" transform="matrix(1.33333 0 0 -1.33333 0 318.452)"/><path style="fill:#fff;fill-opacity:1;fill-rule:nonzero;stroke:none;stroke-width:.15701" d="M209.885 58.706v22.112h-4.098v5.822h4.098v2.428c0 5.769 2.857 9.544 8.897 9.544 1.24 0 2.86-.109 3.56-.324v-6.093c-.432.053-1.024.106-1.619.106-2.264 0-3.126-.807-3.126-3.83V86.64h4.852v-5.822h-4.852V58.706h-7.712m47.605 11.972c0-3.668-.593-7.119-5.5-7.119-2.804 0-4.044 1.726-4.044 3.721 0 2.696 1.725 4.153 6.417 4.153h3.127zm7.55-4.747v11.702c0 6.689-4.097 9.6-11.54 9.655-7.663 0-10.92-3.23-11.772-7.488l7.135-1.465c.323 2.05 1.078 3.398 4.313 3.398 3.614 0 4.314-1.942 4.314-3.936v-1.672h-3.99c-8.197 0-13.267-2.966-13.267-9.33 0-4.315 2.804-8.738 9.545-8.738 4.963 0 6.85 1.834 7.874 3.398 0-.7.162-2.21.378-2.75h7.388c-.162.648-.377 4.53-.377 7.226m74.611 9.815c-.053 3.236-1.349 5.987-5.123 5.987-3.668 0-5.178-2.536-5.502-5.987zm-10.787-4.745c0-3.506 1.781-6.902 5.609-6.902 3.236 0 4.153 1.292 4.908 2.964h7.712c-.972-3.397-4.044-9.006-12.782-9.006-9.221 0-13.212 6.85-13.212 14.185 0 8.79 4.476 15.046 13.482 15.046 9.546 0 12.836-6.957 12.836-13.914 0-.97 0-1.564-.109-2.373h-18.444m-8.403-3.29c-.917-4.637-4.206-9.654-12.51-9.654-8.684 0-13.16 5.987-13.16 14.4 0 8.25 5.016 14.831 13.537 14.831 9.382 0 12.025-6.795 12.133-9.923h-7.495c-.486 2.264-1.78 3.828-4.8 3.828-3.56 0-5.555-3.074-5.555-8.466 0-5.987 2.157-8.683 5.5-8.683 2.697 0 4.1 1.564 4.8 3.668h7.55m-52.31 11.864c0 2.372 0 4.961-.054 7.065h7.495c.162-.755.27-2.697.324-3.56.917 1.726 3.183 4.207 8.09 4.207 5.61 0 9.222-3.83 9.222-10.84V58.704h-7.712v16.88c0 3.183-1.024 5.447-4.475 5.447-3.291 0-5.125-1.834-5.125-6.794V58.704h-7.766v20.872m-43.627-.539c0 2.803 0 5.23-.055 7.604h7.604c.109-.648.217-3.4.217-4.908 1.24 3.181 4.206 5.5 8.951 5.555v-7.389c-5.608.162-8.95-1.347-8.95-9.006V58.704h-7.767v20.333M347.233-26.084c0-9.069 0-19.253.185-27.767h-25.92c-.368 2.592-.554 7.776-.739 11.106-5.739-9.626-14.07-13.328-26.473-13.328-19.438 0-31.842 11.848-31.842 35.543v62.574h26.473v-57.205c0-10.553 3.332-19.253 14.81-19.253 12.033 0 17.032 6.48 17.032 25.362v51.096h26.474v-68.128M227.908 4.647c-.185 11.109-4.627 20.548-17.587 20.548-12.589 0-17.772-8.701-18.882-20.548zm-37.025-16.291c0-12.032 6.11-23.696 19.253-23.696 11.108 0 14.255 4.443 16.847 10.182h26.472c-3.332-11.661-13.884-30.915-43.875-30.915-31.655 0-45.354 23.512-45.354 48.687 0 30.177 15.365 51.652 46.282 51.652 32.765 0 44.057-23.883 44.057-47.763 0-3.333 0-5.368-.369-8.147h-63.313m-34.536 92.933v-135.14h-27.584v135.14h27.584M73.678 22.975c-15.18 0-20.547-9.812-20.547-29.434 0-16.109 4.813-28.51 20.178-28.51 13.513 0 20.733 12.03 20.733 30.175 0 16.108-6.11 27.769-20.364 27.769zm-45.91 58.314h26.659V31.86c3.886 6.11 11.847 12.406 27.397 12.406 26.102 0 39.06-21.662 39.06-48.504 0-27.398-14.069-51.835-41.651-51.835-14.255 0-20.55 4.26-25.178 11.293 0-3.15-.556-6.666-1.11-9.071H27.583c.184 10.367.184 20.92.184 31.283V81.29M339.65-89.315c-.055 3.239-1.347 5.988-5.122 5.988-3.669 0-5.178-2.537-5.506-5.988zm-10.788-4.746c0-3.507 1.78-6.903 5.611-6.903 3.235 0 4.153 1.292 4.905 2.968h7.716c-.972-3.403-4.046-9.01-12.782-9.01-9.226 0-13.218 6.849-13.218 14.186 0 8.793 4.477 15.046 13.485 15.046 9.549 0 12.838-6.955 12.838-13.914 0-.97 0-1.566-.105-2.373h-18.45m-24.492 8.035c0 2.806 0 5.233-.055 7.606h7.605c.11-.646.217-3.397.217-4.907 1.242 3.18 4.208 5.502 8.953 5.553v-7.389c-5.607.162-8.953-1.348-8.953-9.007v-12.189h-7.767v20.333m-18.097 0c0 2.806 0 5.233-.055 7.606h7.605c.11-.646.217-3.397.217-4.907 1.24 3.18 4.208 5.502 8.953 5.553v-7.389c-5.607.162-8.953-1.348-8.953-9.007v-12.189h-7.767v20.333m-10.262-3.29c-.055 3.24-1.348 5.99-5.124 5.99-3.667 0-5.178-2.538-5.504-5.99zm-10.79-4.745c0-3.507 1.78-6.903 5.611-6.903 3.235 0 4.153 1.292 4.907 2.968h7.715c-.973-3.403-4.047-9.01-12.783-9.01-9.225 0-13.217 6.849-13.217 14.186 0 8.793 4.476 15.046 13.485 15.046 9.548 0 12.839-6.955 12.839-13.914 0-.97 0-1.566-.107-2.373h-18.45m-24.674 15.64c2.912-5.283 4.098-7.332 4.91-8.79h.056c.969 1.725 2.694 4.8 4.96 8.79h8.576l-9.06-13.324 9.003-14.614h-8.736c-2.482 4.748-4.046 7.767-4.91 9.386h-.05c-.702-1.459-2.645-5.071-4.911-9.386h-8.468l8.685 13.59-8.63 14.349h8.575m-9.438-19.85c0-2.644 0-5.607.056-8.089h-7.55c-.107.757-.162 2.266-.217 3.235-1.67-2.806-4.098-3.882-7.712-3.882-5.662 0-9.276 3.453-9.276 10.357v18.229h7.712v-16.666c0-3.072.969-5.611 4.314-5.611 3.508 0 4.962 1.887 4.962 7.389v14.888h7.71v-19.85m-35.947 4.638h-3.129c-4.693 0-6.418-1.454-6.418-4.153 0-1.994 1.24-3.719 4.046-3.719 4.906 0 5.501 3.45 5.501 7.12zm7.55-5.5c0-2.696.218-6.582.378-7.227H195.7c-.216.54-.378 2.05-.378 2.75-1.025-1.564-2.912-3.397-7.874-3.397-6.742 0-9.548 4.421-9.548 8.736 0 6.365 5.072 9.333 13.268 9.333h3.992v1.669c0 1.999-.702 3.941-4.314 3.941-3.236 0-3.993-1.352-4.315-3.4h-7.334c.374 4.96 3.451 8.953 11.97 8.953 7.444-.051 11.542-2.964 11.542-9.654v-11.704" transform="matrix(1.33333 0 0 -1.33333 0 318.452)"/></svg>