<svg xml:space="preserve" width="500" height="500" xmlns="http://www.w3.org/2000/svg"><path d="M375-136.16H0v375h375Z" style="fill:#0077d7;fill-opacity:1;fill-rule:nonzero;stroke:none;stroke-width:1.57009" transform="matrix(1.33333 0 0 -1.33333 0 318.452)"/><path style="fill:#bfddf5;fill-opacity:1;fill-rule:nonzero;stroke:none;stroke-width:1.57009" d="M311.77 138.02a20.464 20.464 0 0 0-6.84-1.168c-10.797 0-19.55 8.305-19.55 18.55 0 2.856.681 5.562 1.898 7.979h-23.999a38.464 38.464 0 0 1-.835-7.98c0-22.262 19.021-40.31 42.486-40.31 2.329 0 4.613.18 6.84.523zm-6.84 35.93c10.798 0 19.551-8.304 19.551-18.549 0-3.146-.827-6.109-2.284-8.704h24.223c.65 2.804.997 5.715.997 8.704 0 17.17-11.314 31.83-27.254 37.639v18.216h-21.036V173.12c1.834.54 3.783.83 5.803.83" transform="matrix(1.33333 0 0 -1.33333 0 318.452)"/><path style="fill:#fff;fill-opacity:1;fill-rule:nonzero;stroke:none;stroke-width:.15701" d="M209.885 58.706v22.112h-4.098v5.823h4.098v2.427c0 5.77 2.857 9.545 8.897 9.545 1.24 0 2.86-.108 3.56-.325v-6.093c-.432.054-1.024.108-1.619.108-2.264 0-3.126-.809-3.126-3.83v-1.832h4.852v-5.823h-4.852V58.706h-7.712m47.605 11.972c0-3.668-.593-7.119-5.5-7.119-2.804 0-4.044 1.727-4.044 3.721 0 2.696 1.725 4.153 6.417 4.153h3.127zm7.55-4.747v11.704c0 6.687-4.097 9.598-11.54 9.653-7.663 0-10.92-3.228-11.772-7.488l7.135-1.465c.323 2.05 1.078 3.398 4.313 3.398 3.614 0 4.314-1.94 4.314-3.936v-1.672h-3.99c-8.197 0-13.267-2.965-13.267-9.33 0-4.315 2.804-8.736 9.545-8.736 4.963 0 6.85 1.832 7.874 3.396 0-.7.162-2.21.378-2.75h7.388c-.162.65-.377 4.53-.377 7.226m74.611 9.817c-.053 3.234-1.349 5.985-5.123 5.985-3.668 0-5.178-2.534-5.502-5.985zM328.865 71c0-3.504 1.781-6.902 5.609-6.902 3.236 0 4.153 1.294 4.908 2.966h7.712c-.972-3.398-4.044-9.006-12.782-9.006-9.221 0-13.212 6.849-13.212 14.184 0 8.79 4.476 15.045 13.482 15.045 9.546 0 12.836-6.957 12.836-13.914 0-.97 0-1.564-.109-2.373h-18.444m-8.403-3.29c-.917-4.637-4.206-9.652-12.51-9.652-8.684 0-13.16 5.987-13.16 14.398 0 8.252 5.016 14.831 13.537 14.831 9.382 0 12.025-6.795 12.133-9.923h-7.495c-.486 2.266-1.78 3.83-4.8 3.83-3.56 0-5.555-3.075-5.555-8.468 0-5.985 2.157-8.681 5.5-8.681 2.697 0 4.1 1.564 4.8 3.666h7.55m-52.31 11.864c0 2.374 0 4.961-.054 7.065h7.495c.162-.755.27-2.696.324-3.56.917 1.726 3.183 4.207 8.09 4.207 5.61 0 9.222-3.83 9.222-10.84V58.706h-7.712v16.878c0 3.183-1.024 5.449-4.475 5.449-3.291 0-5.125-1.834-5.125-6.796V58.706h-7.766v20.87m-43.627-.539c0 2.804 0 5.232-.055 7.604h7.604c.109-.647.217-3.398.217-4.908 1.24 3.183 4.206 5.5 8.951 5.555v-7.389c-5.608.163-8.95-1.347-8.95-9.006V58.706h-7.767v20.331m122.709-105.12c0-9.069 0-19.252.185-27.767h-25.92c-.368 2.59-.554 7.775-.739 11.105-5.739-9.626-14.07-13.326-26.473-13.326-19.438 0-31.842 11.847-31.842 35.543v62.572h26.473V-15.16c0-10.553 3.332-19.255 14.81-19.255 12.033 0 17.032 6.48 17.032 25.362v51.096h26.474v-68.127M227.908 4.647c-.185 11.11-4.627 20.55-17.587 20.55-12.589 0-17.772-8.702-18.882-20.55zm-37.025-16.29c0-12.031 6.11-23.696 19.253-23.696 11.108 0 14.255 4.442 16.847 10.18h26.472c-3.332-11.659-13.884-30.912-43.875-30.912-31.655 0-45.354 23.512-45.354 48.687 0 30.175 15.365 51.65 46.282 51.65 32.765 0 44.057-23.883 44.057-47.763 0-3.333 0-5.368-.369-8.146h-63.313M156.347 81.29v-135.14h-27.584V81.29h27.584M73.678 22.977c-15.18 0-20.547-9.812-20.547-29.435 0-16.108 4.813-28.512 20.178-28.512 13.513 0 20.733 12.032 20.733 30.178 0 16.106-6.11 27.769-20.364 27.769zm-45.91 58.312h26.659V31.86c3.886 6.11 11.847 12.406 27.397 12.406 26.102 0 39.06-21.662 39.06-48.504 0-27.397-14.069-51.833-41.651-51.833-14.255 0-20.55 4.257-25.178 11.291 0-3.15-.556-6.666-1.11-9.07H27.583c.184 10.366.184 20.918.184 31.284V81.29M340.624-91.457c-.049 2.83-1.178 5.238-4.48 5.238-3.207 0-4.528-2.219-4.813-5.238zm-9.435-4.15c0-3.066 1.558-6.037 4.907-6.037 2.83 0 3.633 1.129 4.29 2.595h6.748c-.851-2.975-3.54-7.879-11.18-7.879-8.067 0-11.557 5.99-11.557 12.407 0 7.688 3.914 13.157 11.791 13.157 8.352 0 11.228-6.083 11.228-12.169 0-.848 0-1.367-.092-2.074h-16.135m-30.879 7.499c0 2.074 0 4.338-.049 6.178h6.559c.141-.661.234-2.357.282-3.11.8 1.509 2.78 3.676 7.075 3.676 4.904 0 8.063-3.345 8.063-9.481v-15.516h-6.744v14.763c0 2.783-.895 4.765-3.914 4.765-2.878 0-4.48-1.605-4.48-5.945v-13.583h-6.792v18.253m-15.06-12.498c4.055 0 5.14 2.779 5.14 6.883 0 4.106-.705 6.934-5 6.934-2.921 0-5.234-2.263-5.234-7.166 0-4.198 2.123-6.651 5.094-6.651zm11.557-2.786c0-7.828-2.876-12.78-12.123-12.78-8.915 0-10.657 4.952-10.896 7.736h6.888c.473-1.7 1.696-2.833 4.291-2.833 4.387 0 5.238 2.69 5.238 7.454v1.179c-1.275-2.123-3.305-3.443-6.888-3.443-6.414 0-10.094 5.283-10.094 11.84 0 7.641 4.576 12.875 10.658 12.875 4.201 0 5.945-1.977 6.324-3.112.045.662.234 2.124.282 2.546h6.366c0-2.215-.046-4.668-.046-7.024v-14.438m-38.232 14.813c0 2.452 0 4.575-.049 6.65h6.651c.098-.564.19-2.97.19-4.29 1.085 2.78 3.68 4.81 7.83 4.855v-6.462c-4.904.142-7.83-1.178-7.83-7.877v-10.658h-6.792v17.782m-8.971-2.878c-.047 2.83-1.178 5.238-4.48 5.238-3.208 0-4.528-2.219-4.814-5.238zm-9.435-4.15c0-3.066 1.557-6.037 4.906-6.037 2.83 0 3.634 1.129 4.292 2.595h6.746c-.85-2.975-3.539-7.879-11.177-7.879-8.07 0-11.56 5.99-11.56 12.407 0 7.688 3.915 13.157 11.794 13.157 8.35 0 11.226-6.083 11.226-12.169 0-.848 0-1.367-.096-2.074H240.17M217.993-81.93c2.313-8.301 4.245-15.517 4.718-18.442h.047c.707 4.011 3.065 11.368 5.188 18.442h6.746l-8.632-24.43h-7.075l-8.304 24.43h7.312m-8.206-17.357c0-2.313 0-4.904.046-7.074h-6.602c-.098.66-.142 1.98-.19 2.828-1.462-2.45-3.585-3.395-6.746-3.395-4.955 0-8.114 3.02-8.114 9.057v15.941h6.747v-14.572c0-2.693.85-4.908 3.773-4.908 3.065 0 4.34 1.652 4.34 6.461v13.02h6.746v-17.358m-31.44 4.055h-2.736c-4.104 0-5.613-1.27-5.613-3.631 0-1.743 1.085-3.254 3.539-3.254 4.294 0 4.81 3.02 4.81 6.23zm6.603-4.81c0-2.357.19-5.755.331-6.319h-6.46c-.19.47-.332 1.79-.332 2.404-.897-1.367-2.547-2.97-6.89-2.97-5.895 0-8.345 3.867-8.345 7.64 0 5.564 4.434 8.161 11.602 8.161h3.492v1.46c0 1.748-.614 3.447-3.773 3.447-2.834 0-3.492-1.183-3.775-2.975h-6.412c.326 4.342 3.018 7.83 10.468 7.83 6.51-.045 10.094-2.59 10.094-8.443v-10.235M154.49-85.938c1.275 4.574 2.126 10.188 2.22 14.009h7.123c-.38-4.529-1.89-10.189-3.915-14.01h-5.428m-14.64-15.564c4.625 0 5.19 3.866 5.19 7.358 0 4.197-.614 7.356-5.049 7.356-3.536 0-5.33-2.779-5.33-7.405 0-4.763 1.843-7.309 5.19-7.309zm11.65 29.574v-27.734c0-2.22 0-4.482.05-6.698h-6.465c-.142.754-.284 1.98-.328 2.546-1.182-1.933-3.301-3.113-6.937-3.113-6.179 0-10.09 4.954-10.09 12.593 0 7.502 4.15 12.97 11.082 12.97 3.536 0 5.425-1.27 5.945-2.354v11.79h6.744m-48.426-27.076c.516-1.981 2.119-3.063 4.62-3.063 2.499 0 3.395.895 3.395 2.405 0 1.553-1.037 2.167-4.529 3.02-7.97 1.976-9.242 4.43-9.242 7.874 0 3.587 2.499 7.405 9.856 7.405 7.406 0 9.952-4.056 10.142-7.358h-6.413c-.238.896-.851 2.595-4.011 2.595-2.216 0-2.97-.993-2.97-2.074 0-1.226.754-1.793 4.713-2.737 8.164-1.887 9.339-4.669 9.339-8.257 0-4.055-3.112-7.733-10.514-7.733-7.457 0-10.477 3.584-11.041 7.923h6.655M80.88-81.93c2.499-8.442 4.714-15.941 5.093-18.205h.045c.52 2.45 1.981 7.923 4.86 18.205h6.747l-8.21-25.139c-2.312-7.029-4.293-9.103-10.14-9.103-.614 0-1.983.047-3.161.19v5.423a18.983 18.983 0 0 1 1.747-.098c2.499 0 3.725.852 4.67 3.54L73.617-81.93h7.264M66.995-95.232H64.26c-4.104 0-5.613-1.27-5.613-3.631 0-1.743 1.085-3.254 3.54-3.254 4.293 0 4.81 3.02 4.81 6.23zm6.603-4.81c0-2.357.19-5.755.33-6.319h-6.46c-.19.47-.332 1.79-.332 2.404-.895-1.367-2.546-2.97-6.888-2.97-5.896 0-8.346 3.867-8.346 7.64 0 5.564 4.435 8.161 11.603 8.161h3.49v1.46c0 1.748-.613 3.447-3.773 3.447-2.833 0-3.49-1.183-3.774-2.975h-6.413c.327 4.342 3.02 7.83 10.47 7.83 6.51-.045 10.093-2.59 10.093-8.443v-10.235M39.28-86.79c-3.822 0-5.19-2.497-5.19-7.405 0-4.67 1.275-7.357 4.907-7.357 3.584 0 5.332 2.785 5.332 7.737 0 4.478-1.796 7.025-5.049 7.025zm-11.651-28.912v27.875c0 1.982 0 3.915-.044 5.896h6.554c.093-.661.234-2.17.234-3.066 1.04 1.796 3.208 3.632 7.078 3.632 5.518 0 9.714-4.621 9.714-12.169 0-8.632-4.717-13.395-10.614-13.395-3.442 0-5.234 1.32-6.178 2.737v-11.51h-6.744" transform="matrix(1.33333 0 0 -1.33333 0 318.452)"/></svg>