<svg xml:space="preserve" width="500" height="500" xmlns="http://www.w3.org/2000/svg"><path d="M375-136.16H0v375h375Z" style="fill:#0077d7;fill-opacity:1;fill-rule:nonzero;stroke:none;stroke-width:1.57009" transform="matrix(1.33333 0 0 -1.33333 0 318.452)"/><path style="fill:#bfddf5;fill-opacity:1;fill-rule:nonzero;stroke:none;stroke-width:1.57009" d="M311.77 138.02a20.464 20.464 0 0 0-6.84-1.168c-10.797 0-19.55 8.305-19.55 18.55 0 2.856.681 5.562 1.898 7.979h-23.999a38.464 38.464 0 0 1-.835-7.98c0-22.262 19.021-40.31 42.486-40.31 2.329 0 4.613.18 6.84.523zm-6.84 35.93c10.798 0 19.551-8.304 19.551-18.549 0-3.146-.827-6.109-2.284-8.704h24.223c.65 2.804.997 5.715.997 8.704 0 17.17-11.314 31.83-27.254 37.639v18.216h-21.036V173.12c1.834.54 3.783.83 5.803.83" transform="matrix(1.33333 0 0 -1.33333 0 318.452)"/><path style="fill:#fff;fill-opacity:1;fill-rule:nonzero;stroke:none;stroke-width:.15701" d="M209.885 58.706v22.112h-4.098v5.822h4.098v2.428c0 5.769 2.857 9.544 8.897 9.544 1.24 0 2.858-.109 3.558-.324v-6.093c-.43.054-1.022.106-1.617.106-2.264 0-3.126-.807-3.126-3.828V86.64h4.852v-5.822h-4.852V58.706h-7.712m47.605 11.972c0-3.668-.593-7.119-5.5-7.119-2.804 0-4.044 1.726-4.044 3.721 0 2.696 1.725 4.153 6.417 4.153h3.127zm7.55-4.747v11.702c0 6.689-4.099 9.6-11.54 9.655-7.663 0-10.92-3.23-11.772-7.488l7.135-1.465c.323 2.05 1.078 3.398 4.313 3.398 3.614 0 4.314-1.942 4.314-3.936v-1.672h-3.99c-8.197 0-13.267-2.966-13.267-9.33 0-4.315 2.804-8.738 9.545-8.738 4.963 0 6.85 1.834 7.874 3.398 0-.7.162-2.21.378-2.75h7.388c-.162.648-.377 4.53-.377 7.226m74.611 9.815c-.055 3.236-1.349 5.987-5.123 5.987-3.668 0-5.178-2.534-5.502-5.987zm-10.787-4.745c0-3.506 1.781-6.903 5.609-6.903 3.236 0 4.153 1.295 4.908 2.965h7.712c-.972-3.397-4.044-9.006-12.782-9.006-9.221 0-13.212 6.85-13.212 14.185 0 8.79 4.476 15.046 13.482 15.046 9.546 0 12.836-6.957 12.836-13.914 0-.97 0-1.564-.109-2.373h-18.444m-8.403-3.29c-.917-4.637-4.206-9.654-12.51-9.654-8.684 0-13.16 5.987-13.16 14.4 0 8.25 5.016 14.831 13.537 14.831 9.382 0 12.025-6.795 12.133-9.923h-7.495c-.486 2.264-1.78 3.828-4.8 3.828-3.56 0-5.555-3.073-5.555-8.466 0-5.987 2.157-8.683 5.5-8.683 2.697 0 4.1 1.564 4.8 3.668h7.55m-52.31 11.864c0 2.372 0 4.961-.054 7.065h7.495c.162-.755.27-2.697.324-3.56.917 1.726 3.183 4.207 8.09 4.207 5.61 0 9.222-3.83 9.222-10.84V58.706h-7.712v16.878c0 3.183-1.024 5.447-4.477 5.447-3.29 0-5.123-1.832-5.123-6.794V58.706h-7.766v20.87m-43.627-.539c0 2.804 0 5.232-.055 7.604h7.604c.109-.648.217-3.4.217-4.908 1.24 3.181 4.206 5.5 8.951 5.555v-7.389c-5.608.162-8.95-1.347-8.95-9.006V58.706h-7.767v20.331M347.233-26.084c0-9.069 0-19.253.185-27.767h-25.92c-.368 2.592-.554 7.776-.739 11.106-5.739-9.626-14.07-13.328-26.473-13.328-19.438 0-31.842 11.848-31.842 35.543v62.574h26.473v-57.205c0-10.553 3.332-19.253 14.81-19.253 12.033 0 17.032 6.48 17.032 25.362v51.096h26.474v-68.128M227.908 4.647c-.185 11.109-4.627 20.548-17.587 20.548-12.589 0-17.772-8.7-18.882-20.548zm-37.025-16.291c0-12.032 6.11-23.696 19.253-23.696 11.108 0 14.255 4.443 16.847 10.182h26.472c-3.332-11.661-13.884-30.915-43.875-30.915-31.655 0-45.354 23.512-45.354 48.689 0 30.175 15.365 51.65 46.28 51.65 32.767 0 44.06-23.883 44.06-47.763 0-3.333 0-5.368-.37-8.147h-63.313m-34.536 92.933v-135.14h-27.583v135.14h27.583M73.678 22.975c-15.18 0-20.547-9.812-20.547-29.434 0-16.109 4.812-28.51 20.178-28.51 13.513 0 20.733 12.03 20.733 30.175 0 16.108-6.11 27.769-20.364 27.769zm-45.91 58.314h26.659V31.86c3.886 6.11 11.847 12.406 27.397 12.406 26.102 0 39.06-21.662 39.06-48.504 0-27.398-14.069-51.835-41.651-51.835-14.255 0-20.55 4.26-25.178 11.293 0-3.15-.556-6.666-1.11-9.071H27.582c.186 10.367.186 20.92.186 31.283V81.29M330.06-78.424c2.863-9.654 5.395-18.228 5.83-20.818h.05c.595 2.803 2.266 9.06 5.557 20.818h7.71l-9.38-28.745c-2.645-8.039-4.91-10.411-11.597-10.411-.702 0-2.268.054-3.615.216v6.202c.54-.055 1.347-.11 1.994-.11 2.86 0 4.265.974 5.34 4.046l-10.195 28.802h8.306m-24.788-7.604c0 2.806 0 5.234-.055 7.604h7.605c.112-.645.217-3.396.217-4.905 1.242 3.18 4.21 5.502 8.954 5.552v-7.389c-5.608.162-8.954-1.347-8.954-9.007v-12.189h-7.767v20.334m-18.1 0c0 2.806 0 5.234-.057 7.604h7.606c.111-.645.216-3.396.216-4.905 1.242 3.18 4.21 5.502 8.954 5.552v-7.389c-5.608.162-8.954-1.347-8.954-9.007v-12.189h-7.766v20.334m-10.259-3.29c-.055 3.234-1.347 5.99-5.121 5.99-3.67 0-5.178-2.54-5.507-5.99zm-10.79-4.746c0-3.507 1.783-6.903 5.612-6.903 3.236 0 4.155 1.292 4.907 2.967h7.715c-.973-3.4-4.046-9.007-12.784-9.007-9.224 0-13.217 6.848-13.217 14.185 0 8.792 4.478 15.045 13.486 15.045 9.548 0 12.839-6.956 12.839-13.914 0-.969 0-1.564-.107-2.373h-18.45m-22.616 10.085c-4.422 0-5.985-2.857-5.985-8.575 0-4.693 1.402-8.307 5.878-8.307 3.936 0 6.042 3.508 6.042 8.792 0 4.692-1.782 8.09-5.935 8.09zm-13.374 16.992h7.767v-14.402c1.13 1.78 3.451 3.612 7.982 3.612 7.606 0 11.382-6.309 11.382-14.13 0-7.984-4.1-15.1-12.138-15.1-4.153 0-5.986 1.24-7.333 3.29 0-.92-.161-1.943-.323-2.645h-7.394c.057 3.02.057 6.096.057 9.115v30.26" transform="matrix(1.33333 0 0 -1.33333 0 318.452)"/></svg>