<svg xml:space="preserve" width="500" height="500" xmlns="http://www.w3.org/2000/svg"><path d="M375-136.16H0v375h375Z" style="fill:#0077d7;fill-opacity:1;fill-rule:nonzero;stroke:none;stroke-width:1.57009" transform="matrix(1.33333 0 0 -1.33333 0 318.452)"/><path style="fill:#bfddf5;fill-opacity:1;fill-rule:nonzero;stroke:none;stroke-width:1.57009" d="M311.77 138.02a20.464 20.464 0 0 0-6.84-1.168c-10.797 0-19.55 8.305-19.55 18.55 0 2.856.681 5.562 1.898 7.979h-23.999a38.464 38.464 0 0 1-.835-7.98c0-22.262 19.021-40.31 42.486-40.31 2.329 0 4.613.18 6.84.523zm-6.84 35.93c10.798 0 19.551-8.304 19.551-18.549 0-3.146-.827-6.109-2.284-8.704h24.223c.65 2.804.997 5.715.997 8.704 0 17.17-11.314 31.83-27.254 37.639v18.216h-21.036V173.12c1.834.54 3.783.83 5.803.83" transform="matrix(1.33333 0 0 -1.33333 0 318.452)"/><path style="fill:#fff;fill-opacity:1;fill-rule:nonzero;stroke:none;stroke-width:.15701" d="M209.885 58.706v22.11h-4.098v5.824h4.098v2.428c0 5.769 2.857 9.544 8.897 9.544 1.24 0 2.86-.109 3.56-.324v-6.093c-.432.054-1.024.106-1.619.106-2.264 0-3.126-.807-3.126-3.83V86.64h4.852v-5.824h-4.852v-22.11h-7.712m47.605 11.97c0-3.666-.593-7.117-5.5-7.117-2.804 0-4.044 1.726-4.044 3.721 0 2.696 1.725 4.151 6.417 4.151h3.127zm7.55-4.745v11.704c0 6.687-4.097 9.598-11.54 9.653-7.663 0-10.92-3.23-11.772-7.488l7.135-1.465c.323 2.05 1.078 3.398 4.313 3.398 3.614 0 4.314-1.942 4.314-3.936v-1.672h-3.99c-8.197 0-13.267-2.966-13.267-9.33 0-4.315 2.804-8.738 9.545-8.738 4.963 0 6.85 1.834 7.874 3.398 0-.7.162-2.21.378-2.75h7.388c-.162.648-.377 4.53-.377 7.226m74.611 9.815c-.053 3.236-1.349 5.987-5.123 5.987-3.668 0-5.178-2.536-5.502-5.987zm-10.787-4.745c0-3.506 1.781-6.902 5.609-6.902 3.236 0 4.153 1.294 4.908 2.964h7.712c-.972-3.396-4.044-9.006-12.782-9.006-9.221 0-13.212 6.85-13.212 14.185 0 8.79 4.476 15.046 13.482 15.046 9.546 0 12.836-6.957 12.836-13.914 0-.97 0-1.564-.109-2.373h-18.444m-8.403-3.29c-.917-4.637-4.206-9.654-12.51-9.654-8.684 0-13.16 5.987-13.16 14.4 0 8.25 5.016 14.831 13.537 14.831 9.382 0 12.025-6.795 12.133-9.923h-7.495c-.486 2.266-1.78 3.828-4.8 3.828-3.56 0-5.555-3.073-5.555-8.466 0-5.987 2.157-8.683 5.5-8.683 2.697 0 4.1 1.564 4.8 3.666h7.55m-52.31 11.866c0 2.372 0 4.961-.054 7.065h7.495c.162-.755.27-2.697.324-3.56.917 1.726 3.183 4.207 8.09 4.207 5.61 0 9.222-3.83 9.222-10.84V58.704h-7.712v16.88c0 3.183-1.024 5.447-4.475 5.447-3.291 0-5.125-1.834-5.125-6.794V58.704h-7.766v20.872m-43.627-.539c0 2.804 0 5.23-.055 7.604h7.604c.109-.648.217-3.4.217-4.908 1.24 3.181 4.206 5.5 8.951 5.555v-7.389c-5.608.162-8.95-1.347-8.95-9.006V58.704h-7.767v20.333m122.709-105.12c0-9.07 0-19.254.185-27.768h-25.92c-.368 2.592-.554 7.776-.739 11.106-5.739-9.628-14.07-13.328-26.473-13.328-19.438 0-31.842 11.848-31.842 35.543v62.574h26.473v-57.205c0-10.553 3.332-19.254 14.81-19.254 12.033 0 17.032 6.48 17.032 25.363v51.096h26.474v-68.127M227.908 4.647c-.185 11.109-4.627 20.55-17.587 20.55-12.589 0-17.772-8.702-18.882-20.55zm-37.025-16.291c0-12.032 6.11-23.696 19.253-23.696 11.108 0 14.255 4.443 16.847 10.18h26.472c-3.332-11.66-13.884-30.913-43.875-30.913-31.655 0-45.354 23.512-45.354 48.689 0 30.174 15.365 51.65 46.282 51.65 32.765 0 44.057-23.883 44.057-47.763 0-3.333 0-5.368-.369-8.147h-63.313m-34.536 92.933v-135.14h-27.584v135.14h27.584M73.678 22.975c-15.18 0-20.547-9.81-20.547-29.434 0-16.109 4.813-28.51 20.178-28.51 13.513 0 20.733 12.03 20.733 30.177 0 16.106-6.11 27.767-20.364 27.767zm-45.91 58.314h26.659V31.86c3.886 6.11 11.847 12.406 27.397 12.406 26.102 0 39.06-21.662 39.06-48.504 0-27.398-14.069-51.835-41.651-51.835-14.255 0-20.55 4.26-25.178 11.293 0-3.15-.556-6.666-1.11-9.071H27.583c.184 10.367.184 20.92.184 31.283V81.29M322.34-85.488c0 2.373 0 4.962-.055 7.066h7.498c.162-.752.269-2.694.324-3.558.914 1.726 3.18 4.205 8.089 4.205 5.608 0 9.221-3.827 9.221-10.842v-17.744h-7.71v16.882c0 3.184-1.026 5.45-4.477 5.45-3.29 0-5.123-1.837-5.123-6.797v-15.535h-7.767v20.873m-22.345-6.903c0-5.395 2.321-8.574 6.042-8.574 3.83 0 5.934 3.18 5.934 8.519 0 5.828-2.16 8.579-6.04 8.579-3.563 0-5.936-2.644-5.936-8.524zm19.795.054c0-8.467-5.069-14.67-13.915-14.67-8.63 0-13.702 6.203-13.702 14.51 0 8.63 5.233 14.722 14.08 14.722 8.197 0 13.537-5.825 13.537-14.562m-28.2-5.016c-.756-3.886-3.234-8.09-8.952-9.276l-1.997-2.214c1.887-.485 4.693-1.565 4.693-5.123 0-4.638-4.422-5.607-7.658-5.607-1.675 0-3.239.212-3.99.535v4.103c.701-.111 2.427-.323 2.967-.323 1.832 0 2.37.43 2.37 1.347 0 1.509-2.32 1.777-4.636 1.887v1.832l2.801 3.291c-7.44.808-11.27 6.526-11.27 14.293 0 8.256 5.016 14.833 13.536 14.833 9.386 0 12.03-6.794 12.137-9.923h-7.5c-.484 2.266-1.776 3.83-4.799 3.83-3.558 0-5.556-3.078-5.556-8.469 0-5.99 2.16-8.685 5.506-8.685 2.694 0 4.098 1.565 4.8 3.67h7.549m-53.178 11.864c0 2.373 0 4.962-.055 7.066h7.499c.161-.752.268-2.694.323-3.558.914 1.726 3.18 4.205 8.09 4.205 5.608 0 9.22-3.827 9.22-10.842v-17.744h-7.71v16.882c0 3.184-1.025 5.45-4.478 5.45-3.29 0-5.122-1.837-5.122-6.797v-15.535h-7.767v20.873m-11.547-8.144h-3.124c-4.693 0-6.419-1.455-6.419-4.154 0-1.994 1.24-3.72 4.043-3.72 4.91 0 5.5 3.453 5.5 7.12zm7.554-5.501c0-2.696.214-6.582.375-7.228h-7.388c-.212.54-.379 2.05-.379 2.752-1.025-1.566-2.912-3.398-7.872-3.398-6.744 0-9.55 4.421-9.55 8.736 0 6.365 5.073 9.332 13.27 9.332h3.99v1.67c0 1.998-.701 3.942-4.314 3.942-3.236 0-3.988-1.352-4.315-3.4h-7.334c.379 4.96 3.453 8.952 11.972 8.952 7.444-.052 11.545-2.964 11.545-9.655v-11.703m-42.694 1.185c.595-2.265 2.427-3.503 5.285-3.503 2.86 0 3.884 1.025 3.884 2.751 0 1.778-1.185 2.48-5.176 3.453-9.12 2.265-10.573 5.066-10.573 9.003 0 4.102 2.856 8.469 11.273 8.469 8.47 0 11.382-4.638 11.594-8.414h-7.334c-.267 1.025-.97 2.967-4.582 2.967-2.539 0-3.4-1.13-3.4-2.37 0-1.404.861-2.051 5.393-3.131 9.332-2.16 10.68-5.339 10.68-9.437 0-4.643-3.558-8.847-12.028-8.847-8.524 0-11.975 4.097-12.622 9.06h7.606m-16.01 8.63c-.055 3.24-1.352 5.99-5.127 5.99-3.664 0-5.178-2.539-5.5-5.99zm-10.789-4.745c0-3.507 1.78-6.903 5.61-6.903 3.236 0 4.155 1.291 4.907 2.967h7.715c-.973-3.401-4.046-9.01-12.782-9.01-9.226 0-13.214 6.85-13.214 14.188 0 8.79 4.474 15.045 13.481 15.045 9.548 0 12.839-6.956 12.839-13.915 0-.968 0-1.565-.107-2.372h-18.449M142.31-83.979c-4.42 0-5.985-2.855-5.985-8.574 0-4.693 1.403-8.306 5.879-8.306 3.94 0 6.041 3.506 6.041 8.791 0 4.693-1.777 8.09-5.935 8.09zm-13.374 16.993h7.767v-14.403c1.135 1.781 3.452 3.614 7.984 3.614 7.605 0 11.38-6.309 11.38-14.131 0-7.98-4.098-15.101-12.137-15.101-4.153 0-5.986 1.242-7.333 3.29 0-.918-.162-1.943-.323-2.644h-7.389c.051 3.023.051 6.095.051 9.115v30.26" transform="matrix(1.33333 0 0 -1.33333 0 318.452)"/></svg>