<svg xml:space="preserve" width="500" height="500" xmlns="http://www.w3.org/2000/svg"><path d="M375-136.16H0v375h375Z" style="fill:#0077d7;fill-opacity:1;fill-rule:nonzero;stroke:none;stroke-width:1.57009" transform="matrix(1.33333 0 0 -1.33333 0 318.452)"/><path style="fill:#bfddf5;fill-opacity:1;fill-rule:nonzero;stroke:none;stroke-width:1.57009" d="M311.77 138.02a20.464 20.464 0 0 0-6.84-1.168c-10.797 0-19.55 8.305-19.55 18.55 0 2.856.681 5.562 1.898 7.979h-23.999a38.464 38.464 0 0 1-.835-7.98c0-22.262 19.021-40.31 42.486-40.31 2.329 0 4.613.18 6.84.523zm-6.84 35.93c10.798 0 19.551-8.304 19.551-18.549 0-3.146-.827-6.109-2.284-8.704h24.223c.65 2.804.997 5.715.997 8.704 0 17.17-11.314 31.83-27.254 37.639v18.216h-21.036V173.12c1.834.54 3.783.83 5.803.83" transform="matrix(1.33333 0 0 -1.33333 0 318.452)"/><path style="fill:#fff;fill-opacity:1;fill-rule:nonzero;stroke:none;stroke-width:.15701" d="M209.885 58.706v22.112h-4.098v5.823h4.098v2.427c0 5.77 2.857 9.545 8.897 9.545 1.24 0 2.86-.108 3.56-.325v-6.093c-.432.054-1.024.108-1.619.108-2.264 0-3.126-.809-3.126-3.83v-1.832h4.852v-5.823h-4.852V58.706h-7.712m47.605 11.972c0-3.668-.593-7.119-5.5-7.119-2.804 0-4.044 1.727-4.044 3.721 0 2.696 1.725 4.153 6.417 4.153h3.127zm7.55-4.747v11.704c0 6.687-4.097 9.598-11.54 9.653-7.663 0-10.92-3.228-11.772-7.488l7.135-1.465c.323 2.05 1.078 3.398 4.313 3.398 3.614 0 4.314-1.94 4.314-3.936v-1.672h-3.99c-8.197 0-13.267-2.965-13.267-9.33 0-4.315 2.804-8.736 9.545-8.736 4.963 0 6.85 1.832 7.874 3.396 0-.7.162-2.21.378-2.75h7.388c-.162.65-.377 4.53-.377 7.226m74.611 9.817c-.053 3.234-1.349 5.985-5.123 5.985-3.668 0-5.178-2.534-5.502-5.985zM328.865 71c0-3.504 1.781-6.902 5.609-6.902 3.236 0 4.153 1.294 4.908 2.966h7.712c-.972-3.398-4.044-9.006-12.782-9.006-9.221 0-13.212 6.849-13.212 14.184 0 8.79 4.476 15.045 13.482 15.045 9.546 0 12.836-6.957 12.836-13.914 0-.97 0-1.564-.109-2.373h-18.444m-8.403-3.29c-.917-4.637-4.206-9.652-12.51-9.652-8.684 0-13.16 5.987-13.16 14.398 0 8.252 5.016 14.831 13.537 14.831 9.382 0 12.025-6.795 12.133-9.923h-7.495c-.486 2.266-1.78 3.83-4.8 3.83-3.56 0-5.555-3.075-5.555-8.468 0-5.985 2.157-8.681 5.5-8.681 2.697 0 4.1 1.564 4.8 3.666h7.55m-52.31 11.864c0 2.374 0 4.961-.054 7.065h7.495c.162-.755.27-2.696.324-3.56.917 1.726 3.183 4.207 8.09 4.207 5.61 0 9.222-3.83 9.222-10.84V58.706h-7.712v16.878c0 3.183-1.024 5.449-4.475 5.449-3.291 0-5.125-1.834-5.125-6.796V58.706h-7.766v20.87m-43.627-.539c0 2.804 0 5.232-.055 7.604h7.604c.109-.647.217-3.398.217-4.908 1.24 3.183 4.206 5.5 8.951 5.555v-7.389c-5.608.163-8.95-1.347-8.95-9.006V58.706h-7.767v20.331m122.709-105.12c0-9.069 0-19.252.185-27.767h-25.92c-.368 2.59-.554 7.775-.739 11.105-5.739-9.626-14.07-13.326-26.473-13.326-19.438 0-31.842 11.847-31.842 35.543v62.572h26.473V-15.16c0-10.553 3.332-19.255 14.81-19.255 12.033 0 17.032 6.48 17.032 25.362v51.096h26.474v-68.127M227.908 4.647c-.185 11.11-4.627 20.55-17.587 20.55-12.589 0-17.772-8.702-18.882-20.55zm-37.025-16.29c0-12.031 6.11-23.696 19.253-23.696 11.108 0 14.255 4.442 16.847 10.18h26.472c-3.332-11.659-13.884-30.912-43.875-30.912-31.655 0-45.354 23.512-45.354 48.687 0 30.175 15.365 51.65 46.282 51.65 32.765 0 44.057-23.883 44.057-47.763 0-3.333 0-5.368-.369-8.146h-63.313M156.347 81.29v-135.14h-27.584V81.29h27.584M73.678 22.977c-15.18 0-20.547-9.812-20.547-29.435 0-16.108 4.813-28.512 20.178-28.512 13.513 0 20.733 12.032 20.733 30.178 0 16.106-6.11 27.769-20.364 27.769zm-45.91 58.312h26.659V31.86c3.886 6.11 11.847 12.406 27.397 12.406 26.102 0 39.06-21.662 39.06-48.504 0-27.397-14.069-51.833-41.651-51.833-14.255 0-20.55 4.257-25.178 11.291 0-3.15-.556-6.666-1.11-9.07H27.583c.184 10.366.184 20.918.184 31.284V81.29m309.687-183.512c3.936 0 4.418 3.294 4.418 6.268 0 3.573-.523 6.265-4.297 6.265-3.015 0-4.54-2.369-4.54-6.308 0-4.057 1.566-6.225 4.419-6.225zm9.925 25.19v-23.623c0-1.89 0-3.819.037-5.705h-5.503c-.12.642-.24 1.687-.283 2.167-1.003-1.645-2.812-2.648-5.905-2.648-5.263 0-8.598 4.217-8.598 10.725 0 6.389 3.538 11.047 9.445 11.047 3.011 0 4.619-1.082 5.058-2.007v10.045h5.749M314.65-91.217c0 2.09 0 3.9-.04 5.667h5.664c.084-.482.162-2.531.162-3.656.925 2.37 3.134 4.099 6.668 4.136v-5.503c-4.176.12-6.668-1.004-6.668-6.71v-9.078h-5.786v15.144m-8.58-5.663h-2.332c-3.492 0-4.778-1.085-4.778-3.095 0-1.484.922-2.77 3.012-2.77 3.657 0 4.098 2.57 4.098 5.302zm5.627-4.1c0-2.006.157-4.902.278-5.38h-5.503c-.162.4-.283 1.524-.283 2.047-.763-1.165-2.168-2.53-5.864-2.53-5.021 0-7.111 3.293-7.111 6.507 0 4.74 3.777 6.95 9.885 6.95h2.97v1.244c0 1.489-.522 2.936-3.213 2.936-2.41 0-2.974-1.006-3.214-2.532h-5.463c.281 3.699 2.57 6.668 8.92 6.668 5.541-.037 8.598-2.206 8.598-7.191v-8.719M285.57-85.55h5.786v-20.81h-5.786zm0 3.376v5.142h5.786v-5.142h-5.786m-8.714-24.187v29.329h5.784v-29.329h-5.784m-3.385 29.73-6.428-5.947h-5.023l4.62 5.947zm-4.338-17.035c-.041 2.41-1.005 4.46-3.817 4.46-2.732 0-3.857-1.89-4.1-4.46zm-8.038-3.535c0-2.612 1.327-5.143 4.18-5.143 2.41 0 3.094.962 3.653 2.21h5.749c-.726-2.532-3.015-6.708-9.523-6.708-6.87 0-9.845 5.1-9.845 10.565 0 6.549 3.335 11.207 10.046 11.207 7.11 0 9.562-5.181 9.562-10.363 0-.722 0-1.166-.082-1.768h-13.74m-16.842 7.511c-3.298 0-4.463-2.128-4.463-6.388 0-3.495 1.045-6.186 4.38-6.186 2.932 0 4.5 2.612 4.5 6.549 0 3.495-1.327 6.025-4.417 6.025zm-9.966 12.658h5.785v-10.73c.843 1.327 2.571 2.692 5.947 2.692 5.665 0 8.477-4.7 8.477-10.526 0-5.946-3.052-11.246-9.04-11.246-3.094 0-4.46.924-5.463 2.45a9.27 9.27 0 0 0-.243-1.969h-5.505c.042 2.247.042 4.54.042 6.788v22.54m-14.503-8.517h3.214v5.624h5.747v-5.624h4.098v-4.339h-4.098v-10.285c0-1.567.482-2.17 2.207-2.17.324 0 .884 0 1.286.04v-3.937c-1.124-.402-2.692-.402-3.857-.402-4.056 0-5.383 2.168-5.383 5.827v10.927h-3.214v4.339m-19.424-5.263c0 1.766 0 3.694-.042 5.263h5.583c.121-.564.203-2.009.24-2.65.685 1.283 2.373 3.13 6.03 3.13 4.18 0 6.872-2.85 6.872-8.073v-13.218h-5.748v12.574c0 2.371-.763 4.059-3.333 4.059-2.451 0-3.82-1.368-3.82-5.062v-11.57h-5.782v15.547m-16.644-5.142c0-4.02 1.729-6.39 4.503-6.39 2.85 0 4.418 2.37 4.418 6.347 0 4.342-1.606 6.39-4.5 6.39-2.65 0-4.421-1.969-4.421-6.347zm14.748.04c0-6.308-3.778-10.927-10.364-10.927-6.428 0-10.208 4.619-10.208 10.806 0 6.429 3.899 10.966 10.485 10.966 6.108 0 10.087-4.338 10.087-10.845m-52.247 4.98c0 1.808 0 3.576-.038 5.385h5.504c.08-.525.2-1.69.24-2.49 1.046 1.526 2.73 2.97 5.783 2.97 2.976 0 4.623-1.564 5.346-3.171 1.246 1.686 3.014 3.171 6.428 3.171 3.616 0 6.59-2.246 6.59-7.63v-13.66h-5.628v12.934c0 1.89-.681 3.736-3.052 3.736-2.41 0-3.376-1.605-3.376-4.778v-11.893h-5.662v12.736c0 2.127-.526 3.897-2.974 3.897-2.33 0-3.454-1.448-3.454-5.021v-11.612h-5.707v15.427m-22.292 5.384h3.217v5.624h5.744v-5.624h4.097v-4.339h-4.097v-10.285c0-1.567.482-2.17 2.21-2.17.32 0 .884 0 1.286.04v-3.937c-1.127-.402-2.692-.402-3.857-.402-4.06 0-5.383 2.168-5.383 5.827v10.927h-3.217v4.339m-12.458-5.667c0 2.09 0 3.9-.038 5.667h5.665c.08-.482.162-2.531.162-3.656.925 2.37 3.131 4.099 6.669 4.136v-5.503c-4.18.12-6.67-1.004-6.67-6.71v-9.078h-5.788v15.144M94.85-95.955c0-4.02 1.726-6.39 4.496-6.39 2.857 0 4.421 2.37 4.421 6.347 0 4.342-1.608 6.39-4.5 6.39-2.65 0-4.417-1.969-4.417-6.347zm14.743.04c0-6.308-3.777-10.927-10.367-10.927-6.428 0-10.202 4.619-10.202 10.806 0 6.429 3.894 10.966 10.487 10.966 6.106 0 10.082-4.338 10.082-10.845M80.02-106.36v16.472h-3.056v4.339h3.056v1.807c0 4.3 2.127 7.112 6.627 7.112.925 0 2.129-.083 2.654-.24v-4.542c-.323.042-.766.08-1.206.08-1.688 0-2.33-.602-2.33-2.85v-1.367h3.615v-4.339h-3.616v-16.472H80.02m-9.826 0v29.329h5.782v-29.329h-5.782m-7.727 12.695c-.038 2.41-1.003 4.46-3.815 4.46-2.733 0-3.858-1.89-4.098-4.46zm-8.033-3.535c0-2.612 1.327-5.143 4.177-5.143 2.412 0 3.097.962 3.657 2.21h5.744c-.722-2.532-3.011-6.708-9.522-6.708-6.868 0-9.842 5.1-9.842 10.565 0 6.549 3.335 11.207 10.045 11.207 7.112 0 9.563-5.181 9.563-10.363 0-.722 0-1.166-.083-1.768h-13.74M37.589-89.69c-3.297 0-4.462-2.128-4.462-6.388 0-3.495 1.044-6.186 4.382-6.186 2.932 0 4.497 2.612 4.497 6.549 0 3.495-1.324 6.025-4.417 6.025zm-9.965 12.658h5.788v-10.73c.842 1.327 2.571 2.692 5.943 2.692 5.665 0 8.478-4.7 8.478-10.526 0-5.946-3.053-11.246-9.038-11.246-3.097 0-4.459.924-5.466 2.45 0-.684-.12-1.447-.24-1.969h-5.503c.038 2.247.038 4.54.038 6.788v22.54" transform="matrix(1.33333 0 0 -1.33333 0 318.452)"/></svg>