<svg xml:space="preserve" width="500" height="500" xmlns="http://www.w3.org/2000/svg"><path d="M375-136.161H0v375h375Z" style="fill:#0077d7;fill-opacity:1;fill-rule:nonzero;stroke:none;stroke-width:1.57009" transform="matrix(1.33333 0 0 -1.33333 0 318.452)"/><path style="fill:#bfddf5;fill-opacity:1;fill-rule:nonzero;stroke:none;stroke-width:1.57009" d="M311.77 138.02a20.464 20.464 0 0 0-6.84-1.168c-10.798 0-19.55 8.305-19.55 18.55 0 2.855.68 5.562 1.897 7.979H263.28a38.464 38.464 0 0 1-.836-7.98c0-22.262 19.022-40.31 42.487-40.31 2.328 0 4.613.18 6.84.523zm-6.84 35.93c10.798 0 19.55-8.304 19.55-18.549 0-3.146-.827-6.109-2.284-8.704h24.224c.65 2.804.997 5.715.997 8.704 0 17.17-11.314 31.829-27.254 37.638v18.217h-21.036V173.12c1.834.54 3.782.83 5.803.83" transform="matrix(1.33333 0 0 -1.33333 0 318.452)"/><path style="fill:#fff;fill-opacity:1;fill-rule:nonzero;stroke:none;stroke-width:.15701" d="M209.884 58.707v22.111h-4.098v5.822h4.098v2.43c0 5.768 2.858 9.542 8.898 9.542 1.24 0 2.857-.108 3.56-.323v-6.094c-.433.055-1.024.107-1.62.107-2.264 0-3.126-.807-3.126-3.828V86.64h4.852v-5.822h-4.852V58.707h-7.712m47.605 11.972c0-3.668-.593-7.12-5.5-7.12-2.804 0-4.044 1.726-4.044 3.722 0 2.696 1.725 4.153 6.417 4.153h3.127zm7.551-4.747v11.704c0 6.687-4.1 9.598-11.54 9.653-7.664 0-10.92-3.23-11.773-7.488l7.135-1.465c.323 2.049 1.078 3.398 4.313 3.398 3.614 0 4.314-1.943 4.314-3.937v-1.672h-3.99c-8.197 0-13.267-2.966-13.267-9.33 0-4.314 2.805-8.737 9.545-8.737 4.963 0 6.85 1.834 7.874 3.398 0-.7.162-2.21.378-2.75h7.388c-.162.648-.377 4.53-.377 7.226m74.61 9.815c-.054 3.236-1.348 5.987-5.122 5.987-3.668 0-5.179-2.534-5.502-5.987zm-10.786-4.745c0-3.506 1.78-6.904 5.609-6.904 3.236 0 4.153 1.296 4.908 2.966h7.712c-.972-3.397-4.044-9.006-12.782-9.006-9.221 0-13.212 6.85-13.212 14.184 0 8.79 4.476 15.047 13.482 15.047 9.546 0 12.836-6.957 12.836-13.914 0-.97 0-1.564-.109-2.373h-18.444m-8.403-3.29c-.917-4.637-4.206-9.654-12.512-9.654-8.681 0-13.157 5.987-13.157 14.4 0 8.25 5.015 14.83 13.535 14.83 9.383 0 12.026-6.795 12.134-9.922h-7.495c-.486 2.265-1.78 3.828-4.8 3.828-3.56 0-5.555-3.073-5.555-8.466 0-5.987 2.157-8.683 5.5-8.683 2.697 0 4.1 1.564 4.8 3.668h7.55m-52.31 11.863c0 2.373 0 4.962-.054 7.066h7.496c.161-.755.27-2.698.323-3.56.917 1.726 3.183 4.207 8.09 4.207 5.61 0 9.222-3.83 9.222-10.84V58.707h-7.712v16.878c0 3.183-1.024 5.447-4.477 5.447-3.29 0-5.123-1.832-5.123-6.794V58.707h-7.766v20.87m-43.626-.54c0 2.805 0 5.232-.055 7.605h7.604c.108-.649.216-3.4.216-4.908 1.24 3.18 4.207 5.5 8.952 5.555v-7.39c-5.609.163-8.952-1.346-8.952-9.005V58.707h-7.765v20.33M347.23-26.082c0-9.069 0-19.253.186-27.767h-25.92c-.369 2.592-.554 7.776-.74 11.107-5.738-9.626-14.069-13.329-26.472-13.329-19.438 0-31.842 11.848-31.842 35.544v62.573h26.473V-15.16c0-10.553 3.332-19.253 14.81-19.253 12.033 0 17.032 6.48 17.032 25.362v51.096h26.473v-68.128M227.907 4.648c-.185 11.109-4.627 20.55-17.586 20.55-12.59 0-17.772-8.702-18.882-20.55zm-37.024-16.291c0-12.032 6.109-23.696 19.252-23.696 11.109 0 14.255 4.444 16.847 10.182h26.472c-3.332-11.661-13.884-30.915-43.875-30.915-31.656 0-45.353 23.512-45.353 48.689 0 30.175 15.365 51.65 46.28 51.65 32.766 0 44.058-23.883 44.058-47.763 0-3.333 0-5.368-.369-8.147h-63.312m-34.537 92.932V-53.85h-27.583V81.29h27.583M73.678 22.975c-15.18 0-20.547-9.812-20.547-29.434 0-16.107 4.813-28.51 20.178-28.51 13.513 0 20.732 12.031 20.732 30.175 0 16.108-6.108 27.769-20.363 27.769zm-45.91 58.313h26.659V31.861c3.886 6.11 11.847 12.406 27.396 12.406 26.103 0 39.06-21.662 39.06-48.504 0-27.398-14.068-51.835-41.65-51.835-14.255 0-20.55 4.26-25.178 11.294 0-3.15-.556-6.667-1.11-9.072H27.582c.186 10.369.186 20.92.186 31.285V81.29M339.649-89.316c-.055 3.236-1.348 5.992-5.123 5.992-3.67 0-5.178-2.539-5.505-5.992zm-10.79-4.743c0-3.508 1.781-6.904 5.612-6.904 3.235 0 4.153 1.293 4.905 2.968h7.717c-.973-3.4-4.048-9.01-12.784-9.01-9.224 0-13.217 6.85-13.217 14.187 0 8.792 4.477 15.046 13.486 15.046 9.548 0 12.839-6.956 12.839-13.914 0-.97 0-1.566-.107-2.373h-18.45m-24.492 8.034c0 2.806 0 5.233-.055 7.606h7.605c.11-.646.217-3.396.217-4.905 1.242 3.18 4.21 5.5 8.953 5.552v-7.39c-5.607.163-8.953-1.346-8.953-9.008v-12.187h-7.767v20.332m-18.102 0c0 2.806 0 5.233-.055 7.606h7.606c.111-.646.216-3.396.216-4.905 1.242 3.18 4.21 5.5 8.953 5.552v-7.39c-5.607.163-8.953-1.346-8.953-9.008v-12.187h-7.767v20.332m-22.314-6.363c0-5.395 2.322-8.575 6.042-8.575 3.83 0 5.935 3.18 5.935 8.52 0 5.828-2.16 8.579-6.042 8.579-3.563 0-5.935-2.644-5.935-8.524zm19.794.055c0-8.468-5.068-14.672-13.914-14.672-8.63 0-13.702 6.204-13.702 14.51 0 8.631 5.233 14.723 14.08 14.723 8.196 0 13.536-5.825 13.536-14.561m-43.32-7.444c4.642 0 5.88 3.18 5.88 7.874 0 4.693-.807 7.927-5.719 7.927-3.34 0-5.985-2.589-5.985-8.195 0-4.8 2.427-7.606 5.824-7.606zm13.217-3.185c0-8.952-3.29-14.616-13.863-14.616-10.194 0-12.188 5.664-12.46 8.848h7.877c.54-1.942 1.94-3.239 4.907-3.239 5.016 0 5.99 3.077 5.99 8.522v1.349c-1.459-2.427-3.78-3.936-7.88-3.936-7.331 0-11.54 6.04-11.54 13.539 0 8.736 5.232 14.723 12.188 14.723 4.804 0 6.797-2.263 7.232-3.56.05.757.267 2.428.321 2.913h7.284c0-2.534-.056-5.34-.056-8.034v-16.509M216.38-78.419h7.767v-27.938h-7.767zm0 4.531v6.906h7.767v-6.906h-7.767m-16.409-10.088c-4.421 0-5.985-2.856-5.985-8.574 0-4.693 1.402-8.307 5.878-8.307 3.937 0 6.042 3.507 6.042 8.792 0 4.693-1.782 8.09-5.935 8.09zm-13.377 16.994h7.766v-14.405c1.135 1.783 3.45 3.615 7.983 3.615 7.606 0 11.38-6.31 11.38-14.131 0-7.984-4.097-15.102-12.133-15.102-4.153 0-5.99 1.242-7.337 3.292 0-.92-.162-1.944-.324-2.644h-7.387c.052 3.017.052 6.095.052 9.114v30.26M147.02-85.483c0 2.372 0 4.96-.053 7.065h7.497c.161-.757.27-2.696.323-3.558.918 1.726 3.182 4.205 8.092 4.205 5.61 0 9.223-3.826 9.223-10.841v-17.744h-7.714v16.881c0 3.185-1.024 5.45-4.476 5.45-3.29 0-5.125-1.837-5.125-6.799v-15.532h-7.767v20.873m-18.127-.54c0 2.805 0 5.232-.053 7.605h7.605c.107-.646.215-3.396.215-4.905 1.241 3.18 4.207 5.5 8.953 5.552v-7.39c-5.61.163-8.953-1.346-8.953-9.008v-12.187h-7.767v20.332m-11.516-7.605h-3.13c-4.693 0-6.419-1.454-6.419-4.153 0-1.994 1.242-3.72 4.045-3.72 4.91 0 5.504 3.451 5.504 7.12zm7.55-5.5c0-2.696.217-6.582.378-7.227h-7.39c-.215.54-.377 2.049-.377 2.75-1.024-1.565-2.912-3.398-7.875-3.398-6.742 0-9.547 4.422-9.547 8.737 0 6.365 5.07 9.33 13.268 9.33h3.993v1.673c0 1.997-.702 3.94-4.315 3.94-3.238 0-3.992-1.353-4.316-3.401h-7.335c.377 4.966 3.452 8.954 11.973 8.954 7.444-.052 11.542-2.965 11.542-9.655V-99.13m-27.54 32.686-8.63-7.982h-6.743l6.203 7.982zm-5.825-22.872c-.055 3.236-1.35 5.992-5.125 5.992-3.666 0-5.177-2.539-5.5-5.992zm-10.787-4.743c0-3.508 1.779-6.904 5.61-6.904 3.234 0 4.153 1.293 4.907 2.968h7.714c-.971-3.4-4.047-9.01-12.783-9.01-9.225 0-13.215 6.85-13.215 14.187 0 8.792 4.476 15.046 13.483 15.046 9.548 0 12.838-6.956 12.838-13.914 0-.97 0-1.566-.108-2.373H80.775M58.159-83.976c-4.424 0-5.988-2.856-5.988-8.574 0-4.693 1.402-8.307 5.879-8.307 3.939 0 6.041 3.507 6.041 8.792 0 4.693-1.78 8.09-5.932 8.09zM44.782-66.982h7.767v-14.405c1.133 1.783 3.452 3.615 7.984 3.615 7.603 0 11.38-6.31 11.38-14.131 0-7.984-4.1-15.102-12.137-15.102-4.153 0-5.985 1.242-7.335 3.292 0-.92-.162-1.944-.324-2.644H44.73c.053 3.017.053 6.095.053 9.114v30.26" transform="matrix(1.33333 0 0 -1.33333 0 318.452)"/></svg>