<svg xml:space="preserve" width="500" height="500" xmlns="http://www.w3.org/2000/svg"><path d="M375-136.16H0v375h375Z" style="fill:#0077d7;fill-opacity:1;fill-rule:nonzero;stroke:none;stroke-width:1.57009" transform="matrix(1.33333 0 0 -1.33333 0 318.452)"/><path style="fill:#bfddf5;fill-opacity:1;fill-rule:nonzero;stroke:none;stroke-width:1.57009" d="M311.77 138.02a20.464 20.464 0 0 0-6.84-1.168c-10.797 0-19.55 8.305-19.55 18.55 0 2.856.681 5.562 1.898 7.979h-23.999a38.464 38.464 0 0 1-.835-7.98c0-22.262 19.021-40.31 42.486-40.31 2.329 0 4.613.18 6.84.523zm-6.84 35.93c10.798 0 19.551-8.304 19.551-18.549 0-3.146-.827-6.109-2.284-8.704h24.223c.65 2.804.997 5.715.997 8.704 0 17.17-11.314 31.83-27.254 37.639v18.216h-21.036V173.12c1.834.54 3.783.83 5.803.83" transform="matrix(1.33333 0 0 -1.33333 0 318.452)"/><path style="fill:#fff;fill-opacity:1;fill-rule:nonzero;stroke:none;stroke-width:.15701" d="M209.885 58.706v22.112h-4.098v5.822h4.098v2.428c0 5.769 2.857 9.544 8.897 9.544 1.24 0 2.86-.109 3.56-.324v-6.093c-.432.053-1.024.106-1.619.106-2.264 0-3.126-.807-3.126-3.83V86.64h4.852v-5.822h-4.852V58.706h-7.712m47.605 11.972c0-3.668-.593-7.119-5.5-7.119-2.804 0-4.044 1.726-4.044 3.721 0 2.696 1.725 4.153 6.417 4.153h3.127zm7.55-4.747v11.702c0 6.689-4.097 9.6-11.54 9.655-7.663 0-10.92-3.23-11.772-7.488l7.135-1.465c.323 2.05 1.078 3.398 4.313 3.398 3.614 0 4.314-1.942 4.314-3.936v-1.672h-3.99c-8.197 0-13.267-2.966-13.267-9.33 0-4.315 2.804-8.738 9.545-8.738 4.963 0 6.85 1.834 7.874 3.398 0-.7.162-2.21.378-2.75h7.388c-.162.648-.377 4.53-.377 7.226m74.611 9.815c-.053 3.236-1.349 5.987-5.123 5.987-3.668 0-5.178-2.536-5.502-5.987zm-10.787-4.745c0-3.506 1.781-6.902 5.609-6.902 3.236 0 4.153 1.292 4.908 2.964h7.712c-.972-3.397-4.044-9.006-12.782-9.006-9.221 0-13.212 6.85-13.212 14.185 0 8.79 4.476 15.046 13.482 15.046 9.546 0 12.836-6.957 12.836-13.914 0-.97 0-1.564-.109-2.373h-18.444m-8.403-3.29c-.917-4.637-4.206-9.654-12.51-9.654-8.684 0-13.16 5.987-13.16 14.4 0 8.25 5.016 14.831 13.537 14.831 9.382 0 12.025-6.795 12.133-9.923h-7.495c-.486 2.264-1.78 3.828-4.8 3.828-3.56 0-5.555-3.074-5.555-8.466 0-5.987 2.157-8.683 5.5-8.683 2.697 0 4.1 1.564 4.8 3.668h7.55m-52.31 11.864c0 2.372 0 4.961-.054 7.065h7.495c.162-.755.27-2.697.324-3.56.917 1.726 3.183 4.207 8.09 4.207 5.61 0 9.222-3.83 9.222-10.84V58.704h-7.712v16.88c0 3.183-1.024 5.447-4.475 5.447-3.291 0-5.125-1.834-5.125-6.794V58.704h-7.766v20.872m-43.627-.539c0 2.803 0 5.23-.055 7.604h7.604c.109-.648.217-3.4.217-4.908 1.24 3.181 4.206 5.5 8.951 5.555v-7.389c-5.608.162-8.95-1.347-8.95-9.006V58.704h-7.767v20.333M347.233-26.084c0-9.069 0-19.253.185-27.767h-25.92c-.368 2.592-.554 7.776-.739 11.106-5.739-9.626-14.07-13.328-26.473-13.328-19.438 0-31.842 11.848-31.842 35.543v62.574h26.473v-57.205c0-10.553 3.332-19.253 14.81-19.253 12.033 0 17.032 6.48 17.032 25.362v51.096h26.474v-68.128M227.908 4.647c-.185 11.109-4.627 20.548-17.587 20.548-12.589 0-17.772-8.701-18.882-20.548zm-37.025-16.291c0-12.032 6.11-23.696 19.253-23.696 11.108 0 14.255 4.443 16.847 10.182h26.472c-3.332-11.661-13.884-30.915-43.875-30.915-31.655 0-45.354 23.512-45.354 48.687 0 30.177 15.365 51.652 46.282 51.652 32.765 0 44.057-23.883 44.057-47.763 0-3.333 0-5.368-.369-8.147h-63.313m-34.536 92.933v-135.14h-27.584v135.14h27.584M73.678 22.975c-15.18 0-20.547-9.812-20.547-29.434 0-16.109 4.813-28.51 20.178-28.51 13.513 0 20.733 12.03 20.733 30.175 0 16.108-6.11 27.769-20.364 27.769zm-45.91 58.314h26.659V31.86c3.886 6.11 11.847 12.406 27.397 12.406 26.102 0 39.06-21.662 39.06-48.504 0-27.398-14.069-51.835-41.651-51.835-14.255 0-20.55 4.26-25.178 11.293 0-3.15-.556-6.666-1.11-9.071H27.583c.184 10.367.184 20.92.184 31.283V81.29M339.65-89.317c-.055 3.234-1.347 5.99-5.122 5.99-3.669 0-5.178-2.537-5.506-5.99zm-10.79-4.745c0-3.507 1.782-6.903 5.612-6.903 3.236 0 4.154 1.291 4.906 2.967h7.716c-.974-3.401-4.046-9.008-12.782-9.008-9.226 0-13.218 6.849-13.218 14.186 0 8.79 4.477 15.045 13.485 15.045 9.547 0 12.838-6.956 12.838-13.915 0-.968 0-1.564-.107-2.372h-18.45m-35.31 8.576c0 2.37 0 4.96-.055 7.066h7.499c.162-.757.268-2.696.323-3.56.914 1.727 3.18 4.205 8.091 4.205 5.607 0 9.22-3.827 9.22-10.84v-17.746h-7.71v16.882c0 3.184-1.026 5.45-4.477 5.45-3.291 0-5.124-1.835-5.124-6.797v-15.535h-7.767v20.875M276.33-99.78c4.637 0 5.878 3.18 5.878 7.874 0 4.693-.807 7.929-5.717 7.929-3.341 0-5.987-2.59-5.987-8.198 0-4.798 2.428-7.605 5.825-7.605zm13.216-3.183c0-8.954-3.29-14.616-13.864-14.616-10.194 0-12.187 5.662-12.46 8.846h7.877c.54-1.942 1.94-3.24 4.907-3.24 5.016 0 5.99 3.08 5.99 8.525v1.347c-1.459-2.427-3.78-3.936-7.877-3.936-7.334 0-11.542 6.042-11.542 13.54 0 8.736 5.233 14.722 12.187 14.722 4.804 0 6.798-2.261 7.232-3.558.05.757.267 2.428.323 2.913h7.278c0-2.535-.05-5.34-.05-8.036v-16.507m-47.862 10.572c0-5.394 2.322-8.574 6.042-8.574 3.83 0 5.935 3.18 5.935 8.519 0 5.828-2.16 8.579-6.042 8.579-3.563 0-5.935-2.644-5.935-8.524zm19.794.054c0-8.467-5.066-14.669-13.914-14.669-8.63 0-13.7 6.202-13.7 14.51 0 8.629 5.232 14.72 14.078 14.72 8.196 0 13.536-5.823 13.536-14.56M218.16-99.78c4.641 0 5.879 3.18 5.879 7.874 0 4.693-.807 7.929-5.717 7.929-3.343 0-5.987-2.59-5.987-8.198 0-4.798 2.427-7.605 5.825-7.605zm13.217-3.183c0-8.954-3.29-14.616-13.864-14.616-10.194 0-12.188 5.662-12.46 8.846h7.877c.54-1.942 1.94-3.24 4.907-3.24 5.016 0 5.99 3.08 5.99 8.525v1.347c-1.459-2.427-3.78-3.936-7.878-3.936-7.333 0-11.541 6.042-11.541 13.54 0 8.736 5.233 14.722 12.187 14.722 4.804 0 6.798-2.261 7.232-3.558.05.757.268 2.428.323 2.913h7.282c0-2.535-.055-5.34-.055-8.036v-16.507M187.64-86.026c0 2.806 0 5.233-.052 7.606h7.605c.107-.647.214-3.398.214-4.907 1.24 3.18 4.208 5.5 8.957 5.552v-7.39c-5.611.163-8.957-1.346-8.957-9.007v-12.189h-7.767v20.335m-4.026-12.244c0-2.644 0-5.608.055-8.09h-7.55c-.11.756-.163 2.265-.22 3.236-1.668-2.803-4.1-3.882-7.713-3.882-5.663 0-9.276 3.451-9.276 10.355v18.23h7.712v-16.665c0-3.077.974-5.611 4.32-5.611 3.502 0 4.956 1.887 4.956 7.389v14.888h7.716v-19.85M136.77-92.39c0-5.394 2.316-8.574 6.036-8.574 3.835 0 5.935 3.18 5.935 8.519 0 5.828-2.16 8.579-6.041 8.579-3.559 0-5.93-2.644-5.93-8.524zm19.793.054c0-8.467-5.071-14.669-13.918-14.669-8.63 0-13.697 6.202-13.697 14.51 0 8.629 5.229 14.72 14.08 14.72 8.196 0 13.535-5.823 13.535-14.56m-42.465 8.359c-4.425 0-5.99-2.857-5.99-8.574 0-4.695 1.403-8.308 5.884-8.308 3.937 0 6.037 3.508 6.037 8.791 0 4.693-1.777 8.091-5.93 8.091zM100.72-66.986h7.772v-14.402c1.13 1.78 3.452 3.613 7.98 3.613 7.604 0 11.38-6.309 11.38-14.131 0-7.984-4.098-15.1-12.133-15.1-4.158 0-5.986 1.24-7.338 3.29 0-.919-.162-1.943-.323-2.645h-7.389c.051 3.02.051 6.097.051 9.115v30.26" transform="matrix(1.33333 0 0 -1.33333 0 318.452)"/></svg>