<svg xml:space="preserve" width="500" height="500" xmlns="http://www.w3.org/2000/svg"><path d="M375-136.161H0v375h375Z" style="fill:#0077d7;fill-opacity:1;fill-rule:nonzero;stroke:none;stroke-width:1.57009" transform="matrix(1.33333 0 0 -1.33333 0 318.452)"/><path style="fill:#bfddf5;fill-opacity:1;fill-rule:nonzero;stroke:none;stroke-width:1.57009" d="M311.77 138.02a20.464 20.464 0 0 0-6.84-1.168c-10.798 0-19.55 8.305-19.55 18.55 0 2.855.68 5.562 1.897 7.979H263.28a38.464 38.464 0 0 1-.836-7.98c0-22.262 19.022-40.31 42.487-40.31 2.328 0 4.613.18 6.84.523zm-6.84 35.93c10.798 0 19.55-8.304 19.55-18.549 0-3.146-.827-6.109-2.284-8.704h24.224c.65 2.804.997 5.715.997 8.704 0 17.17-11.314 31.829-27.254 37.638v18.217h-21.036V173.12c1.834.54 3.782.83 5.803.83" transform="matrix(1.33333 0 0 -1.33333 0 318.452)"/><path d="M139.626-83.977c-4.425 0-5.99-2.856-5.99-8.573 0-4.695 1.403-8.307 5.88-8.307 3.94 0 6.04 3.506 6.04 8.79 0 4.694-1.776 8.09-5.93 8.09zm-13.379 16.993h7.767v-14.404c1.136 1.782 3.453 3.614 7.985 3.614 7.605 0 11.38-6.308 11.38-14.13 0-7.985-4.099-15.102-12.137-15.102-4.154 0-5.986 1.242-7.334 3.29 0-.917-.161-1.941-.323-2.643h-7.389c.051 3.018.051 6.097.051 9.114v30.26M155.925-86.026c0 2.805 0 5.234-.05 7.607h7.605c.105-.647.212-3.398.212-4.906 1.242 3.179 4.21 5.5 8.953 5.551v-7.389c-5.607.162-8.953-1.347-8.953-9.007v-12.19h-7.767v20.334M191.206-89.316c-.055 3.235-1.352 5.99-5.128 5.99-3.664 0-5.176-2.539-5.5-5.99zm-10.79-4.744c0-3.508 1.781-6.904 5.612-6.904 3.234 0 4.153 1.292 4.905 2.967h7.712c-.973-3.4-4.047-9.009-12.779-9.009-9.224 0-13.217 6.849-13.217 14.188 0 8.79 4.477 15.044 13.486 15.044 9.543 0 12.834-6.955 12.834-13.914 0-.968 0-1.564-.107-2.372h-18.445M201.57-78.419h7.768v-27.94h-7.768zm0 4.531v6.904h7.768v-6.904h-7.768M211.705-100.534l13.808 16.018H212.35v6.097h21.898v-6.042l-13.54-15.801h14.51l-.915-6.097h-22.599v5.825M245.03-66.984v-14.778c1.186 1.833 3.452 3.988 7.985 3.988 5.176 0 9.33-3.129 9.33-10.68v-17.905h-7.66v16.775c0 3.615-1.292 5.556-4.533 5.556-4.314 0-5.121-3.239-5.121-7.498v-14.833h-7.768v39.375h7.768M276.944-78.419h7.766v-27.94h-7.766zm0 4.531v6.904h7.766v-6.904h-7.766M287.083-100.534l13.809 16.018h-13.163v6.097h21.899v-6.042l-13.541-15.801h14.51l-.915-6.097h-22.6v5.825M329.285-89.316c-.056 3.235-1.349 5.99-5.123 5.99-3.67 0-5.178-2.539-5.505-5.99zm-10.79-4.744c0-3.508 1.78-6.904 5.612-6.904 3.234 0 4.153 1.292 4.905 2.967h7.717c-.974-3.4-4.048-9.009-12.784-9.009-9.226 0-13.217 6.849-13.217 14.188 0 8.79 4.476 15.044 13.484 15.044 9.55 0 12.839-6.955 12.839-13.914 0-.968 0-1.564-.11-2.372h-18.446M339.65-106.36v39.376h7.765v-39.375h-7.766M73.678 22.976c-15.18 0-20.548-9.81-20.548-29.434 0-16.108 4.814-28.51 20.179-28.51 13.513 0 20.732 12.031 20.732 30.177 0 16.106-6.108 27.767-20.363 27.767zm-45.91 58.313h26.659V31.861c3.886 6.11 11.847 12.406 27.396 12.406 26.103 0 39.06-21.662 39.06-48.504 0-27.398-14.068-51.835-41.65-51.835-14.255 0-20.55 4.26-25.178 11.294 0-3.15-.556-6.667-1.11-9.072H27.582c.186 10.367.186 20.92.186 31.284V81.289M156.346 81.29V-53.85h-27.583V81.29h27.583M227.907 4.648c-.185 11.109-4.627 20.55-17.586 20.55-12.59 0-17.772-8.702-18.882-20.55zm-37.024-16.291c0-12.032 6.109-23.696 19.252-23.696 11.109 0 14.255 4.444 16.847 10.18h26.472c-3.332-11.66-13.884-30.913-43.875-30.913-31.656 0-45.353 23.512-45.353 48.689 0 30.174 15.365 51.65 46.28 51.65 32.766 0 44.058-23.883 44.058-47.763 0-3.333 0-5.368-.369-8.147h-63.312M347.231-26.081c0-9.07 0-19.255.186-27.769h-25.92c-.369 2.592-.554 7.776-.74 11.107-5.738-9.628-14.069-13.329-26.472-13.329-19.438 0-31.842 11.848-31.842 35.544v62.573h26.473V-15.16c0-10.553 3.332-19.254 14.81-19.254 12.033 0 17.032 6.481 17.032 25.363v51.096h26.473v-68.126M224.524 79.038c0 2.804 0 5.23-.055 7.604h7.604c.108-.649.216-3.4.216-4.908 1.24 3.18 4.207 5.5 8.952 5.555v-7.39c-5.609.163-8.952-1.346-8.952-9.005V58.705h-7.765v20.333M268.15 79.576c0 2.373 0 4.962-.053 7.066h7.496c.161-.755.27-2.698.323-3.56.917 1.726 3.183 4.207 8.09 4.207 5.61 0 9.222-3.83 9.222-10.84V58.705h-7.712v16.88c0 3.183-1.024 5.447-4.475 5.447-3.291 0-5.125-1.834-5.125-6.794V58.705h-7.766v20.871M320.461 67.711c-.917-4.636-4.206-9.653-12.512-9.653-8.681 0-13.157 5.987-13.157 14.4 0 8.25 5.015 14.83 13.535 14.83 9.383 0 12.026-6.795 12.134-9.922h-7.495c-.486 2.265-1.78 3.828-4.8 3.828-3.56 0-5.555-3.073-5.555-8.466 0-5.987 2.157-8.683 5.5-8.683 2.697 0 4.1 1.564 4.8 3.666h7.55M339.65 75.747c-.054 3.236-1.348 5.987-5.122 5.987-3.668 0-5.179-2.536-5.502-5.987zm-10.786-4.745c0-3.506 1.78-6.902 5.609-6.902 3.236 0 4.153 1.294 4.908 2.964h7.712c-.972-3.396-4.044-9.006-12.782-9.006-9.221 0-13.212 6.85-13.212 14.184 0 8.79 4.476 15.047 13.482 15.047 9.546 0 12.836-6.957 12.836-13.914 0-.97 0-1.564-.109-2.373h-18.444M257.49 70.677c0-3.666-.594-7.117-5.5-7.117-2.805 0-4.045 1.725-4.045 3.721 0 2.696 1.725 4.151 6.417 4.151h3.127zm7.55-4.745v11.704c0 6.687-4.1 9.598-11.54 9.653-7.664 0-10.92-3.23-11.773-7.488l7.135-1.465c.323 2.049 1.078 3.398 4.313 3.398 3.614 0 4.314-1.943 4.314-3.937v-1.672h-3.99c-8.197 0-13.267-2.966-13.267-9.33 0-4.314 2.805-8.737 9.545-8.737 4.963 0 6.85 1.834 7.874 3.398 0-.7.162-2.21.378-2.75h7.388c-.162.648-.377 4.53-.377 7.226M209.884 58.707v22.11h-4.098v5.823h4.098v2.43c0 5.768 2.858 9.542 8.898 9.542 1.24 0 2.857-.108 3.56-.323v-6.094c-.433.055-1.024.107-1.62.107-2.264 0-3.126-.807-3.126-3.83V86.64h4.852v-5.823h-4.852v-22.11h-7.712" style="fill:#fff;fill-opacity:1;fill-rule:nonzero;stroke:none;stroke-width:.15701" transform="matrix(1.33333 0 0 -1.33333 0 318.452)"/></svg>