<svg xml:space="preserve" width="500" height="500" xmlns="http://www.w3.org/2000/svg"><path d="M375-136.161H0v375h375Z" style="fill:#0077d7;fill-opacity:1;fill-rule:nonzero;stroke:none;stroke-width:1.57009" transform="matrix(1.33333 0 0 -1.33333 0 318.452)"/><path style="fill:#bfddf5;fill-opacity:1;fill-rule:nonzero;stroke:none;stroke-width:1.57009" d="M311.77 138.02a20.464 20.464 0 0 0-6.84-1.168c-10.798 0-19.55 8.305-19.55 18.55 0 2.855.68 5.562 1.897 7.979H263.28a38.464 38.464 0 0 1-.836-7.98c0-22.262 19.022-40.31 42.487-40.31 2.328 0 4.613.18 6.84.523zm-6.84 35.93c10.798 0 19.55-8.304 19.55-18.549 0-3.146-.827-6.109-2.284-8.704h24.224c.65 2.804.997 5.715.997 8.704 0 17.17-11.314 31.829-27.254 37.638v18.217h-21.036V173.12c1.834.54 3.782.83 5.803.83" transform="matrix(1.33333 0 0 -1.33333 0 318.452)"/><path style="fill:#fff;fill-opacity:1;fill-rule:nonzero;stroke:none;stroke-width:.15701" d="M209.884 58.707v22.111h-4.098v5.822h4.098v2.43c0 5.768 2.858 9.542 8.898 9.542 1.24 0 2.857-.108 3.56-.323v-6.094c-.433.054-1.024.107-1.62.107-2.264 0-3.126-.807-3.126-3.83V86.64h4.852v-5.822h-4.852V58.707h-7.712m47.605 11.972c0-3.668-.593-7.12-5.5-7.12-2.804 0-4.044 1.726-4.044 3.722 0 2.696 1.725 4.153 6.417 4.153h3.127zm7.551-4.747v11.702c0 6.689-4.1 9.6-11.54 9.655-7.664 0-10.92-3.23-11.773-7.488l7.135-1.465c.323 2.049 1.078 3.398 4.313 3.398 3.614 0 4.314-1.943 4.314-3.937v-1.672h-3.99c-8.197 0-13.267-2.966-13.267-9.33 0-4.314 2.805-8.737 9.545-8.737 4.963 0 6.85 1.834 7.874 3.398 0-.7.162-2.21.378-2.75h7.388c-.162.648-.377 4.53-.377 7.226m74.61 9.815c-.054 3.236-1.348 5.987-5.122 5.987-3.668 0-5.179-2.536-5.502-5.987zm-10.786-4.745c0-3.506 1.78-6.902 5.609-6.902 3.236 0 4.153 1.292 4.908 2.964h7.712c-.972-3.397-4.044-9.006-12.782-9.006-9.221 0-13.212 6.849-13.212 14.184 0 8.79 4.476 15.047 13.482 15.047 9.546 0 12.836-6.957 12.836-13.914 0-.97 0-1.564-.109-2.373h-18.444m-8.403-3.29c-.917-4.637-4.206-9.654-12.512-9.654-8.681 0-13.157 5.987-13.157 14.4 0 8.25 5.015 14.83 13.535 14.83 9.383 0 12.026-6.795 12.134-9.922h-7.495c-.486 2.264-1.78 3.828-4.8 3.828-3.56 0-5.555-3.075-5.555-8.466 0-5.987 2.157-8.683 5.5-8.683 2.697 0 4.1 1.564 4.8 3.668h7.55m-52.31 11.863c0 2.373 0 4.962-.054 7.066h7.496c.161-.755.27-2.698.323-3.56.917 1.726 3.183 4.207 8.09 4.207 5.61 0 9.222-3.83 9.222-10.84V58.705h-7.712v16.88c0 3.183-1.024 5.447-4.475 5.447-3.291 0-5.125-1.834-5.125-6.794V58.705h-7.766v20.871m-43.626-.538c0 2.802 0 5.23-.055 7.604h7.604c.108-.649.216-3.4.216-4.908 1.24 3.18 4.207 5.5 8.952 5.555v-7.39c-5.609.163-8.952-1.346-8.952-9.005V58.705h-7.765v20.333M347.23-26.083c0-9.069 0-19.253.186-27.767h-25.92c-.369 2.592-.554 7.776-.74 11.107-5.738-9.626-14.069-13.329-26.472-13.329-19.438 0-31.842 11.848-31.842 35.544v62.573h26.473V-15.16c0-10.553 3.332-19.253 14.81-19.253 12.033 0 17.032 6.48 17.032 25.362v51.096h26.473v-68.128M227.907 4.648c-.185 11.109-4.627 20.548-17.586 20.548-12.59 0-17.772-8.701-18.882-20.548zm-37.024-16.291c0-12.032 6.109-23.696 19.252-23.696 11.109 0 14.255 4.444 16.847 10.182h26.472c-3.332-11.661-13.884-30.915-43.875-30.915-31.656 0-45.353 23.512-45.353 48.687 0 30.177 15.365 51.652 46.28 51.652 32.766 0 44.058-23.883 44.058-47.763 0-3.333 0-5.368-.369-8.147h-63.312m-34.537 92.932V-53.85h-27.583V81.29h27.583M73.678 22.975c-15.18 0-20.548-9.812-20.548-29.434 0-16.108 4.814-28.51 20.179-28.51 13.513 0 20.732 12.031 20.732 30.175 0 16.108-6.108 27.769-20.363 27.769zm-45.91 58.313h26.659V31.861c3.886 6.11 11.847 12.406 27.396 12.406 26.103 0 39.06-21.662 39.06-48.504 0-27.398-14.068-51.835-41.65-51.835-14.255 0-20.55 4.26-25.178 11.294 0-3.15-.556-6.667-1.11-9.072H27.582c.186 10.367.186 20.92.186 31.284V81.289M342.193-94.89c-.038 2.178-.906 4.03-3.446 4.03-2.469 0-3.483-1.708-3.704-4.03zm-7.259-3.192c0-2.36 1.198-4.644 3.776-4.644 2.177 0 2.794.87 3.3 1.995h5.19c-.655-2.287-2.723-6.059-8.6-6.059-6.205 0-8.891 4.607-8.891 9.543 0 5.913 3.011 10.121 9.072 10.121 6.423 0 8.637-4.679 8.637-9.36 0-.652 0-1.053-.072-1.596h-12.412m-23.754 5.769c0 1.595 0 3.336-.036 4.752h5.045c.108-.506.179-1.813.217-2.394.615 1.162 2.14 2.83 5.442 2.83 3.773 0 6.203-2.576 6.203-7.294v-11.936h-5.188V-95c0 2.143-.689 3.666-3.011 3.666-2.214 0-3.446-1.234-3.446-4.572v-10.449h-5.226v14.042m-19.51 0c0 1.595 0 3.336-.036 4.752h5.045c.108-.506.18-1.813.217-2.394.615 1.162 2.14 2.83 5.442 2.83 3.773 0 6.203-2.576 6.203-7.294v-11.936h-5.188V-95c0 2.143-.689 3.666-3.011 3.666-2.214 0-3.446-1.234-3.446-4.572v-10.449h-5.226v14.042m-6.92-2.577c-.037 2.178-.907 4.03-3.445 4.03-2.469 0-3.484-1.708-3.704-4.03zm-7.258-3.192c0-2.36 1.198-4.644 3.775-4.644 2.176 0 2.795.87 3.3 1.995h5.191c-.655-2.287-2.723-6.059-8.6-6.059-6.206 0-8.89 4.607-8.89 9.543 0 5.913 3.01 10.121 9.071 10.121 6.422 0 8.636-4.679 8.636-9.36 0-.652 0-1.053-.071-1.596h-12.412m-15.864-4.536c3.555 0 3.99 2.974 3.99 5.66 0 3.229-.473 5.659-3.882 5.659-2.722 0-4.1-2.138-4.1-5.696 0-3.664 1.416-5.623 3.992-5.623zm8.964 22.75v-21.334c0-1.708 0-3.45.033-5.153h-4.97c-.108.58-.218 1.523-.254 1.958-.907-1.487-2.54-2.393-5.334-2.393-4.754 0-7.765 3.81-7.765 9.686 0 5.77 3.195 9.978 8.529 9.978 2.719 0 4.171-.978 4.57-1.813v9.072h5.19m-29.556-12.81c0 1.888 0 3.521-.036 5.116h5.115c.074-.434.146-2.284.146-3.3.835 2.14 2.83 3.7 6.023 3.735v-4.97c-3.773.108-6.023-.907-6.023-6.062v-8.197h-5.225v13.677m-7.747-5.115h-2.106c-3.157 0-4.317-.978-4.317-2.795 0-1.34.833-2.501 2.722-2.501 3.302 0 3.7 2.322 3.7 4.789zm5.078-3.701c0-1.813.146-4.428.256-4.86h-4.971c-.146.362-.255 1.376-.255 1.849-.689-1.052-1.96-2.285-5.297-2.285-4.536 0-6.422 2.974-6.422 5.877 0 4.28 3.41 6.277 8.924 6.277h2.687v1.123c0 1.346-.473 2.652-2.903 2.652-2.178 0-2.687-.91-2.903-2.288h-4.935c.253 3.338 2.322 6.023 8.054 6.023 5.01-.034 7.765-1.994 7.765-6.495v-7.873m-18.325 6.75v-4.536h-10.088v4.536h10.088m-17.423-.146c-.038 2.178-.91 4.03-3.448 4.03-2.467 0-3.484-1.708-3.701-4.03zm-7.257-3.192c0-2.36 1.196-4.644 3.773-4.644 2.176 0 2.794.87 3.302 1.995h5.187c-.651-2.287-2.72-6.059-8.598-6.059-6.205 0-8.89 4.607-8.89 9.543 0 5.913 3.012 10.121 9.07 10.121 6.423 0 8.636-4.679 8.636-9.36 0-.652 0-1.053-.072-1.596h-12.408m-23.756 5.769c0 1.595 0 3.336-.036 4.752h5.043c.109-.506.182-1.813.218-2.394.617 1.162 2.14 2.83 5.444 2.83 3.773 0 6.203-2.576 6.203-7.294v-11.936h-5.189V-95c0 2.143-.689 3.666-3.011 3.666-2.214 0-3.447-1.234-3.447-4.572v-10.449h-5.225v14.042m-11.582-9.616c3.12 0 3.955 2.139 3.955 5.296 0 3.157-.545 5.334-3.847 5.334-2.248 0-4.028-1.742-4.028-5.513 0-3.23 1.633-5.117 3.92-5.117zm8.89-2.142c0-6.022-2.214-9.831-9.327-9.831-6.857 0-8.199 3.809-8.38 5.95h5.296c.363-1.306 1.307-2.176 3.302-2.176 3.374 0 4.028 2.068 4.028 5.731v.908c-.98-1.635-2.54-2.65-5.298-2.65-4.935 0-7.764 4.064-7.764 9.109 0 5.876 3.52 9.904 8.2 9.904 3.229 0 4.571-1.524 4.862-2.394.036.508.182 1.632.216 1.96h4.9c0-1.706-.036-3.594-.036-5.406v-11.105m-24.8 6.278h-2.106c-3.156 0-4.318-.978-4.318-2.795 0-1.34.836-2.501 2.723-2.501 3.302 0 3.7 2.322 3.7 4.789zm5.079-3.701c0-1.813.146-4.428.254-4.86h-4.97c-.146.362-.254 1.376-.254 1.849-.69-1.052-1.96-2.285-5.298-2.285-4.536 0-6.422 2.974-6.422 5.877 0 4.28 3.41 6.277 8.925 6.277h2.686v1.123c0 1.346-.472 2.652-2.903 2.652-2.178 0-2.685-.91-2.903-2.288h-4.934c.252 3.338 2.322 6.023 8.054 6.023 5.008-.034 7.765-1.994 7.765-6.495v-7.873M122.79-91.3c-2.94 0-3.992-1.922-3.992-5.696 0-3.593.98-5.66 3.774-5.66 2.758 0 4.1 2.142 4.1 5.952 0 3.446-1.379 5.404-3.882 5.404zm-8.962-22.24v21.442c0 1.525 0 3.012-.036 4.536h5.044c.07-.506.181-1.667.181-2.36.798 1.382 2.466 2.795 5.442 2.795 4.245 0 7.475-3.555 7.475-9.36 0-6.64-3.628-10.304-8.164-10.304-2.65 0-4.028 1.014-4.753 2.104v-8.854h-5.19m-29.63 21.118c0 1.633 0 3.228-.036 4.861h4.97c.073-.472.183-1.524.218-2.25.944 1.38 2.468 2.685 5.225 2.685 2.685 0 4.172-1.413 4.826-2.865 1.126 1.525 2.72 2.865 5.805 2.865 3.266 0 5.952-2.03 5.952-6.893v-12.336h-5.08v11.682c0 1.707-.617 3.374-2.758 3.374-2.178 0-3.048-1.45-3.048-4.318v-10.738h-5.116v11.501c0 1.922-.472 3.52-2.685 3.52-2.104 0-3.121-1.306-3.121-4.534v-10.487h-5.152v13.933m-7.746-5.371h-2.105c-3.157 0-4.318-.978-4.318-2.795 0-1.34.835-2.501 2.721-2.501 3.303 0 3.702 2.322 3.702 4.789zm5.079-3.701c0-1.813.146-4.428.254-4.86h-4.971c-.144.362-.253 1.376-.253 1.849-.69-1.052-1.96-2.285-5.298-2.285-4.536 0-6.422 2.974-6.422 5.877 0 4.28 3.41 6.277 8.926 6.277h2.685v1.123c0 1.346-.472 2.652-2.903 2.652-2.178 0-2.685-.91-2.903-2.288h-4.934c.253 3.338 2.322 6.023 8.055 6.023 5.007-.034 7.764-1.994 7.764-6.495v-7.873M51.56-79.868v-9.944c.798 1.236 2.323 2.685 5.37 2.685 3.483 0 6.277-2.102 6.277-7.185v-12.044h-5.152v11.284c0 2.43-.871 3.737-3.048 3.737-2.902 0-3.447-2.179-3.447-5.043v-9.978h-5.225v26.488h5.225m-6.706-20.429c-.617-3.12-2.83-6.494-8.418-6.494-5.841 0-8.854 4.026-8.854 9.686 0 5.554 3.374 9.978 9.109 9.978 6.313 0 8.09-4.57 8.163-6.675H39.81c-.327 1.524-1.199 2.577-3.23 2.577-2.395 0-3.737-2.07-3.737-5.698 0-4.029 1.451-5.842 3.7-5.842 1.815 0 2.759 1.053 3.229 2.468h5.08" transform="matrix(1.33333 0 0 -1.33333 0 318.452)"/></svg>