<svg xml:space="preserve" width="500" height="500" xmlns="http://www.w3.org/2000/svg"><path d="M375-136.161H0v375h375Z" style="fill:#0077d7;fill-opacity:1;fill-rule:nonzero;stroke:none;stroke-width:1.57009" transform="matrix(1.33333 0 0 -1.33333 0 318.452)"/><path style="fill:#bfddf5;fill-opacity:1;fill-rule:nonzero;stroke:none;stroke-width:1.57009" d="M311.77 138.02a20.464 20.464 0 0 0-6.84-1.168c-10.797 0-19.55 8.305-19.55 18.55 0 2.855.681 5.562 1.898 7.979h-23.999a38.464 38.464 0 0 1-.835-7.98c0-22.262 19.021-40.31 42.486-40.31 2.329 0 4.613.18 6.84.523zm-6.84 35.93c10.798 0 19.551-8.304 19.551-18.549 0-3.146-.827-6.109-2.284-8.704h24.223c.65 2.804.997 5.715.997 8.704 0 17.17-11.314 31.829-27.254 37.638v18.217h-21.036V173.12c1.834.54 3.783.83 5.803.83" transform="matrix(1.33333 0 0 -1.33333 0 318.452)"/><path style="fill:#fff;fill-opacity:1;fill-rule:nonzero;stroke:none;stroke-width:.15701" d="M209.884 58.707v22.111h-4.098v5.822h4.098v2.43c0 5.768 2.857 9.542 8.898 9.542 1.24 0 2.857-.108 3.557-.323v-6.094a13.59 13.59 0 0 1-1.617.107c-2.264 0-3.126-.807-3.126-3.83V86.64h4.852v-5.822h-4.852V58.707h-7.712m47.605 11.972c0-3.668-.593-7.12-5.5-7.12-2.804 0-4.044 1.726-4.044 3.722 0 2.696 1.725 4.153 6.417 4.153h3.127zm7.55-4.747v11.702c0 6.689-4.099 9.6-11.54 9.655-7.663 0-10.92-3.23-11.772-7.488l7.134-1.465c.324 2.049 1.08 3.398 4.314 3.398 3.614 0 4.314-1.943 4.314-3.937v-1.672h-3.99c-8.197 0-13.267-2.966-13.267-9.33 0-4.314 2.804-8.737 9.545-8.737 4.963 0 6.85 1.834 7.874 3.398 0-.7.162-2.21.378-2.75h7.388c-.162.648-.377 4.53-.377 7.226m74.61 9.815c-.054 3.236-1.348 5.987-5.123 5.987-3.667 0-5.178-2.536-5.501-5.987zm-10.786-4.745c0-3.506 1.78-6.902 5.608-6.902 3.236 0 4.153 1.292 4.909 2.964h7.712c-.972-3.397-4.045-9.006-12.782-9.006-9.221 0-13.213 6.849-13.213 14.184 0 8.79 4.477 15.047 13.483 15.047 9.546 0 12.835-6.957 12.835-13.914 0-.97 0-1.564-.108-2.373h-18.444m-8.403-3.29c-.917-4.637-4.206-9.654-12.51-9.654-8.685 0-13.16 5.987-13.16 14.4 0 8.25 5.015 14.83 13.536 14.83 9.383 0 12.026-6.795 12.134-9.922h-7.496c-.485 2.264-1.78 3.828-4.8 3.828-3.559 0-5.554-3.075-5.554-8.466 0-5.987 2.157-8.683 5.5-8.683 2.697 0 4.1 1.564 4.8 3.668h7.55m-52.31 11.863c0 2.373 0 4.962-.054 7.066h7.495c.162-.755.27-2.698.324-3.56.917 1.726 3.182 4.207 8.089 4.207 5.61 0 9.223-3.83 9.223-10.84V58.705h-7.713v16.88c0 3.183-1.023 5.447-4.476 5.447-3.29 0-5.123-1.834-5.123-6.794V58.705h-7.766v20.871m-43.627-.538c0 2.802 0 5.23-.054 7.604h7.603c.109-.649.217-3.4.217-4.908 1.24 3.18 4.206 5.5 8.951 5.555v-7.39c-5.608.163-8.95-1.346-8.95-9.005V58.705h-7.767v20.333M347.231-26.083c0-9.069 0-19.253.185-27.767h-25.919c-.369 2.592-.554 7.776-.74 11.107-5.738-9.626-14.069-13.329-26.473-13.329-19.437 0-31.841 11.848-31.841 35.544v62.573h26.473V-15.16c0-10.553 3.332-19.253 14.81-19.253 12.033 0 17.032 6.48 17.032 25.362v51.096h26.473v-68.128M227.907 4.648c-.185 11.109-4.627 20.548-17.587 20.548-12.589 0-17.772-8.701-18.882-20.548zm-37.024-16.291c0-12.032 6.109-23.696 19.252-23.696 11.108 0 14.255 4.444 16.847 10.182h26.472c-3.332-11.661-13.884-30.915-43.875-30.915-31.654 0-45.354 23.512-45.354 48.687 0 30.177 15.365 51.652 46.28 51.652 32.767 0 44.059-23.883 44.059-47.763 0-3.333 0-5.368-.369-8.147h-63.312m-34.537 92.932V-53.85h-27.583V81.29h27.583M73.678 22.975c-15.18 0-20.548-9.812-20.548-29.434 0-16.108 4.813-28.51 20.178-28.51 13.514 0 20.733 12.031 20.733 30.175 0 16.108-6.109 27.769-20.363 27.769zm-45.91 58.313h26.658V31.861c3.886 6.11 11.848 12.406 27.397 12.406 26.102 0 39.061-21.662 39.061-48.504 0-27.398-14.07-51.835-41.651-51.835-14.255 0-20.55 4.26-25.178 11.294 0-3.15-.556-6.667-1.11-9.072H27.581c.186 10.367.186 20.92.186 31.284V81.289M341.44-89.314c-.055 3.236-1.35 5.99-5.124 5.99-3.669 0-5.178-2.538-5.504-5.99zm-10.79-4.745c0-3.506 1.78-6.904 5.611-6.904 3.235 0 4.153 1.293 4.905 2.968h7.717c-.973-3.4-4.047-9.008-12.783-9.008-9.226 0-13.217 6.85-13.217 14.186 0 8.791 4.476 15.045 13.484 15.045 9.549 0 12.838-6.954 12.838-13.914 0-.97 0-1.564-.105-2.373h-18.45m-25.516-3.884c.59-2.266 2.428-3.503 5.284-3.503 2.862 0 3.886 1.024 3.886 2.749 0 1.777-1.186 2.479-5.179 3.453-9.114 2.26-10.571 5.067-10.571 9.004 0 4.103 2.856 8.468 11.273 8.468 8.47 0 11.38-4.638 11.597-8.413h-7.337c-.269 1.024-.969 2.967-4.583 2.967-2.537 0-3.401-1.135-3.401-2.372 0-1.404.864-2.049 5.395-3.129 9.33-2.159 10.68-5.34 10.68-9.44 0-4.639-3.56-8.844-12.027-8.844-8.524 0-11.975 4.098-12.622 9.06h7.605m-9.838-.323c0-2.644 0-5.607.057-8.091h-7.551c-.107.756-.162 2.265-.217 3.236-1.67-2.803-4.098-3.882-7.712-3.882-5.662 0-9.276 3.451-9.276 10.355v18.23h7.712v-16.665c0-3.077.969-5.611 4.315-5.611 3.507 0 4.961 1.887 4.961 7.389v14.887h7.711v-19.848m-34.884 8.952c-.055 3.236-1.347 5.99-5.124 5.99-3.667 0-5.178-2.538-5.504-5.99zm-10.79-4.745c0-3.506 1.782-6.904 5.611-6.904 3.236 0 4.153 1.293 4.907 2.968h7.715c-.973-3.4-4.047-9.008-12.783-9.008-9.225 0-13.217 6.85-13.217 14.186 0 8.791 4.476 15.045 13.485 15.045 9.548 0 12.839-6.954 12.839-13.914 0-.97 0-1.564-.107-2.373h-18.45m-24.49 8.036c0 2.805 0 5.233-.057 7.605h7.606c.111-.647.216-3.397.216-4.906 1.242 3.18 4.21 5.501 8.955 5.552v-7.39c-5.609.163-8.955-1.346-8.955-9.007v-12.188h-7.765v20.334m-2.148-11.325c-.919-4.638-4.208-9.655-12.516-9.655-8.68 0-13.157 5.986-13.157 14.398 0 8.252 5.017 14.833 13.536 14.833 9.386 0 12.032-6.794 12.137-9.922h-7.5c-.484 2.266-1.776 3.83-4.799 3.83-3.558 0-5.556-3.073-5.556-8.468 0-5.99 2.16-8.685 5.506-8.685 2.694 0 4.098 1.565 4.8 3.669h7.549" transform="matrix(1.33333 0 0 -1.33333 0 318.452)"/></svg>