<svg xml:space="preserve" width="500" height="500" xmlns="http://www.w3.org/2000/svg"><path d="M375-136.16H0v375h375Z" style="fill:#0077d7;fill-opacity:1;fill-rule:nonzero;stroke:none;stroke-width:1.57009" transform="matrix(1.33333 0 0 -1.33333 0 318.452)"/><path style="fill:#bfddf5;fill-opacity:1;fill-rule:nonzero;stroke:none;stroke-width:1.57009" d="M311.77 138.02a20.464 20.464 0 0 0-6.84-1.168c-10.797 0-19.55 8.305-19.55 18.55 0 2.856.681 5.562 1.898 7.979h-23.999a38.464 38.464 0 0 1-.835-7.98c0-22.262 19.021-40.31 42.486-40.31 2.329 0 4.613.18 6.84.523zm-6.84 35.93c10.798 0 19.551-8.304 19.551-18.549 0-3.146-.827-6.109-2.284-8.704h24.223c.65 2.804.997 5.715.997 8.704 0 17.17-11.314 31.83-27.254 37.639v18.216h-21.036V173.12c1.834.54 3.783.83 5.803.83" transform="matrix(1.33333 0 0 -1.33333 0 318.452)"/><path style="fill:#fff;fill-opacity:1;fill-rule:nonzero;stroke:none;stroke-width:.15701" d="M209.885 58.706v22.112h-4.098v5.823h4.098v2.427c0 5.77 2.857 9.545 8.897 9.545 1.24 0 2.86-.108 3.56-.325v-6.093c-.432.054-1.024.108-1.619.108-2.264 0-3.126-.809-3.126-3.83v-1.832h4.852v-5.823h-4.852V58.706h-7.712m47.605 11.972c0-3.668-.593-7.119-5.5-7.119-2.804 0-4.044 1.727-4.044 3.721 0 2.696 1.725 4.153 6.417 4.153h3.127zm7.55-4.747v11.704c0 6.687-4.097 9.598-11.54 9.653-7.663 0-10.92-3.228-11.772-7.488l7.135-1.465c.323 2.05 1.078 3.398 4.313 3.398 3.614 0 4.314-1.94 4.314-3.936v-1.672h-3.99c-8.197 0-13.267-2.965-13.267-9.33 0-4.315 2.804-8.736 9.545-8.736 4.963 0 6.85 1.832 7.874 3.396 0-.7.162-2.21.378-2.75h7.388c-.162.65-.377 4.53-.377 7.226m74.611 9.817c-.053 3.234-1.349 5.985-5.123 5.985-3.668 0-5.178-2.534-5.502-5.985zM328.865 71c0-3.504 1.781-6.902 5.609-6.902 3.236 0 4.153 1.294 4.908 2.966h7.712c-.972-3.398-4.044-9.006-12.782-9.006-9.221 0-13.212 6.849-13.212 14.184 0 8.79 4.476 15.045 13.482 15.045 9.546 0 12.836-6.957 12.836-13.914 0-.97 0-1.564-.109-2.373h-18.444m-8.403-3.29c-.917-4.637-4.206-9.652-12.51-9.652-8.684 0-13.16 5.987-13.16 14.398 0 8.252 5.016 14.831 13.537 14.831 9.382 0 12.025-6.795 12.133-9.923h-7.495c-.486 2.266-1.78 3.83-4.8 3.83-3.56 0-5.555-3.075-5.555-8.468 0-5.985 2.157-8.681 5.5-8.681 2.697 0 4.1 1.564 4.8 3.666h7.55m-52.31 11.864c0 2.374 0 4.961-.054 7.065h7.495c.162-.755.27-2.696.324-3.56.917 1.726 3.183 4.207 8.09 4.207 5.61 0 9.222-3.83 9.222-10.84V58.706h-7.712v16.878c0 3.183-1.024 5.449-4.475 5.449-3.291 0-5.125-1.834-5.125-6.796V58.706h-7.766v20.87m-43.627-.539c0 2.804 0 5.232-.055 7.604h7.604c.109-.647.217-3.398.217-4.908 1.24 3.183 4.206 5.5 8.951 5.555v-7.389c-5.608.163-8.95-1.347-8.95-9.006V58.706h-7.767v20.331m122.709-105.12c0-9.069 0-19.252.185-27.767h-25.92c-.368 2.59-.554 7.775-.739 11.105-5.739-9.626-14.07-13.326-26.473-13.326-19.438 0-31.842 11.847-31.842 35.543v62.572h26.473V-15.16c0-10.553 3.332-19.255 14.81-19.255 12.033 0 17.032 6.48 17.032 25.362v51.096h26.474v-68.127M227.908 4.647c-.185 11.11-4.627 20.55-17.587 20.55-12.589 0-17.772-8.702-18.882-20.55zm-37.025-16.29c0-12.031 6.11-23.696 19.253-23.696 11.108 0 14.255 4.442 16.847 10.18h26.472c-3.332-11.659-13.884-30.912-43.875-30.912-31.655 0-45.354 23.512-45.354 48.687 0 30.175 15.365 51.65 46.282 51.65 32.765 0 44.057-23.883 44.057-47.763 0-3.333 0-5.368-.369-8.146h-63.313M156.347 81.29v-135.14h-27.584V81.29h27.584M73.678 22.977c-15.18 0-20.547-9.812-20.547-29.435 0-16.108 4.813-28.512 20.178-28.512 13.513 0 20.733 12.032 20.733 30.178 0 16.106-6.11 27.769-20.364 27.769zm-45.91 58.312h26.659V31.86c3.886 6.11 11.847 12.406 27.397 12.406 26.102 0 39.06-21.662 39.06-48.504 0-27.397-14.069-51.833-41.651-51.833-14.255 0-20.55 4.257-25.178 11.291 0-3.15-.556-6.666-1.11-9.07H27.583c.184 10.366.184 20.918.184 31.284V81.29M340.166-90.452c-.052 3.02-1.258 5.592-4.783 5.592-3.424 0-4.833-2.369-5.139-5.592zm-10.073-4.43c0-3.273 1.663-6.443 5.24-6.443 3.02 0 3.876 1.205 4.578 2.77h7.204c-.91-3.175-3.778-8.41-11.933-8.41-8.612 0-12.34 6.393-12.34 13.242 0 8.209 4.18 14.047 12.59 14.047 8.913 0 11.984-6.493 11.984-12.99 0-.905 0-1.46-.099-2.215h-17.224M304.33-69.604V-83.4c1.106 1.71 3.221 3.723 7.453 3.723 4.834 0 8.71-2.923 8.71-9.97v-16.715h-7.151v15.659c0 3.374-1.206 5.188-4.23 5.188-4.029 0-4.782-3.026-4.782-7.001v-13.846h-7.251v36.757h7.25m-9.305-28.349c-.858-4.33-3.93-9.012-11.68-9.012-8.108 0-12.287 5.586-12.287 13.442 0 7.702 4.683 13.847 12.637 13.847 8.76 0 11.23-6.342 11.33-9.264h-7.002c-.452 2.117-1.66 3.576-4.48 3.576-3.321 0-5.187-2.87-5.187-7.907 0-5.59 2.016-8.108 5.14-8.108 2.516 0 3.826 1.462 4.48 3.426h7.049m-32.241 7.5c-.052 3.022-1.26 5.593-4.782 5.593-3.425 0-4.835-2.369-5.14-5.592zM256.135-69.1l5.739-7.454h-6.342l-8.004 7.454zm-3.424-25.781c0-3.274 1.663-6.444 5.238-6.444 3.019 0 3.878 1.205 4.58 2.77h7.202c-.908-3.175-3.778-8.41-11.933-8.41-8.612 0-12.338 6.393-12.338 13.242 0 8.209 4.178 14.047 12.588 14.047 8.913 0 11.986-6.493 11.986-12.99 0-.905 0-1.46-.104-2.215h-17.22m-22.009-6.295c4.932 0 5.535 4.128 5.535 7.855 0 4.48-.655 7.854-5.384 7.854-3.78 0-5.692-2.968-5.692-7.906 0-5.084 1.964-7.803 5.541-7.803zm12.437 31.572V-99.21c0-2.37 0-4.788.047-7.15h-6.897c-.151.803-.302 2.113-.354 2.717-1.257-2.063-3.523-3.322-7.401-3.322-6.595 0-10.774 5.286-10.774 13.442 0 8.009 4.432 13.847 11.834 13.847 3.774 0 5.79-1.359 6.341-2.518v12.59h7.204m-41.019-17.777c0 2.619 0 4.886-.049 7.102h7.1c.1-.605.2-3.172.2-4.58 1.158 2.968 3.928 5.133 8.36 5.183v-6.898c-5.237.15-8.36-1.26-8.36-8.41v-11.377h-7.251v18.98m-10.747-7.099h-2.92c-4.383 0-5.994-1.356-5.994-3.878 0-1.86 1.159-3.473 3.775-3.473 4.583 0 5.139 3.224 5.139 6.65zm7.048-5.135c0-2.516.198-6.144.348-6.746h-6.895c-.2.503-.35 1.911-.35 2.566-.962-1.459-2.723-3.17-7.355-3.17-6.293 0-8.909 4.128-8.909 8.155 0 5.942 4.731 8.71 12.382 8.71h3.73v1.56c0 1.867-.657 3.68-4.031 3.68-3.02 0-3.723-1.262-4.025-3.176h-6.85c.35 4.637 3.224 8.36 11.176 8.36 6.954-.05 10.779-2.767 10.779-9.014v-10.925m-40.923 9.163c-.052 3.02-1.263 5.592-4.787 5.592-3.421 0-4.834-2.369-5.135-5.592zm-10.073-4.43c0-3.273 1.662-6.443 5.238-6.443 3.02 0 3.878 1.205 4.58 2.77h7.202c-.909-3.175-3.777-8.41-11.933-8.41-8.611 0-12.334 6.393-12.334 13.242 0 8.209 4.175 14.047 12.584 14.047 8.914 0 11.985-6.493 11.985-12.99 0-.905 0-1.46-.099-2.215h-17.223m-47.032 7.855c0 2.264 0 4.48-.052 6.747h6.898c.103-.655.254-2.117.302-3.12 1.309 1.912 3.429 3.723 7.254 3.723 3.723 0 5.786-1.962 6.695-3.978 1.56 2.115 3.774 3.978 8.056 3.978 4.532 0 8.259-2.82 8.259-9.566v-17.119h-7.048v16.212c0 2.369-.857 4.682-3.826 4.682-3.025 0-4.23-2.013-4.23-5.989v-14.905h-7.105v15.962c0 2.666-.65 4.885-3.722 4.885-2.921 0-4.333-1.814-4.333-6.295v-14.552h-7.148v19.335m-20.83-6.295c0-5.037 2.165-8.004 5.638-8.004 3.576 0 5.536 2.967 5.536 7.952 0 5.44-2.011 8.01-5.635 8.01-3.326 0-5.54-2.47-5.54-7.958zm8.659 23.665 5.841-7.5h-6.445l-2.567 3.725-2.37-3.726h-6.492l5.841 7.501zm9.818-23.615c0-7.905-4.731-13.694-12.99-13.694-8.056 0-12.79 5.79-12.79 13.545 0 8.056 4.885 13.744 13.143 13.744 7.652 0 12.637-5.438 12.637-13.595M56.67-87.38c0 2.619 0 4.886-.048 7.102h7.1c.1-.605.203-3.172.203-4.58 1.159 2.968 3.925 5.133 8.357 5.183v-6.898c-5.238.15-8.357-1.26-8.357-8.41v-11.377H56.67v18.98m-16.144-13.795c4.932 0 5.54 4.128 5.54 7.855 0 4.48-.659 7.854-5.39 7.854-3.778 0-5.69-2.968-5.69-7.906 0-5.084 1.964-7.803 5.54-7.803zm12.438 31.572V-99.21c0-2.37 0-4.788.047-7.15h-6.897c-.151.803-.302 2.113-.354 2.717-1.258-2.063-3.524-3.322-7.401-3.322-6.596 0-10.774 5.286-10.774 13.442 0 8.009 4.432 13.847 11.83 13.847 3.777 0 5.794-1.359 6.345-2.518v12.59h7.204" transform="matrix(1.33333 0 0 -1.33333 0 318.452)"/></svg>