<?xml version="1.0" encoding="UTF-8" standalone="no"?>
<!-- Created with Inkscape (http://www.inkscape.org/) -->

<svg
   version="1.1"
   id="svg2"
   xml:space="preserve"
   width="499.99997"
   height="499.99997"
   viewBox="0 0 499.99997 499.99997"
   sodipodi:docname="france-bleu-elsass.svg"
   inkscape:version="1.1.1 (1:1.1+202109281954+c3084ef5ed)"
   inkscape:export-filename="/home/gub/OneDrive/Logo Radio France 2021/logos Radio France + chaines 2021/France Bleu/locales/france-bleu-elsass.png"
   inkscape:export-xdpi="192"
   inkscape:export-ydpi="192"
   xmlns:inkscape="http://www.inkscape.org/namespaces/inkscape"
   xmlns:sodipodi="http://sodipodi.sourceforge.net/DTD/sodipodi-0.dtd"
   xmlns="http://www.w3.org/2000/svg"
   xmlns:svg="http://www.w3.org/2000/svg"><defs
     id="defs6" /><sodipodi:namedview
     id="namedview4"
     pagecolor="#ffffff"
     bordercolor="#666666"
     borderopacity="1.0"
     inkscape:pageshadow="2"
     inkscape:pageopacity="0.0"
     inkscape:pagecheckerboard="0"
     showgrid="false"
     inkscape:snap-page="true"
     inkscape:zoom="1.4115098"
     inkscape:cx="103.43534"
     inkscape:cy="221.39414"
     inkscape:window-width="2560"
     inkscape:window-height="1376"
     inkscape:window-x="0"
     inkscape:window-y="27"
     inkscape:window-maximized="1"
     inkscape:current-layer="g8" /><g
     id="g8"
     inkscape:groupmode="layer"
     inkscape:label="ink_ext_XXXXXX"
     transform="matrix(1.3333333,0,0,-1.3333333,0,318.45064)"><path
       d="M 374.99999,-136.16203 H -2.3513184e-5 V 238.83799 H 374.99999 Z"
       style="fill:#0077d7;fill-opacity:1;fill-rule:nonzero;stroke:none;stroke-width:1.57009"
       id="path10" /><path
       id="path46-3"
       style="fill:#bfddf5;fill-opacity:1;fill-rule:nonzero;stroke:none;stroke-width:1.57009"
       d="m 311.76922,138.01945 c -2.12904,-0.75364 -4.43236,-1.16815 -6.83931,-1.16815 -10.7975,0 -19.55075,8.3042 -19.55075,18.54903 0,2.85599 0.68142,5.56283 1.89824,7.97919 h -23.99881 c -0.54639,-2.57965 -0.83528,-5.24723 -0.83528,-7.97919 0,-22.26229 19.02162,-40.31046 42.4866,-40.31046 2.32844,0 4.61292,0.18056 6.83931,0.52284 z m -6.83915,35.92975 c 10.7975,0 19.55074,-8.3042 19.55074,-18.54903 0,-3.14645 -0.82743,-6.10921 -2.28448,-8.70457 h 24.22333 c 0.65002,2.80418 0.99701,5.71512 0.99701,8.70457 0,17.16892 -11.31406,31.82884 -27.2536,37.63817 v 18.21617 h -21.03605 v -38.13588 c 1.83386,0.54011 3.78234,0.83057 5.80305,0.83057" /><path
       id="path48"
       style="fill:#ffffff;fill-opacity:1;fill-rule:nonzero;stroke:none;stroke-width:0.15701"
       d="m 330.4672,-98.022665 c 0.59507,-2.273505 2.4368,-3.520485 5.30537,-3.520485 2.87172,0 3.90013,1.02858 3.90013,2.761812 0,1.787247 -1.1917,2.491909 -5.1986,3.465215 -9.15056,2.275549 -10.61232,5.090584 -10.61232,9.044101 0,4.11351 2.87014,8.500689 11.31729,8.500689 8.50053,0 11.42406,-4.65708 11.64074,-8.447306 h -7.36378 c -0.27163,1.028574 -0.97503,2.977071 -4.60197,2.977071 -2.5467,0 -3.41183,-1.135341 -3.41183,-2.382159 0,-1.408224 0.86513,-2.058247 5.41371,-3.140204 9.36723,-2.165013 10.72223,-5.360485 10.72223,-9.475251 0,-4.655668 -3.57355,-8.880808 -12.07566,-8.880808 -8.55391,0 -12.01913,4.11539 -12.66915,9.097325 h 7.63384 m -25.22526,0 c 0.59507,-2.273505 2.43523,-3.520485 5.30537,-3.520485 2.87015,0 3.89857,1.02858 3.89857,2.761812 0,1.787247 -1.19014,2.491909 -5.19704,3.465215 -9.15055,2.275549 -10.61232,5.090584 -10.61232,9.044101 0,4.11351 2.86858,8.500689 11.31573,8.500689 8.50053,0 11.42563,-4.65708 11.64073,-8.447306 h -7.36378 c -0.27005,1.028574 -0.97346,2.977071 -4.60197,2.977071 -2.54513,0 -3.41183,-1.135341 -3.41183,-2.382159 0,-1.408224 0.8667,-2.058247 5.41528,-3.140204 9.36723,-2.165013 10.72066,-5.360485 10.72066,-9.475251 0,-4.655668 -3.57355,-8.880808 -12.07408,-8.880808 -8.55549,0 -12.0207,4.11539 -12.67073,9.097325 h 7.63541 m -17.10469,4.331911 h -3.1402 c -4.71031,0 -6.4437,-1.463335 -6.4437,-4.168777 0,-2.004863 1.24509,-3.736999 4.06028,-3.736999 4.92698,0 5.52362,3.465371 5.52362,7.147731 z m 7.58045,-5.523618 c 0,-2.707168 0.21511,-6.605418 0.3784,-7.255598 h -7.41873 c -0.21511,0.54169 -0.3784,2.0584 -0.3784,2.76181 -1.02842,-1.5701 -2.92353,-3.41183 -7.90546,-3.41183 -6.76714,0 -9.5839,4.4404 -9.5839,8.772314 0,6.388902 5.09027,9.367228 13.32074,9.367228 h 4.0069 v 1.678596 c 0,2.003136 -0.70498,3.951632 -4.33191,3.951632 -3.24854,0 -4.0069,-1.3517 -4.33191,-3.409947 h -7.36378 c 0.37996,4.980049 3.46521,8.988834 12.0207,8.988834 7.47212,-0.05652 11.58735,-2.980211 11.58735,-9.692396 v -11.750643 m -42.98625,1.191707 c 0.59664,-2.273505 2.4368,-3.520485 5.30695,-3.520485 2.87014,0 3.89856,1.02858 3.89856,2.761812 0,1.787247 -1.19171,2.491909 -5.19704,3.465215 -9.15212,2.275549 -10.61389,5.090584 -10.61389,9.044101 0,4.11351 2.87015,8.500689 11.3173,8.500689 8.50053,0 11.42406,-4.65708 11.64073,-8.447306 h -7.36377 c -0.27006,1.028574 -0.97504,2.977071 -4.60197,2.977071 -2.54514,0 -3.41183,-1.135341 -3.41183,-2.382159 0,-1.408224 0.86669,-2.058247 5.41528,-3.140204 9.36565,-2.165013 10.72065,-5.360485 10.72065,-9.475251 0,-4.655668 -3.57355,-8.880808 -12.07565,-8.880808 -8.55392,0 -12.01913,4.11539 -12.66915,9.097325 h 7.63383 m -17.48465,-8.447305 v 39.526216 h 7.79555 v -39.526216 h -7.79555 m -10.33598,17.111128 c -0.055,3.248697 -1.35343,6.008622 -5.14366,6.008622 -3.68189,0 -5.1986,-2.543408 -5.52362,-6.008622 z m -10.829,-4.765574 c 0,-3.519854 1.78678,-6.931684 5.63039,-6.931684 3.24854,0 4.16862,1.301456 4.92698,2.978325 h 7.74374 c -0.97503,-3.410105 -4.06185,-9.042215 -12.83244,-9.042215 -9.25889,0 -13.26579,6.8772 -13.26579,14.241293 0,8.825072 4.49363,15.107364 13.53585,15.107364 9.5839,0 12.88582,-6.986954 12.88582,-13.970924 0,-0.97519 0,-1.570102 -0.10676,-2.382159 h -18.51779 m -4.19845,152.829323 v 22.111745 h -4.09639 v 5.821938 h 4.09639 v 2.428947 c 0,5.770125 2.85916,9.54308 8.89777,9.54308 1.24038,0 2.85915,-0.106767 3.55942,-0.323441 V 92.19518 c -0.43021,0.05338 -1.02214,0.106767 -1.6172,0.106767 -2.26409,0 -3.12765,-0.808602 -3.12765,-3.829478 V 86.63859 h 4.85319 v -5.821938 h -4.85319 V 58.704907 h -7.71234 m 47.60706,11.972027 c 0,-3.667758 -0.5935,-7.118842 -5.50164,-7.118842 -2.8042,0 -4.04458,1.727112 -4.04458,3.721141 0,2.695865 1.72554,4.15292 6.41701,4.15292 h 3.12921 z m 7.55062,-4.746418 v 11.703539 c 0,6.687064 -4.09953,9.598033 -11.54182,9.651417 -7.66367,0 -10.91849,-3.22656 -11.77105,-7.486246 l 7.13297,-1.464905 c 0.32344,2.050553 1.07866,3.3977 4.31464,3.3977 3.61281,0 4.31464,-1.940646 4.31464,-3.936245 v -1.672159 h -3.9912 c -8.1975,0 -13.26579,-2.964352 -13.26579,-9.329545 0,-4.31464 2.8042,-8.736047 9.54465,-8.736047 4.96152,0 6.84879,1.832309 7.87406,3.39613 0,-0.700265 0.16172,-2.210703 0.37683,-2.749248 h 7.3889 c -0.16172,0.648452 -0.37683,4.529744 -0.37683,7.225609 m 74.60967,9.816277 c -0.0534,3.23441 -1.34714,5.985228 -5.12324,5.985228 -3.66619,0 -5.17663,-2.534144 -5.50007,-5.985228 z m -10.78503,-4.746418 c 0,-3.504468 1.77893,-6.902168 5.60841,-6.902168 3.23598,0 4.15135,1.293764 4.90657,2.965922 h 7.71234 c -0.97033,-3.3977 -4.04459,-9.006104 -12.78063,-9.006104 -9.22278,0 -13.21241,6.848784 -13.21241,14.1843 0,8.789431 4.47479,15.043147 13.48246,15.043147 9.54465,0 12.83402,-6.955552 12.83402,-13.912673 0,-0.970323 0,-1.563822 -0.10677,-2.372424 h -18.44399 m -8.40318,-3.289364 c -0.91694,-4.638081 -4.20787,-9.652986 -12.51214,-9.652986 -8.68267,0 -13.15903,5.986798 -13.15903,14.397834 0,8.252456 5.01648,14.829613 13.53742,14.829613 9.38293,0 12.02541,-6.793831 12.13375,-9.921474 h -7.49724 c -0.48516,2.265657 -1.77892,3.829478 -4.7998,3.829478 -3.55942,0 -5.55502,-3.074259 -5.55502,-8.467559 0,-5.985229 2.15732,-8.681094 5.50164,-8.681094 2.69743,0 4.09796,1.563822 4.7998,3.666188 h 7.55062 m -52.31109,11.86369 c 0,2.373994 0,4.963092 -0.0549,7.063889 h 7.49724 c 0.16172,-0.753649 0.26848,-2.694295 0.32344,-3.557851 0.91694,1.727112 3.18102,4.204733 8.08916,4.204733 5.60841,0 9.22121,-3.827909 9.22121,-10.838414 V 58.704907 h -7.71077 v 16.878595 c 0,3.182597 -1.02528,5.448254 -4.47636,5.448254 -3.28936,0 -5.12324,-1.833879 -5.12324,-6.795401 V 58.704907 h -7.76573 v 20.869794 m -43.6269,-0.538545 c 0,2.804202 0,5.23158 -0.055,7.602434 h 7.604 c 0.10834,-0.645312 0.21511,-3.396131 0.21511,-4.906569 1.24038,3.182597 4.20787,5.500067 8.95272,5.553451 v -7.38733 c -5.60841,0.163291 -8.95272,-1.347147 -8.95272,-9.006104 V 58.704907 h -7.76416 V 79.036156 M 347.23118,-26.083736 c 0,-9.069222 0,-19.252746 0.18527,-27.767566 h -25.91767 c -0.37055,2.590668 -0.55582,7.775773 -0.73952,11.105488 -5.7403,-9.626138 -14.06969,-13.326868 -26.47349,-13.326868 -19.43786,0 -31.84167,11.848146 -31.84167,35.54381 v 62.571858 h 26.47349 v -57.203523 c 0,-10.552812 3.33176,-19.254003 14.8092,-19.254003 12.03169,0 17.03247,6.479811 17.03247,25.3615424 V 42.042986 h 26.47192 V -26.083736 M 227.90814,4.6461415 c -0.18527,11.1101985 -4.62866,20.5496505 -17.58671,20.5496505 -12.58908,0 -17.77198,-8.701505 -18.88205,-20.5496505 z M 190.882,-11.643666 c 0,-12.031534 6.10926,-23.695664 19.25416,-23.695664 11.10847,0 14.25495,4.441662 16.84562,10.180384 h 26.47192 c -3.33176,-11.659734 -13.88284,-30.913736 -43.87493,-30.913736 -31.65482,0 -45.35239,23.512276 -45.35239,48.6872896 0,30.1757884 15.36502,51.6500724 46.28032,51.6500724 32.76646,0 44.05863,-23.882663 44.05863,-47.7623431 0,-3.3333263 0,-5.3683354 -0.37054,-8.1460029 H 190.882 M 156.34714,81.287683 V -53.851302 H 128.76311 V 81.287683 h 27.58403 M 73.67766,22.975668 c -15.179745,0 -20.548081,-9.811724 -20.548081,-29.4350143 0,-16.1076757 4.813305,-28.5114807 20.178793,-28.5114807 13.513396,0 20.732724,12.032162 20.732724,30.1778299 0,16.1059481 -6.109266,27.7686651 -20.363436,27.7686651 z M 27.767566,81.287683 H 54.426169 V 31.859305 c 3.886002,6.109266 11.848146,12.405375 27.397022,12.405375 26.102319,0 39.060529,-21.661126 39.060529,-48.5037452 0,-27.3965508 -14.0689,-51.8336168 -41.651197,-51.8336168 -14.254798,0 -20.549336,4.258273 -25.177526,11.292487 0,-3.150096 -0.555659,-6.66681 -1.11069,-9.071107 H 27.581666 c 0.1859,10.366441 0.1859,20.918625 0.1859,31.28428 V 81.287683" /></g></svg>
