<svg xml:space="preserve" width="500" height="500" xmlns="http://www.w3.org/2000/svg"><path d="M375-136.16H0v375h375Z" style="fill:#0077d7;fill-opacity:1;fill-rule:nonzero;stroke:none;stroke-width:1.57009" transform="matrix(1.33333 0 0 -1.33333 0 318.452)"/><path style="fill:#bfddf5;fill-opacity:1;fill-rule:nonzero;stroke:none;stroke-width:1.57009" d="M311.77 138.02a20.464 20.464 0 0 0-6.84-1.168c-10.797 0-19.55 8.305-19.55 18.55 0 2.856.68 5.562 1.898 7.979h-23.999a38.464 38.464 0 0 1-.835-7.98c0-22.262 19.021-40.31 42.486-40.31 2.329 0 4.613.18 6.84.523zm-6.84 35.93c10.798 0 19.551-8.304 19.551-18.549 0-3.146-.827-6.109-2.284-8.704h24.223c.65 2.804.997 5.715.997 8.704 0 17.17-11.314 31.83-27.254 37.639v18.216h-21.036V173.12c1.834.54 3.783.83 5.803.83" transform="matrix(1.33333 0 0 -1.33333 0 318.452)"/><path style="fill:#fff;fill-opacity:1;fill-rule:nonzero;stroke:none;stroke-width:.15701" d="M209.885 58.706v22.11h-4.098v5.824h4.098v2.428c0 5.769 2.857 9.544 8.897 9.544 1.24 0 2.858-.109 3.558-.324v-6.093c-.43.054-1.022.106-1.617.106-2.264 0-3.126-.807-3.126-3.83V86.64h4.852v-5.824h-4.852v-22.11h-7.712m47.605 11.97c0-3.666-.593-7.117-5.5-7.117-2.804 0-4.044 1.726-4.044 3.721 0 2.696 1.725 4.151 6.417 4.151h3.127zm7.55-4.745v11.704c0 6.687-4.099 9.598-11.54 9.653-7.663 0-10.92-3.23-11.772-7.488l7.135-1.465c.323 2.05 1.078 3.398 4.313 3.398 3.614 0 4.314-1.942 4.314-3.936v-1.672h-3.99c-8.197 0-13.267-2.966-13.267-9.33 0-4.315 2.804-8.738 9.545-8.738 4.963 0 6.85 1.834 7.874 3.398 0-.7.162-2.21.378-2.75h7.388c-.162.648-.377 4.53-.377 7.226m74.611 9.815c-.055 3.236-1.349 5.987-5.123 5.987-3.668 0-5.178-2.536-5.502-5.987zm-10.787-4.745c0-3.506 1.781-6.902 5.609-6.902 3.236 0 4.153 1.294 4.908 2.964h7.712c-.972-3.396-4.044-9.006-12.782-9.006-9.221 0-13.212 6.85-13.212 14.185 0 8.79 4.476 15.046 13.482 15.046 9.546 0 12.836-6.957 12.836-13.914 0-.97 0-1.564-.109-2.373h-18.444m-8.403-3.29c-.917-4.637-4.206-9.654-12.51-9.654-8.684 0-13.16 5.987-13.16 14.4 0 8.25 5.016 14.831 13.537 14.831 9.382 0 12.025-6.795 12.133-9.923h-7.495c-.486 2.266-1.78 3.828-4.8 3.828-3.56 0-5.555-3.073-5.555-8.466 0-5.987 2.157-8.683 5.5-8.683 2.697 0 4.1 1.564 4.8 3.666h7.55m-52.31 11.866c0 2.372 0 4.961-.054 7.065h7.495c.162-.755.27-2.697.324-3.56.917 1.726 3.183 4.207 8.09 4.207 5.61 0 9.222-3.83 9.222-10.84V58.704h-7.712v16.88c0 3.183-1.024 5.447-4.477 5.447-3.29 0-5.123-1.834-5.123-6.794V58.704h-7.766v20.872m-43.627-.539c0 2.804 0 5.23-.055 7.604h7.604c.109-.648.217-3.4.217-4.908 1.24 3.181 4.206 5.5 8.951 5.555v-7.389c-5.608.162-8.95-1.347-8.95-9.006V58.704h-7.767v20.333m122.709-105.12c0-9.07 0-19.254.185-27.768h-25.92c-.368 2.592-.554 7.776-.739 11.106-5.739-9.628-14.07-13.328-26.473-13.328-19.438 0-31.842 11.848-31.842 35.543v62.574h26.473v-57.205c0-10.553 3.332-19.254 14.81-19.254 12.033 0 17.032 6.48 17.032 25.363v51.096h26.474v-68.127M227.908 4.647c-.185 11.109-4.627 20.55-17.587 20.55-12.589 0-17.772-8.702-18.882-20.55zm-37.025-16.291c0-12.032 6.11-23.696 19.253-23.696 11.108 0 14.255 4.443 16.847 10.18h26.472c-3.332-11.66-13.884-30.913-43.875-30.913-31.655 0-45.354 23.512-45.354 48.689 0 30.174 15.365 51.65 46.28 51.65 32.767 0 44.06-23.883 44.06-47.763 0-3.333 0-5.368-.37-8.147h-63.313m-34.536 92.933v-135.14h-27.583v135.14h27.583M73.678 22.975c-15.18 0-20.547-9.81-20.547-29.434 0-16.109 4.812-28.51 20.178-28.51 13.513 0 20.733 12.03 20.733 30.177 0 16.106-6.11 27.767-20.364 27.767zm-45.91 58.314h26.659V31.86c3.886 6.11 11.847 12.406 27.397 12.406 26.102 0 39.06-21.662 39.06-48.504 0-27.398-14.069-51.835-41.651-51.835-14.255 0-20.55 4.26-25.178 11.293 0-3.15-.556-6.666-1.11-9.071H27.582c.186 10.367.186 20.92.186 31.283V81.29M339.65-89.318c-.057 3.24-1.35 5.99-5.124 5.99-3.67 0-5.178-2.538-5.505-5.99zm-10.79-4.744c0-3.507 1.78-6.903 5.611-6.903 3.235 0 4.153 1.29 4.905 2.965h7.717c-.973-3.4-4.047-9.007-12.783-9.007-9.226 0-13.218 6.848-13.218 14.185 0 8.793 4.477 15.045 13.486 15.045 9.548 0 12.837-6.954 12.837-13.914 0-.969 0-1.564-.105-2.37h-18.45m-35.312 8.573c0 2.373 0 4.962-.055 7.066h7.499c.162-.752.268-2.696.323-3.56.914 1.728 3.18 4.205 8.091 4.205 5.607 0 9.221-3.825 9.221-10.84v-17.744h-7.712v16.882c0 3.183-1.025 5.45-4.476 5.45-3.291 0-5.124-1.837-5.124-6.798v-15.534h-7.767v20.873M276.333-99.78c4.641 0 5.878 3.179 5.878 7.872s-.807 7.93-5.716 7.93c-3.343 0-5.987-2.59-5.987-8.197 0-4.8 2.427-7.605 5.825-7.605zm13.217-3.184c0-8.953-3.29-14.616-13.864-14.616-10.195 0-12.187 5.663-12.46 8.847h7.877c.54-1.942 1.94-3.236 4.907-3.236 5.016 0 5.99 3.075 5.99 8.52v1.347c-1.46-2.426-3.78-3.937-7.878-3.937-7.334 0-11.542 6.042-11.542 13.541 0 8.736 5.234 14.721 12.188 14.721 4.804 0 6.798-2.266 7.232-3.558.05.757.266 2.428.323 2.913h7.282c0-2.534-.055-5.34-.055-8.036v-16.506M241.69-92.391c0-5.395 2.322-8.574 6.041-8.574 3.83 0 5.935 3.18 5.935 8.517 0 5.83-2.16 8.579-6.041 8.579-3.563 0-5.935-2.644-5.935-8.522zm19.794.054c0-8.468-5.067-14.67-13.914-14.67-8.63 0-13.701 6.202-13.701 14.51 0 8.628 5.233 14.72 14.08 14.72 8.195 0 13.535-5.823 13.535-14.56m-28.197-5.016c-.919-4.638-4.21-9.654-12.517-9.654-8.681 0-13.158 5.985-13.158 14.398 0 8.257 5.017 14.832 13.536 14.832 9.388 0 12.032-6.792 12.139-9.921h-7.5c-.484 2.266-1.777 3.829-4.8 3.829-3.559 0-5.556-3.077-5.556-8.468 0-5.99 2.16-8.685 5.505-8.685 2.696 0 4.098 1.565 4.8 3.67h7.55m-43.482-.596c.595-2.265 2.428-3.503 5.285-3.503 2.86 0 3.886 1.024 3.886 2.751 0 1.776-1.187 2.477-5.178 3.451-9.115 2.266-10.573 5.068-10.573 9.005 0 4.102 2.86 8.467 11.273 8.467 8.47 0 11.382-4.636 11.599-8.412h-7.338c-.268 1.025-.97 2.967-4.583 2.967-2.539 0-3.4-1.13-3.4-2.372 0-1.402.861-2.05 5.394-3.13 9.331-2.158 10.679-5.338 10.679-9.437 0-4.642-3.558-8.846-12.027-8.846-8.524 0-11.976 4.097-12.622 9.06h7.605m-17.225 4.314h-3.13c-4.693 0-6.418-1.454-6.418-4.153 0-1.994 1.242-3.722 4.043-3.722 4.91 0 5.505 3.453 5.505 7.123zm7.55-5.5c0-2.696.217-6.582.379-7.228h-7.394c-.212.54-.374 2.05-.374 2.752-1.025-1.566-2.912-3.398-7.877-3.398-6.742 0-9.544 4.421-9.544 8.736 0 6.363 5.068 9.331 13.268 9.331h3.992v1.67c0 1.999-.702 3.941-4.315 3.941-3.24 0-3.991-1.351-4.315-3.4h-7.338c.378 4.961 3.452 8.952 11.976 8.952 7.444-.05 11.542-2.962 11.542-9.654v-11.702m-40.425-.647c4.638 0 5.88 3.179 5.88 7.872s-.812 7.93-5.718 7.93c-3.346 0-5.99-2.59-5.99-8.197 0-4.8 2.427-7.605 5.828-7.605zm13.213-3.184c0-8.953-3.29-14.616-13.863-14.616-10.194 0-12.188 5.663-12.456 8.847h7.873c.54-1.942 1.943-3.236 4.906-3.236 5.016 0 5.99 3.075 5.99 8.52v1.347c-1.458-2.426-3.776-3.937-7.877-3.937-7.334 0-11.543 6.042-11.543 13.541 0 8.736 5.233 14.721 12.193 14.721 4.8 0 6.793-2.266 7.226-3.558.052.757.268 2.428.324 2.913h7.282c0-2.534-.055-5.34-.055-8.036v-16.506" transform="matrix(1.33333 0 0 -1.33333 0 318.452)"/></svg>