<svg xml:space="preserve" width="500" height="500" xmlns="http://www.w3.org/2000/svg"><path d="M375-136.16H0v375h375Z" style="fill:#0077d7;fill-opacity:1;fill-rule:nonzero;stroke:none;stroke-width:1.57009" transform="matrix(1.33333 0 0 -1.33333 0 318.452)"/><path style="fill:#bfddf5;fill-opacity:1;fill-rule:nonzero;stroke:none;stroke-width:1.57009" d="M311.77 138.02a20.464 20.464 0 0 0-6.84-1.168c-10.797 0-19.55 8.305-19.55 18.55 0 2.856.681 5.562 1.898 7.979h-23.999a38.464 38.464 0 0 1-.835-7.98c0-22.262 19.021-40.31 42.486-40.31 2.329 0 4.613.18 6.84.523zm-6.84 35.93c10.798 0 19.551-8.304 19.551-18.549 0-3.146-.827-6.109-2.284-8.704h24.223c.65 2.804.997 5.715.997 8.704 0 17.17-11.314 31.83-27.254 37.639v18.216h-21.036V173.12c1.834.54 3.783.83 5.803.83" transform="matrix(1.33333 0 0 -1.33333 0 318.452)"/><path style="fill:#fff;fill-opacity:1;fill-rule:nonzero;stroke:none;stroke-width:.15701" d="M209.885 58.706v22.112h-4.098v5.823h4.098v2.427c0 5.77 2.857 9.545 8.897 9.545 1.24 0 2.858-.108 3.558-.325v-6.093c-.43.054-1.022.108-1.617.108-2.264 0-3.126-.809-3.126-3.83v-1.832h4.852v-5.823h-4.852V58.706h-7.712m47.605 11.972c0-3.668-.593-7.119-5.5-7.119-2.804 0-4.044 1.727-4.044 3.721 0 2.696 1.725 4.153 6.417 4.153h3.127zm7.55-4.747v11.704c0 6.687-4.099 9.598-11.54 9.653-7.663 0-10.92-3.228-11.772-7.488l7.135-1.465c.323 2.05 1.078 3.398 4.313 3.398 3.614 0 4.314-1.94 4.314-3.936v-1.672h-3.99c-8.197 0-13.267-2.965-13.267-9.33 0-4.315 2.804-8.736 9.545-8.736 4.963 0 6.85 1.832 7.874 3.396 0-.7.162-2.21.378-2.75h7.388c-.162.65-.377 4.53-.377 7.226m74.611 9.817c-.055 3.234-1.349 5.985-5.123 5.985-3.668 0-5.178-2.534-5.502-5.985zM328.865 71c0-3.504 1.781-6.902 5.609-6.902 3.236 0 4.153 1.294 4.908 2.966h7.712c-.972-3.398-4.044-9.006-12.782-9.006-9.221 0-13.212 6.849-13.212 14.184 0 8.79 4.476 15.045 13.482 15.045 9.546 0 12.836-6.957 12.836-13.914 0-.97 0-1.564-.109-2.373h-18.444m-8.403-3.29c-.917-4.637-4.206-9.652-12.51-9.652-8.684 0-13.16 5.987-13.16 14.398 0 8.252 5.016 14.831 13.537 14.831 9.382 0 12.025-6.795 12.133-9.923h-7.495c-.486 2.266-1.78 3.83-4.8 3.83-3.56 0-5.555-3.075-5.555-8.468 0-5.985 2.157-8.681 5.5-8.681 2.697 0 4.1 1.564 4.8 3.666h7.55m-52.31 11.864c0 2.374 0 4.961-.054 7.065h7.495c.162-.755.27-2.696.324-3.56.917 1.726 3.183 4.207 8.09 4.207 5.61 0 9.222-3.83 9.222-10.84V58.706h-7.712v16.878c0 3.183-1.024 5.449-4.477 5.449-3.29 0-5.123-1.834-5.123-6.796V58.706h-7.766v20.87m-43.627-.539c0 2.804 0 5.232-.055 7.604h7.604c.109-.647.217-3.398.217-4.908 1.24 3.183 4.206 5.5 8.951 5.555v-7.389c-5.608.163-8.95-1.347-8.95-9.006V58.706h-7.767v20.331m122.709-105.12c0-9.069 0-19.252.185-27.767h-25.92c-.368 2.59-.554 7.775-.739 11.105-5.739-9.626-14.07-13.326-26.473-13.326-19.438 0-31.842 11.847-31.842 35.543v62.572h26.473V-15.16c0-10.553 3.332-19.255 14.81-19.255 12.033 0 17.032 6.48 17.032 25.362v51.096h26.474v-68.127M227.908 4.647c-.185 11.11-4.627 20.55-17.587 20.55-12.589 0-17.772-8.702-18.882-20.55zm-37.025-16.29c0-12.031 6.11-23.696 19.253-23.696 11.108 0 14.255 4.442 16.847 10.18h26.472c-3.332-11.659-13.884-30.912-43.875-30.912-31.655 0-45.354 23.512-45.354 48.687 0 30.175 15.365 51.65 46.28 51.65 32.767 0 44.06-23.883 44.06-47.763 0-3.333 0-5.368-.37-8.146h-63.313M156.347 81.29v-135.14h-27.583V81.29h27.583M73.678 22.977c-15.18 0-20.547-9.812-20.547-29.435 0-16.108 4.812-28.512 20.178-28.512 13.513 0 20.733 12.032 20.733 30.178 0 16.106-6.11 27.769-20.364 27.769zm-45.91 58.312h26.659V31.86c3.886 6.11 11.847 12.406 27.397 12.406 26.102 0 39.06-21.662 39.06-48.504 0-27.397-14.069-51.833-41.651-51.833-14.255 0-20.55 4.257-25.178 11.291 0-3.15-.556-6.666-1.11-9.07H27.582c.186 10.366.186 20.918.186 31.284V81.29M339.649-89.317c-.055 3.236-1.347 5.99-5.122 5.99-3.669 0-5.178-2.539-5.504-5.99zm-10.788-4.744c0-3.508 1.78-6.904 5.611-6.904 3.235 0 4.153 1.291 4.905 2.967h7.717c-.975-3.401-4.047-9.01-12.783-9.01-9.226 0-13.218 6.85-13.218 14.188 0 8.79 4.477 15.046 13.485 15.046 9.549 0 12.838-6.955 12.838-13.916 0-.968 0-1.564-.105-2.37h-18.45m-24.492 8.034c0 2.806 0 5.233-.055 7.606h7.605c.11-.647.217-3.398.217-4.907 1.242 3.18 4.208 5.5 8.953 5.553v-7.389c-5.607.16-8.953-1.348-8.953-9.009v-12.187h-7.767v20.333m-10.258-3.291c-.055 3.236-1.348 5.99-5.123 5.99-3.67 0-5.178-2.539-5.505-5.99zm-7.12 22.87 6.152-7.982h-6.799l-8.574 7.982zm-3.67-27.614c0-3.508 1.781-6.904 5.612-6.904 3.235 0 4.153 1.291 4.905 2.967h7.717c-.973-3.401-4.048-9.01-12.784-9.01-9.224 0-13.217 6.85-13.217 14.188 0 8.79 4.477 15.046 13.486 15.046 9.548 0 12.839-6.955 12.839-13.916 0-.968 0-1.564-.107-2.37h-18.45m-31.412-6.475 13.808 16.018h-13.163v6.097h21.899v-6.042l-13.54-15.802h14.508l-.913-6.095H251.91v5.824m-20.088 8.144c0-5.394 2.32-8.574 6.042-8.574 3.83 0 5.933 3.18 5.933 8.519 0 5.83-2.159 8.579-6.04 8.579-3.562 0-5.935-2.644-5.935-8.524zm19.794.056c0-8.467-5.068-14.672-13.914-14.672-8.63 0-13.702 6.205-13.702 14.51 0 8.63 5.233 14.723 14.08 14.723 8.197 0 13.536-5.825 13.536-14.56m-37.883-14.025v39.373h7.767v-39.373h-7.767m-27.816 5.557c5.29 0 5.935 4.42 5.935 8.41 0 4.802-.7 8.413-5.768 8.413-4.048 0-6.097-3.177-6.097-8.467 0-5.445 2.105-8.356 5.93-8.356zm13.324 33.816V-98.7c0-2.537 0-5.127.055-7.659h-7.387c-.162.862-.324 2.266-.379 2.91-1.348-2.21-3.776-3.558-7.929-3.558-7.065 0-11.542 5.663-11.542 14.399 0 8.579 4.744 14.834 12.673 14.834 4.047 0 6.202-1.455 6.798-2.695v13.483h7.711m-43.936-19.04c0 2.806 0 5.233-.051 7.606h7.601c.11-.647.217-3.398.217-4.907 1.242 3.18 4.21 5.5 8.953 5.553v-7.389c-5.607.16-8.953-1.348-8.953-9.009v-12.187h-7.767v20.333m-11.516-7.606h-3.13c-4.693 0-6.419-1.454-6.419-4.153 0-1.994 1.242-3.72 4.048-3.72 4.91 0 5.5 3.452 5.5 7.121zm7.55-5.501c0-2.696.217-6.58.378-7.226h-7.389c-.216.539-.378 2.047-.378 2.75-1.024-1.566-2.912-3.398-7.873-3.398-6.743 0-9.549 4.422-9.549 8.737 0 6.365 5.073 9.331 13.268 9.331h3.993v1.67c0 2-.702 3.942-4.315 3.942-3.235 0-3.992-1.352-4.315-3.4h-7.334c.374 4.965 3.452 8.953 11.971 8.953 7.444-.053 11.543-2.964 11.543-9.656v-11.703m-40.425-.646c4.638 0 5.88 3.18 5.88 7.874 0 4.692-.808 7.926-5.718 7.926-3.342 0-5.986-2.587-5.986-8.194 0-4.8 2.427-7.606 5.824-7.606zm13.217-3.184c0-8.953-3.29-14.616-13.863-14.616-10.194 0-12.193 5.663-12.46 8.848h7.873c.54-1.943 1.943-3.241 4.91-3.241 5.016 0 5.986 3.078 5.986 8.524v1.347c-1.454-2.425-3.775-3.935-7.873-3.935-7.338 0-11.543 6.039-11.543 13.54 0 8.735 5.23 14.722 12.188 14.722 4.8 0 6.798-2.262 7.228-3.559.055.755.272 2.428.322 2.913h7.283c0-2.535-.05-5.34-.05-8.036v-16.507" transform="matrix(1.33333 0 0 -1.33333 0 318.452)"/></svg>