<svg xml:space="preserve" width="500" height="500" xmlns="http://www.w3.org/2000/svg"><path d="M375-136.16H0v375h375Z" style="fill:#0077d7;fill-opacity:1;fill-rule:nonzero;stroke:none;stroke-width:1.57009" transform="matrix(1.33333 0 0 -1.33333 0 318.452)"/><path style="fill:#bfddf5;fill-opacity:1;fill-rule:nonzero;stroke:none;stroke-width:1.57009" d="M311.77 138.02a20.464 20.464 0 0 0-6.84-1.168c-10.797 0-19.55 8.305-19.55 18.55 0 2.856.68 5.562 1.898 7.979h-24a38.47 38.47 0 0 1-.834-7.98c0-22.262 19.021-40.31 42.486-40.31 2.329 0 4.613.18 6.84.523zm-6.84 35.93c10.798 0 19.551-8.304 19.551-18.549 0-3.146-.827-6.109-2.284-8.704h24.223c.65 2.804.997 5.715.997 8.704 0 17.17-11.314 31.83-27.254 37.639v18.216h-21.036V173.12c1.834.54 3.783.83 5.803.83" transform="matrix(1.33333 0 0 -1.33333 0 318.452)"/><path style="fill:#fff;fill-opacity:1;fill-rule:nonzero;stroke:none;stroke-width:.15701" d="M209.885 58.706v22.11h-4.098v5.824h4.098v2.428c0 5.769 2.857 9.544 8.897 9.544 1.24 0 2.858-.109 3.558-.324v-6.093c-.43.054-1.022.106-1.617.106-2.264 0-3.126-.807-3.126-3.83V86.64h4.852v-5.824h-4.852v-22.11h-7.712m47.605 11.97c0-3.666-.593-7.117-5.5-7.117-2.804 0-4.044 1.726-4.044 3.721 0 2.696 1.725 4.151 6.417 4.151h3.127zm7.55-4.745v11.704c0 6.687-4.099 9.598-11.54 9.653-7.663 0-10.92-3.23-11.772-7.488l7.135-1.465c.323 2.05 1.078 3.398 4.313 3.398 3.614 0 4.314-1.942 4.314-3.936v-1.672h-3.99c-8.197 0-13.267-2.966-13.267-9.33 0-4.315 2.804-8.738 9.545-8.738 4.963 0 6.85 1.834 7.874 3.398 0-.7.162-2.21.378-2.75h7.388c-.162.648-.377 4.53-.377 7.226m74.611 9.815c-.055 3.236-1.349 5.987-5.123 5.987-3.668 0-5.178-2.536-5.502-5.987zm-10.787-4.745c0-3.506 1.781-6.902 5.609-6.902 3.236 0 4.153 1.294 4.908 2.964h7.712c-.972-3.396-4.044-9.006-12.782-9.006-9.221 0-13.212 6.85-13.212 14.185 0 8.79 4.476 15.046 13.482 15.046 9.546 0 12.836-6.957 12.836-13.914 0-.97 0-1.564-.109-2.373h-18.444m-8.403-3.29c-.917-4.637-4.206-9.654-12.51-9.654-8.684 0-13.16 5.987-13.16 14.4 0 8.25 5.016 14.831 13.537 14.831 9.382 0 12.025-6.795 12.133-9.923h-7.495c-.486 2.266-1.78 3.828-4.8 3.828-3.56 0-5.555-3.073-5.555-8.466 0-5.987 2.157-8.683 5.5-8.683 2.697 0 4.1 1.564 4.8 3.666h7.55m-52.31 11.866c0 2.372 0 4.961-.054 7.065h7.495c.162-.755.27-2.697.324-3.56.917 1.726 3.183 4.207 8.09 4.207 5.61 0 9.222-3.83 9.222-10.84V58.704h-7.712v16.88c0 3.183-1.024 5.447-4.477 5.447-3.29 0-5.123-1.834-5.123-6.794V58.704h-7.766v20.872m-43.627-.539c0 2.804 0 5.23-.055 7.604h7.604c.109-.648.217-3.4.217-4.908 1.24 3.181 4.206 5.5 8.951 5.555v-7.389c-5.608.162-8.95-1.347-8.95-9.006V58.704h-7.767v20.333m122.709-105.12c0-9.07 0-19.254.185-27.768h-25.92c-.368 2.592-.554 7.776-.739 11.106-5.739-9.628-14.07-13.328-26.473-13.328-19.438 0-31.842 11.848-31.842 35.543v62.574h26.473v-57.205c0-10.553 3.332-19.254 14.81-19.254 12.033 0 17.032 6.48 17.032 25.363v51.096h26.474v-68.127M227.908 4.647c-.185 11.109-4.627 20.55-17.587 20.55-12.589 0-17.772-8.702-18.882-20.55zm-37.025-16.291c0-12.032 6.11-23.696 19.253-23.696 11.108 0 14.255 4.443 16.847 10.18h26.472c-3.332-11.66-13.884-30.913-43.875-30.913-31.655 0-45.354 23.512-45.354 48.689 0 30.174 15.365 51.65 46.28 51.65 32.767 0 44.06-23.883 44.06-47.763 0-3.333 0-5.368-.37-8.147h-63.313m-34.536 92.933v-135.14h-27.583v135.14h27.583M73.678 22.975c-15.18 0-20.547-9.81-20.547-29.434 0-16.109 4.812-28.51 20.178-28.51 13.513 0 20.733 12.03 20.733 30.177 0 16.106-6.11 27.767-20.364 27.767zm-45.91 58.314h26.659V31.86c3.886 6.11 11.847 12.406 27.397 12.406 26.102 0 39.06-21.662 39.06-48.504 0-27.398-14.069-51.835-41.651-51.835-14.255 0-20.55 4.26-25.178 11.293 0-3.15-.556-6.666-1.11-9.071H27.582c.186 10.367.186 20.92.186 31.283V81.29M341.442-89.317c-.055 3.234-1.349 5.99-5.123 5.99-3.67 0-5.178-2.539-5.505-5.99zm-10.79-4.745c0-3.507 1.78-6.903 5.612-6.903 3.234 0 4.153 1.291 4.905 2.967h7.717c-.974-3.401-4.048-9.01-12.784-9.01-9.226 0-13.217 6.85-13.217 14.188 0 8.79 4.476 15.045 13.484 15.045 9.55 0 12.839-6.956 12.839-13.915 0-.968 0-1.564-.105-2.372h-18.45m-23.577-6.742c5.283 0 5.93 4.421 5.93 8.413 0 4.8-.702 8.412-5.77 8.412-4.046 0-6.095-3.18-6.095-8.467 0-5.445 2.104-8.358 5.935-8.358zm13.322 33.818V-98.7c0-2.537 0-5.127.052-7.66h-7.39c-.16.863-.323 2.265-.378 2.912-1.347-2.21-3.774-3.56-7.929-3.56-7.065 0-11.541 5.664-11.541 14.4 0 8.579 4.748 14.833 12.677 14.833 4.043 0 6.202-1.454 6.793-2.696v13.485h7.716m-54.759-18.5c0 2.37 0 4.96-.056 7.066h7.5c.16-.757.267-2.696.322-3.56.914 1.727 3.18 4.205 8.09 4.205 5.607 0 9.222-3.827 9.222-10.842v-17.744h-7.713v16.882c0 3.184-1.023 5.45-4.476 5.45-3.29 0-5.123-1.837-5.123-6.797v-15.535h-7.766v20.875m-22.346-6.905c0-5.395 2.323-8.574 6.042-8.574 3.83 0 5.935 3.18 5.935 8.519 0 5.828-2.16 8.579-6.042 8.579-3.562 0-5.935-2.644-5.935-8.524zm19.795.054c0-8.467-5.067-14.67-13.915-14.67-8.629 0-13.7 6.203-13.7 14.51 0 8.63 5.233 14.722 14.079 14.722 8.196 0 13.536-5.824 13.536-14.562m-44.31 6.31c0 2.805 0 5.233-.055 7.607h7.604c.111-.647.216-3.398.216-4.907 1.242 3.18 4.21 5.5 8.955 5.552v-7.39c-5.609.163-8.955-1.346-8.955-9.007v-12.189h-7.765v20.333m-11.713 7.608h7.767v-27.94h-7.767zm0 4.53v6.904h7.767v-6.903h-7.767M189.89-99.78c4.638 0 5.875 3.18 5.875 7.874 0 4.693-.808 7.927-5.713 7.927-3.346 0-5.992-2.587-5.992-8.196 0-4.798 2.43-7.605 5.83-7.605zm13.212-3.184c0-8.953-3.29-14.615-13.864-14.615-10.193 0-12.187 5.662-12.455 8.846h7.874c.54-1.942 1.942-3.24 4.905-3.24 5.016 0 5.99 3.079 5.99 8.525v1.347c-1.457-2.427-3.775-3.936-7.877-3.936-7.334 0-11.542 6.04-11.542 13.54 0 8.736 5.233 14.722 12.192 14.722 4.8 0 6.793-2.263 7.227-3.558.052.755.268 2.426.323 2.913h7.282c0-2.535-.055-5.34-.055-8.036v-16.508" transform="matrix(1.33333 0 0 -1.33333 0 318.452)"/></svg>