<svg xml:space="preserve" width="500" height="500" xmlns="http://www.w3.org/2000/svg"><path d="M375-136.161H0v375h375Z" style="fill:#0077d7;fill-opacity:1;fill-rule:nonzero;stroke:none;stroke-width:1.57009" transform="matrix(1.33333 0 0 -1.33333 0 318.452)"/><path style="fill:#bfddf5;fill-opacity:1;fill-rule:nonzero;stroke:none;stroke-width:1.57009" d="M311.77 138.02a20.464 20.464 0 0 0-6.84-1.168c-10.797 0-19.55 8.305-19.55 18.55 0 2.855.681 5.562 1.898 7.979h-23.999a38.464 38.464 0 0 1-.835-7.98c0-22.262 19.021-40.31 42.486-40.31 2.329 0 4.613.18 6.84.523zm-6.84 35.93c10.798 0 19.551-8.304 19.551-18.549 0-3.146-.827-6.109-2.284-8.704h24.223c.65 2.804.997 5.715.997 8.704 0 17.17-11.314 31.829-27.254 37.638v18.217h-21.036V173.12c1.834.54 3.783.83 5.803.83" transform="matrix(1.33333 0 0 -1.33333 0 318.452)"/><path style="fill:#fff;fill-opacity:1;fill-rule:nonzero;stroke:none;stroke-width:.15701" d="M209.884 58.707v22.111h-4.098v5.822h4.098v2.43c0 5.768 2.857 9.542 8.898 9.542 1.24 0 2.857-.108 3.557-.323v-6.094a13.59 13.59 0 0 1-1.617.107c-2.264 0-3.126-.807-3.126-3.83V86.64h4.852v-5.822h-4.852V58.707h-7.712m47.605 11.972c0-3.668-.593-7.12-5.5-7.12-2.804 0-4.044 1.726-4.044 3.722 0 2.696 1.725 4.153 6.417 4.153h3.127zm7.55-4.747v11.702c0 6.689-4.099 9.6-11.54 9.655-7.663 0-10.92-3.23-11.772-7.488l7.134-1.465c.324 2.049 1.08 3.398 4.314 3.398 3.614 0 4.314-1.943 4.314-3.937v-1.672h-3.99c-8.197 0-13.267-2.966-13.267-9.33 0-4.314 2.804-8.737 9.545-8.737 4.963 0 6.85 1.834 7.874 3.398 0-.7.162-2.21.378-2.75h7.388c-.162.648-.377 4.53-.377 7.226m74.61 9.815c-.054 3.236-1.348 5.987-5.123 5.987-3.667 0-5.178-2.536-5.501-5.987zm-10.786-4.745c0-3.506 1.78-6.902 5.608-6.902 3.236 0 4.153 1.292 4.909 2.964h7.712c-.972-3.397-4.045-9.006-12.782-9.006-9.221 0-13.213 6.849-13.213 14.184 0 8.79 4.477 15.047 13.483 15.047 9.546 0 12.835-6.957 12.835-13.914 0-.97 0-1.564-.108-2.373h-18.444m-8.403-3.29c-.917-4.637-4.206-9.654-12.51-9.654-8.685 0-13.16 5.987-13.16 14.4 0 8.25 5.015 14.83 13.536 14.83 9.383 0 12.026-6.795 12.134-9.922h-7.496c-.485 2.264-1.78 3.828-4.8 3.828-3.559 0-5.554-3.075-5.554-8.466 0-5.987 2.157-8.683 5.5-8.683 2.697 0 4.1 1.564 4.8 3.668h7.55m-52.31 11.863c0 2.373 0 4.962-.054 7.066h7.495c.162-.755.27-2.698.324-3.56.917 1.726 3.182 4.207 8.089 4.207 5.61 0 9.223-3.83 9.223-10.84V58.705h-7.713v16.88c0 3.183-1.023 5.447-4.476 5.447-3.29 0-5.123-1.834-5.123-6.794V58.705h-7.766v20.871m-43.627-.538c0 2.802 0 5.23-.054 7.604h7.603c.109-.649.217-3.4.217-4.908 1.24 3.18 4.206 5.5 8.951 5.555v-7.39c-5.608.163-8.95-1.346-8.95-9.005V58.705h-7.767v20.333M347.231-26.083c0-9.069 0-19.253.185-27.767h-25.919c-.369 2.592-.554 7.776-.74 11.107-5.738-9.626-14.069-13.329-26.473-13.329-19.437 0-31.841 11.848-31.841 35.544v62.573h26.473V-15.16c0-10.553 3.332-19.253 14.81-19.253 12.033 0 17.032 6.48 17.032 25.362v51.096h26.473v-68.128M227.907 4.648c-.185 11.109-4.627 20.548-17.587 20.548-12.589 0-17.772-8.701-18.882-20.548zm-37.024-16.291c0-12.032 6.109-23.696 19.252-23.696 11.108 0 14.255 4.444 16.847 10.182h26.472c-3.332-11.661-13.884-30.915-43.875-30.915-31.654 0-45.354 23.512-45.354 48.687 0 30.177 15.365 51.652 46.28 51.652 32.767 0 44.059-23.883 44.059-47.763 0-3.333 0-5.368-.369-8.147h-63.312m-34.537 92.932V-53.85h-27.583V81.29h27.583M73.678 22.975c-15.18 0-20.548-9.812-20.548-29.434 0-16.108 4.813-28.51 20.178-28.51 13.514 0 20.733 12.031 20.733 30.175 0 16.108-6.109 27.769-20.363 27.769zm-45.91 58.313h26.658V31.861c3.886 6.11 11.848 12.406 27.397 12.406 26.102 0 39.061-21.662 39.061-48.504 0-27.398-14.07-51.835-41.651-51.835-14.255 0-20.55 4.26-25.178 11.294 0-3.15-.556-6.667-1.11-9.072H27.581c.186 10.367.186 20.92.186 31.284V81.289m296.36-166.775c0 2.372 0 4.962-.054 7.065h7.499c.161-.757.268-2.695.323-3.558.914 1.726 3.18 4.205 8.09 4.205 5.608 0 9.22-3.826 9.22-10.841v-17.744h-7.71v16.882c0 3.184-1.026 5.45-4.477 5.45-3.29 0-5.123-1.838-5.123-6.799v-15.533h-7.767v20.873m-11.737 7.065h7.767v-27.938h-7.767zm0 4.531v6.905h7.767v-6.905h-7.767M292.91-97.946c.59-2.266 2.427-3.503 5.283-3.503 2.863 0 3.886 1.025 3.886 2.75 0 1.778-1.185 2.478-5.178 3.452-9.114 2.262-10.573 5.068-10.573 9.004 0 4.103 2.858 8.47 11.275 8.47 8.469 0 11.38-4.639 11.594-8.415h-7.334c-.269 1.025-.97 2.967-4.584 2.967-2.537 0-3.4-1.135-3.4-2.372 0-1.402.863-2.049 5.395-3.129 9.33-2.159 10.68-5.338 10.68-9.44 0-4.64-3.56-8.844-12.028-8.844-8.524 0-11.976 4.098-12.622 9.06h7.606m-9.85-.324c0-2.644 0-5.607.056-8.09h-7.55c-.108.758-.163 2.267-.218 3.235-1.67-2.8-4.098-3.88-7.712-3.88-5.662 0-9.276 3.452-9.276 10.355v18.23h7.712v-16.666c0-3.077.969-5.611 4.315-5.611 3.507 0 4.961 1.887 4.961 7.389v14.887h7.711V-98.27m-46.839 5.88c0-5.394 2.32-8.574 6.042-8.574 3.83 0 5.933 3.18 5.933 8.52 0 5.828-2.159 8.578-6.04 8.578-3.563 0-5.935-2.646-5.935-8.524zm19.794.055c0-8.468-5.068-14.67-13.914-14.67-8.63 0-13.702 6.202-13.702 14.509 0 8.63 5.233 14.722 14.08 14.722 8.196 0 13.536-5.825 13.536-14.561m-70.14 6.687c0 2.427 0 4.8-.052 7.227h7.388c.107-.701.269-2.265.324-3.341 1.404 2.05 3.664 3.988 7.767 3.988 3.988 0 6.202-2.101 7.17-4.26 1.673 2.266 4.048 4.26 8.632 4.26 4.854 0 8.846-3.019 8.846-10.246v-18.34h-7.55v17.366c0 2.54-.918 5.017-4.102 5.017-3.236 0-4.528-2.156-4.528-6.414v-15.968h-7.606v17.098c0 2.856-.7 5.233-3.991 5.233-3.13 0-4.638-1.943-4.638-6.741v-15.59h-7.66v20.71m-11.7 7.228h7.766v-27.938h-7.765zm0 4.531v6.905h7.766v-6.905h-7.765m-11.7-32.47v39.375h7.767v-39.374h-7.768" transform="matrix(1.33333 0 0 -1.33333 0 318.452)"/></svg>