<svg xml:space="preserve" width="500" height="499.998" xmlns="http://www.w3.org/2000/svg"><path d="M375-136.16H0v375h375Z" style="fill:#0077d7;fill-opacity:1;fill-rule:nonzero;stroke:none;stroke-width:1.57009" transform="matrix(1.33333 0 0 -1.33333 0 318.452)"/><path style="fill:#bfddf5;fill-opacity:1;fill-rule:nonzero;stroke:none;stroke-width:1.57009" d="M311.77 138.02a20.464 20.464 0 0 0-6.84-1.168c-10.798 0-19.55 8.305-19.55 18.55 0 2.856.68 5.562 1.897 7.979H263.28a38.464 38.464 0 0 1-.836-7.98c0-22.262 19.022-40.31 42.487-40.31 2.328 0 4.613.18 6.84.523zm-6.84 35.93c10.798 0 19.55-8.304 19.55-18.549 0-3.146-.827-6.109-2.284-8.704h24.224c.65 2.804.997 5.715.997 8.704 0 17.17-11.314 31.83-27.254 37.639v18.216h-21.036V173.12c1.834.54 3.782.83 5.803.83" transform="matrix(1.33333 0 0 -1.33333 0 318.452)"/><path style="fill:#fff;fill-opacity:1;fill-rule:nonzero;stroke:none;stroke-width:.15701" d="M209.884 58.707v22.111h-4.098v5.824h4.098v2.427c0 5.77 2.858 9.545 8.898 9.545 1.24 0 2.857-.109 3.56-.325v-6.094a13.31 13.31 0 0 1-1.62.108c-2.264 0-3.126-.808-3.126-3.829v-1.832h4.852v-5.824h-4.852V58.707h-7.712m47.605 11.972c0-3.668-.593-7.12-5.5-7.12-2.804 0-4.044 1.728-4.044 3.722 0 2.696 1.725 4.153 6.417 4.153h3.127zm7.551-4.747v11.704c0 6.687-4.1 9.598-11.54 9.653-7.664 0-10.92-3.229-11.773-7.488l7.135-1.465c.323 2.05 1.078 3.398 4.313 3.398 3.614 0 4.314-1.941 4.314-3.937v-1.672h-3.99c-8.197 0-13.267-2.964-13.267-9.33 0-4.314 2.805-8.735 9.545-8.735 4.963 0 6.85 1.832 7.874 3.396 0-.7.162-2.21.378-2.75h7.388c-.162.649-.377 4.53-.377 7.226m74.61 9.816c-.054 3.235-1.348 5.986-5.122 5.986-3.668 0-5.179-2.535-5.502-5.986zm-10.786-4.746c0-3.504 1.78-6.902 5.609-6.902 3.236 0 4.153 1.294 4.908 2.966h7.712c-.972-3.398-4.044-9.006-12.782-9.006-9.221 0-13.212 6.848-13.212 14.184 0 8.79 4.476 15.045 13.482 15.045 9.546 0 12.836-6.958 12.836-13.915 0-.97 0-1.563-.109-2.372h-18.444m-8.403-3.29c-.917-4.637-4.206-9.652-12.512-9.652-8.681 0-13.157 5.986-13.157 14.397 0 8.253 5.015 14.832 13.535 14.832 9.383 0 12.026-6.796 12.134-9.923h-7.495c-.486 2.265-1.78 3.829-4.8 3.829-3.56 0-5.555-3.074-5.555-8.467 0-5.986 2.157-8.682 5.5-8.682 2.697 0 4.1 1.564 4.8 3.667h7.55m-52.31 11.863c0 2.374 0 4.962-.054 7.066h7.496c.161-.756.27-2.696.323-3.56.917 1.726 3.183 4.207 8.09 4.207 5.61 0 9.222-3.83 9.222-10.84V58.707h-7.712v16.878c0 3.183-1.024 5.448-4.475 5.448-3.291 0-5.125-1.834-5.125-6.795V58.707h-7.766v20.87m-43.626-.54c0 2.805 0 5.232-.055 7.605h7.604c.108-.647.216-3.398.216-4.908 1.24 3.182 4.207 5.5 8.952 5.555v-7.39c-5.609.164-8.952-1.346-8.952-9.005V58.707h-7.765v20.33M347.23-26.08c0-9.07 0-19.253.186-27.768h-25.92c-.369 2.59-.554 7.775-.74 11.105-5.738-9.626-14.069-13.326-26.472-13.326-19.438 0-31.842 11.847-31.842 35.543v62.572h26.473v-57.203c0-10.553 3.332-19.255 14.81-19.255 12.033 0 17.032 6.48 17.032 25.362v51.096h26.473V-26.08M227.907 4.649c-.185 11.11-4.627 20.549-17.586 20.549-12.59 0-17.772-8.702-18.882-20.55zm-37.024-16.29c0-12.032 6.109-23.697 19.252-23.697 11.109 0 14.255 4.443 16.847 10.18h26.472C250.122-36.815 239.57-56.07 209.58-56.07c-31.656 0-45.353 23.512-45.353 48.687 0 30.175 15.365 51.65 46.28 51.65 32.766 0 44.058-23.883 44.058-47.763 0-3.333 0-5.368-.369-8.146h-63.312M156.346 81.29V-53.849h-27.583V81.29h27.583M73.678 22.977c-15.18 0-20.548-9.811-20.548-29.434 0-16.108 4.814-28.511 20.179-28.511 13.513 0 20.732 12.031 20.732 30.177 0 16.106-6.108 27.768-20.363 27.768zM27.768 81.29h26.659V31.861c3.886 6.11 11.847 12.405 27.396 12.405 26.103 0 39.06-21.66 39.06-48.503 0-27.397-14.068-51.833-41.65-51.833-14.255 0-20.55 4.257-25.178 11.292 0-3.15-.556-6.667-1.11-9.07H27.582c.186 10.365.186 20.918.186 31.283V81.29m294.57-166.772c0 2.374 0 4.963-.056 7.067h7.5c.161-.752.268-2.694.323-3.558.913 1.725 3.18 4.204 8.09 4.204 5.607 0 9.22-3.825 9.22-10.84v-17.744h-7.71v16.88c0 3.186-1.026 5.45-4.477 5.45-3.291 0-5.123-1.836-5.123-6.797v-15.533h-7.768v20.87m-11.546-8.144h-3.125c-4.693 0-6.418-1.453-6.418-4.154 0-1.992 1.242-3.72 4.043-3.72 4.91 0 5.5 3.455 5.5 7.121zm7.555-5.501c0-2.694.212-6.578.374-7.225h-7.389c-.212.538-.378 2.047-.378 2.75-1.024-1.565-2.911-3.397-7.873-3.397-6.742 0-9.548 4.42-9.548 8.736 0 6.365 5.072 9.33 13.268 9.33h3.991v1.673c0 1.997-.7 3.94-4.315 3.94-3.234 0-3.986-1.352-4.314-3.401h-7.334c.378 4.96 3.452 8.953 11.972 8.953 7.444-.051 11.546-2.964 11.546-9.656v-11.703M290.802-66.44l-8.63-7.984h-6.741l6.202 7.984zm-5.823-22.872c-.055 3.24-1.348 5.99-5.124 5.99-3.667 0-5.178-2.537-5.504-5.99zm-10.79-4.743c0-3.507 1.782-6.904 5.611-6.904 3.236 0 4.153 1.291 4.907 2.968h7.715c-.973-3.4-4.047-9.01-12.783-9.01-9.225 0-13.217 6.85-13.217 14.188 0 8.79 4.476 15.044 13.485 15.044 9.548 0 12.839-6.954 12.839-13.915 0-.968 0-1.564-.112-2.37H274.19m-8.35-3.292c-.917-4.638-4.208-9.654-12.51-9.654-8.686 0-13.162 5.985-13.162 14.398 0 8.257 5.016 14.833 13.535 14.833 9.388 0 12.032-6.794 12.137-9.922h-7.499c-.485 2.267-1.777 3.831-4.8 3.831-3.557 0-5.556-3.08-5.556-8.47 0-5.989 2.16-8.685 5.506-8.685 2.695 0 4.098 1.565 4.8 3.67h7.55m-46.593 4.96c0-5.396 2.32-8.574 6.041-8.574 3.83 0 5.934 3.178 5.934 8.52 0 5.828-2.16 8.58-6.04 8.58-3.563 0-5.935-2.647-5.935-8.525zm19.794.056c0-8.468-5.069-14.671-13.914-14.671-8.631 0-13.703 6.203-13.703 14.509 0 8.631 5.233 14.722 14.081 14.722 8.196 0 13.536-5.823 13.536-14.56m-46.637 3.017c-.055 3.24-1.347 5.99-5.121 5.99-3.67 0-5.179-2.537-5.502-5.99zm-10.785-4.743c0-3.507 1.778-6.904 5.607-6.904 3.236 0 4.155 1.291 4.911 2.968h7.708c-.97-3.4-4.043-9.01-12.78-9.01-9.22 0-13.213 6.85-13.213 14.188 0 8.79 4.476 15.044 13.486 15.044 9.54 0 12.829-6.954 12.829-13.915 0-.968 0-1.564-.105-2.37H181.62m-24.495 8.033c0 2.806 0 5.234-.052 7.606h7.606c.107-.647.213-3.398.213-4.907 1.24 3.181 4.208 5.502 8.953 5.553v-7.388c-5.607.162-8.953-1.349-8.953-9.01v-12.186h-7.767v20.332m-11.708 7.606h7.767v-27.938h-7.767zm0 4.531v6.906h7.767v-6.906h-7.767m-22.344-18.5c0-5.397 2.321-8.575 6.04-8.575 3.832 0 5.936 3.178 5.936 8.52 0 5.828-2.16 8.58-6.041 8.58-3.559 0-5.935-2.647-5.935-8.525zm19.797.055c0-8.468-5.071-14.671-13.918-14.671-8.63 0-13.697 6.203-13.697 14.509 0 8.631 5.229 14.722 14.076 14.722 8.2 0 13.54-5.823 13.54-14.56m-37.883-14.024v39.375h7.767v-39.375h-7.767" transform="matrix(1.33333 0 0 -1.33333 0 318.452)"/></svg>