<svg xml:space="preserve" width="500" height="500" xmlns="http://www.w3.org/2000/svg"><path d="M375-136.16H0v375h375Z" style="fill:#0077d7;fill-opacity:1;fill-rule:nonzero;stroke:none;stroke-width:1.57009" transform="matrix(1.33333 0 0 -1.33333 0 318.452)"/><path style="fill:#bfddf5;fill-opacity:1;fill-rule:nonzero;stroke:none;stroke-width:1.57009" d="M311.77 138.02a20.464 20.464 0 0 0-6.84-1.168c-10.797 0-19.55 8.305-19.55 18.55 0 2.856.681 5.562 1.898 7.979h-23.999a38.464 38.464 0 0 1-.835-7.98c0-22.262 19.021-40.31 42.486-40.31 2.329 0 4.613.18 6.84.523zm-6.84 35.93c10.798 0 19.551-8.304 19.551-18.549 0-3.146-.827-6.109-2.284-8.704h24.223c.65 2.804.997 5.715.997 8.704 0 17.17-11.314 31.83-27.254 37.639v18.216h-21.036V173.12c1.834.54 3.783.83 5.803.83" transform="matrix(1.33333 0 0 -1.33333 0 318.452)"/><path style="fill:#fff;fill-opacity:1;fill-rule:nonzero;stroke:none;stroke-width:.15701" d="M209.885 58.706v22.11h-4.098v5.824h4.098v2.428c0 5.769 2.857 9.544 8.897 9.544 1.24 0 2.86-.109 3.56-.324v-6.093c-.432.054-1.024.106-1.619.106-2.264 0-3.126-.807-3.126-3.83V86.64h4.852v-5.824h-4.852v-22.11h-7.712m47.605 11.97c0-3.666-.593-7.117-5.5-7.117-2.804 0-4.044 1.726-4.044 3.721 0 2.696 1.725 4.151 6.417 4.151h3.127zm7.55-4.745v11.704c0 6.687-4.097 9.598-11.54 9.653-7.663 0-10.92-3.23-11.772-7.488l7.135-1.465c.323 2.05 1.078 3.398 4.313 3.398 3.614 0 4.314-1.942 4.314-3.936v-1.672h-3.99c-8.197 0-13.267-2.966-13.267-9.33 0-4.315 2.804-8.738 9.545-8.738 4.963 0 6.85 1.834 7.874 3.398 0-.7.162-2.21.378-2.75h7.388c-.162.648-.377 4.53-.377 7.226m74.611 9.815c-.053 3.236-1.349 5.987-5.123 5.987-3.668 0-5.178-2.536-5.502-5.987zm-10.787-4.745c0-3.506 1.781-6.902 5.609-6.902 3.236 0 4.153 1.294 4.908 2.964h7.712c-.972-3.396-4.044-9.006-12.782-9.006-9.221 0-13.212 6.85-13.212 14.185 0 8.79 4.476 15.046 13.482 15.046 9.546 0 12.836-6.957 12.836-13.914 0-.97 0-1.564-.109-2.373h-18.444m-8.403-3.29c-.917-4.637-4.206-9.654-12.51-9.654-8.684 0-13.16 5.987-13.16 14.4 0 8.25 5.016 14.831 13.537 14.831 9.382 0 12.025-6.795 12.133-9.923h-7.495c-.486 2.266-1.78 3.828-4.8 3.828-3.56 0-5.555-3.073-5.555-8.466 0-5.987 2.157-8.683 5.5-8.683 2.697 0 4.1 1.564 4.8 3.666h7.55m-52.31 11.866c0 2.372 0 4.961-.054 7.065h7.495c.162-.755.27-2.697.324-3.56.917 1.726 3.183 4.207 8.09 4.207 5.61 0 9.222-3.83 9.222-10.84V58.704h-7.712v16.88c0 3.183-1.024 5.447-4.475 5.447-3.291 0-5.125-1.834-5.125-6.794V58.704h-7.766v20.872m-43.627-.539c0 2.804 0 5.23-.055 7.604h7.604c.109-.648.217-3.4.217-4.908 1.24 3.181 4.206 5.5 8.951 5.555v-7.389c-5.608.162-8.95-1.347-8.95-9.006V58.704h-7.767v20.333m122.709-105.12c0-9.07 0-19.254.185-27.768h-25.92c-.368 2.592-.554 7.776-.739 11.106-5.739-9.628-14.07-13.328-26.473-13.328-19.438 0-31.842 11.848-31.842 35.543v62.574h26.473v-57.205c0-10.553 3.332-19.254 14.81-19.254 12.033 0 17.032 6.48 17.032 25.363v51.096h26.474v-68.127M227.908 4.647c-.185 11.109-4.627 20.55-17.587 20.55-12.589 0-17.772-8.702-18.882-20.55zm-37.025-16.291c0-12.032 6.11-23.696 19.253-23.696 11.108 0 14.255 4.443 16.847 10.18h26.472c-3.332-11.66-13.884-30.913-43.875-30.913-31.655 0-45.354 23.512-45.354 48.689 0 30.174 15.365 51.65 46.282 51.65 32.765 0 44.057-23.883 44.057-47.763 0-3.333 0-5.368-.369-8.147h-63.313m-34.536 92.933v-135.14h-27.584v135.14h27.584M73.678 22.975c-15.18 0-20.547-9.81-20.547-29.434 0-16.109 4.813-28.51 20.178-28.51 13.513 0 20.733 12.03 20.733 30.177 0 16.106-6.11 27.767-20.364 27.767zm-45.91 58.314h26.659V31.86c3.886 6.11 11.847 12.406 27.397 12.406 26.102 0 39.06-21.662 39.06-48.504 0-27.398-14.069-51.835-41.651-51.835-14.255 0-20.55 4.26-25.178 11.293 0-3.15-.556-6.666-1.11-9.071H27.583c.184 10.367.184 20.92.184 31.283V81.29M334.042-100.8c5.284 0 5.93 4.421 5.93 8.41 0 4.803-.701 8.417-5.768 8.417-4.048 0-6.097-3.18-6.097-8.47 0-5.449 2.106-8.357 5.935-8.357zm13.324 33.814V-98.7c0-2.534 0-5.128.05-7.66h-7.389c-.161.866-.323 2.269-.378 2.915-1.347-2.21-3.775-3.562-7.927-3.562-7.066 0-11.542 5.661-11.542 14.402 0 8.579 4.748 14.828 12.677 14.828 4.043 0 6.202-1.453 6.792-2.694v13.484h7.717M303.43-86.023c0 2.806 0 5.229-.057 7.6h7.606c.111-.646.217-3.392.217-4.906 1.242 3.18 4.209 5.502 8.954 5.552v-7.387c-5.609.162-8.954-1.344-8.954-9.005v-12.192h-7.766v20.338m-22.316-6.368c0-5.392 2.322-8.571 6.042-8.571 3.83 0 5.935 3.179 5.935 8.519 0 5.825-2.16 8.579-6.042 8.579-3.563 0-5.935-2.644-5.935-8.527zm19.794.06c0-8.47-5.066-14.676-13.914-14.676-8.63 0-13.7 6.206-13.7 14.513 0 8.63 5.232 14.717 14.078 14.717 8.196 0 13.536-5.823 13.536-14.555m-55.07 6.844c0 2.373 0 4.965-.054 7.066h7.498c.162-.757.267-2.696.324-3.555.914 1.726 3.18 4.2 8.089 4.2 5.607 0 9.221-3.825 9.221-10.84v-17.744h-7.712v16.886c0 3.18-1.024 5.449-4.477 5.449-3.29 0-5.121-1.835-5.121-6.801v-15.534h-7.768v20.873m-20.698-3.826c-.057 3.231-1.349 5.985-5.123 5.985-3.67 0-5.179-2.532-5.505-5.985zm-10.79-4.743c0-3.512 1.78-6.905 5.612-6.905 3.234 0 4.153 1.292 4.905 2.967h7.717c-.975-3.4-4.048-9.012-12.784-9.012-9.226 0-13.217 6.853-13.217 14.19 0 8.791 4.476 15.04 13.484 15.04 9.55 0 12.839-6.954 12.839-13.91 0-.968 0-1.563-.106-2.37h-18.45m-35.31 8.57c0 2.372 0 4.964-.056 7.065h7.498c.162-.757.274-2.696.324-3.555.918 1.726 3.184 4.2 8.09 4.2 5.612 0 9.225-3.825 9.225-10.84v-17.744h-7.71v16.886c0 3.18-1.03 5.449-4.477 5.449-3.291 0-5.128-1.835-5.128-6.801v-15.534h-7.766v20.873m-11.73 7.066h7.762v-27.939h-7.762zm0 4.531v6.904h7.762v-6.904h-7.762m-11.512-19.742h-3.129c-4.693 0-6.42-1.454-6.42-4.15 0-1.997 1.242-3.725 4.048-3.725 4.906 0 5.501 3.453 5.501 7.126zm7.55-5.5c0-2.696.217-6.582.379-7.228h-7.39c-.216.544-.377 2.05-.377 2.755-1.025-1.566-2.913-3.401-7.874-3.401-6.742 0-9.547 4.421-9.547 8.74 0 6.36 5.066 9.327 13.267 9.327h3.992v1.675c0 1.999-.702 3.936-4.315 3.936-3.235 0-3.992-1.351-4.315-3.4h-7.338c.379 4.965 3.452 8.952 11.976 8.952 7.445-.05 11.542-2.958 11.542-9.65v-11.706m-41.398 13.11c0 2.806 0 5.229-.055 7.6h7.605c.106-.646.213-3.392.213-4.906 1.241 3.18 4.208 5.502 8.953 5.552v-7.387c-5.608.162-8.953-1.344-8.953-9.005v-12.192h-7.763v20.338m-18.101 0c0 2.806 0 5.229-.056 7.6h7.606c.106-.646.212-3.392.212-4.906 1.242 3.18 4.209 5.502 8.953 5.552v-7.387c-5.607.162-8.953-1.344-8.953-9.005v-12.192h-7.762v20.338m-22.32-6.368c0-5.392 2.322-8.571 6.046-8.571 3.826 0 5.93 3.179 5.93 8.519 0 5.825-2.155 8.579-6.04 8.579-3.56 0-5.935-2.644-5.935-8.527zm19.798.06c0-8.47-5.07-14.676-13.914-14.676-8.63 0-13.701 6.206-13.701 14.513 0 8.63 5.233 14.717 14.075 14.717 8.201 0 13.54-5.823 13.54-14.555M63.445-106.36v39.374h7.771v-39.374h-7.77" transform="matrix(1.33333 0 0 -1.33333 0 318.452)"/></svg>