<svg xml:space="preserve" width="500" height="499.998" xmlns="http://www.w3.org/2000/svg"><path d="M375-136.16H0v375h375Z" style="fill:#0077d7;fill-opacity:1;fill-rule:nonzero;stroke:none;stroke-width:1.57009" transform="matrix(1.33333 0 0 -1.33333 0 318.452)"/><path style="fill:#bfddf5;fill-opacity:1;fill-rule:nonzero;stroke:none;stroke-width:1.57009" d="M311.77 138.02a20.464 20.464 0 0 0-6.84-1.168c-10.798 0-19.55 8.305-19.55 18.55 0 2.856.68 5.562 1.897 7.979H263.28a38.464 38.464 0 0 1-.836-7.98c0-22.262 19.022-40.31 42.487-40.31 2.328 0 4.613.18 6.84.523zm-6.84 35.93c10.798 0 19.55-8.304 19.55-18.549 0-3.146-.827-6.109-2.284-8.704h24.224c.65 2.804.997 5.715.997 8.704 0 17.17-11.314 31.83-27.254 37.639v18.216h-21.036V173.12c1.834.54 3.782.83 5.803.83" transform="matrix(1.33333 0 0 -1.33333 0 318.452)"/><path style="fill:#fff;fill-opacity:1;fill-rule:nonzero;stroke:none;stroke-width:.15701" d="M209.884 58.707v22.111h-4.098v5.824h4.098v2.427c0 5.77 2.858 9.545 8.898 9.545 1.24 0 2.857-.109 3.56-.325v-6.094c-.433.055-1.024.108-1.62.108-2.264 0-3.126-.808-3.126-3.829v-1.832h4.852v-5.824h-4.852V58.707h-7.712m47.605 11.972c0-3.668-.593-7.12-5.5-7.12-2.804 0-4.044 1.728-4.044 3.722 0 2.696 1.725 4.153 6.417 4.153h3.127zm7.551-4.747v11.704c0 6.687-4.1 9.598-11.54 9.653-7.664 0-10.92-3.229-11.773-7.488l7.135-1.465c.323 2.05 1.078 3.398 4.313 3.398 3.614 0 4.314-1.941 4.314-3.937v-1.672h-3.99c-8.197 0-13.267-2.964-13.267-9.33 0-4.314 2.805-8.735 9.545-8.735 4.963 0 6.85 1.832 7.874 3.396 0-.7.162-2.21.378-2.75h7.388c-.162.649-.377 4.53-.377 7.226m74.61 9.816c-.054 3.235-1.348 5.986-5.122 5.986-3.668 0-5.179-2.535-5.502-5.986zm-10.786-4.746c0-3.504 1.78-6.902 5.609-6.902 3.236 0 4.153 1.294 4.908 2.966h7.712c-.972-3.398-4.044-9.006-12.782-9.006-9.221 0-13.212 6.848-13.212 14.184 0 8.79 4.476 15.045 13.482 15.045 9.546 0 12.836-6.958 12.836-13.915 0-.97 0-1.563-.109-2.372h-18.444m-8.403-3.29c-.917-4.637-4.206-9.652-12.512-9.652-8.681 0-13.157 5.986-13.157 14.397 0 8.253 5.015 14.832 13.535 14.832 9.383 0 12.026-6.796 12.134-9.923h-7.495c-.486 2.265-1.78 3.829-4.8 3.829-3.56 0-5.555-3.074-5.555-8.467 0-5.986 2.157-8.682 5.5-8.682 2.697 0 4.1 1.564 4.8 3.667h7.55m-52.31 11.863c0 2.374 0 4.962-.054 7.066h7.496c.161-.756.27-2.696.323-3.56.917 1.726 3.183 4.207 8.09 4.207 5.61 0 9.222-3.83 9.222-10.84V58.707h-7.712v16.878c0 3.183-1.024 5.448-4.475 5.448-3.291 0-5.125-1.834-5.125-6.795V58.707h-7.766v20.87m-43.626-.54c0 2.805 0 5.232-.055 7.605h7.604c.108-.647.216-3.398.216-4.908 1.24 3.182 4.207 5.5 8.952 5.555v-7.39c-5.609.164-8.952-1.346-8.952-9.005V58.707h-7.765v20.33M347.23-26.08c0-9.07 0-19.253.186-27.768h-25.92c-.369 2.59-.554 7.775-.74 11.105-5.738-9.626-14.069-13.326-26.472-13.326-19.438 0-31.842 11.847-31.842 35.543v62.572h26.473v-57.203c0-10.553 3.332-19.255 14.81-19.255 12.033 0 17.032 6.48 17.032 25.362v51.096h26.473v-68.126M227.907 4.649c-.185 11.11-4.627 20.549-17.586 20.549-12.59 0-17.772-8.702-18.882-20.55zm-37.024-16.29c0-12.032 6.109-23.697 19.252-23.697 11.109 0 14.255 4.443 16.847 10.18h26.472C250.122-36.815 239.57-56.07 209.58-56.07c-31.656 0-45.353 23.512-45.353 48.687 0 30.175 15.365 51.65 46.28 51.65 32.766 0 44.058-23.883 44.058-47.763 0-3.333 0-5.368-.369-8.146h-63.312M156.346 81.29V-53.849h-27.583V81.29h27.583M73.678 22.977c-15.18 0-20.548-9.811-20.548-29.434 0-16.108 4.814-28.511 20.179-28.511 13.513 0 20.732 12.031 20.732 30.177 0 16.106-6.108 27.768-20.363 27.768zM27.768 81.29h26.659V31.861c3.886 6.11 11.847 12.405 27.396 12.405 26.103 0 39.06-21.66 39.06-48.503 0-27.397-14.068-51.833-41.65-51.833-14.255 0-20.55 4.257-25.178 11.292 0-3.15-.556-6.667-1.11-9.07H27.582c.186 10.365.186 20.918.186 31.283V81.29M339.649-89.314c-.056 3.236-1.348 5.99-5.123 5.99-3.67 0-5.178-2.538-5.505-5.99zm-10.79-4.743c0-3.508 1.781-6.906 5.612-6.906 3.235 0 4.153 1.292 4.905 2.97h7.717c-.973-3.401-4.048-9.01-12.784-9.01-9.225 0-13.217 6.85-13.217 14.188 0 8.79 4.477 15.044 13.486 15.044 9.548 0 12.837-6.955 12.837-13.915 0-.97 0-1.564-.105-2.371h-18.45m-35.312 8.573c0 2.373 0 4.963-.055 7.065h7.499c.162-.756.268-2.693.323-3.557.914 1.726 3.181 4.205 8.091 4.205 5.607 0 9.221-3.826 9.221-10.841v-17.744h-7.712v16.882c0 3.184-1.025 5.448-4.476 5.448-3.291 0-5.124-1.836-5.124-6.797v-15.533h-7.767v20.872m-11.732 7.065h7.766v-27.937h-7.766zm0 4.532v6.906h7.766v-6.906h-7.766m-11.513-19.742h-3.128c-4.69 0-6.415-1.454-6.415-4.154 0-1.992 1.237-3.72 4.043-3.72 4.91 0 5.5 3.455 5.5 7.122zm7.555-5.501c0-2.695.212-6.58.374-7.226h-7.389c-.217.539-.378 2.048-.378 2.751-1.024-1.566-2.911-3.398-7.873-3.398-6.743 0-9.55 4.422-9.55 8.736 0 6.365 5.074 9.331 13.274 9.331h3.987v1.672c0 1.997-.7 3.94-4.315 3.94-3.234 0-3.99-1.352-4.314-3.401h-7.334c.378 4.966 3.452 8.954 11.976 8.954 7.44-.052 11.542-2.964 11.542-9.656V-99.13m-67.34 13.485c0 2.427 0 4.8-.055 7.226h7.39c.11-.7.27-2.264.326-3.34 1.399 2.049 3.664 3.988 7.767 3.988 3.988 0 6.204-2.1 7.172-4.26 1.67 2.266 4.048 4.26 8.63 4.26 4.854 0 8.847-3.02 8.847-10.246v-18.339h-7.55v17.365c0 2.538-.92 5.017-4.103 5.017-3.235 0-4.527-2.156-4.527-6.416v-15.966h-7.605v17.097c0 2.859-.702 5.233-3.993 5.233-3.128 0-4.638-1.942-4.638-6.742v-15.588h-7.66v20.711" transform="matrix(1.33333 0 0 -1.33333 0 318.452)"/></svg>