<svg xml:space="preserve" width="500" height="500" xmlns="http://www.w3.org/2000/svg"><path d="M375-136.161H0v375h375Z" style="fill:#0077d7;fill-opacity:1;fill-rule:nonzero;stroke:none;stroke-width:1.57009" transform="matrix(1.33333 0 0 -1.33333 0 318.452)"/><path style="fill:#bfddf5;fill-opacity:1;fill-rule:nonzero;stroke:none;stroke-width:1.57009" d="M311.77 138.02a20.464 20.464 0 0 0-6.84-1.168c-10.798 0-19.55 8.305-19.55 18.55 0 2.855.68 5.562 1.897 7.979H263.28a38.464 38.464 0 0 1-.836-7.98c0-22.262 19.022-40.31 42.487-40.31 2.328 0 4.613.18 6.84.523zm-6.84 35.93c10.798 0 19.55-8.304 19.55-18.549 0-3.146-.827-6.109-2.284-8.704h24.224c.65 2.804.997 5.715.997 8.704 0 17.17-11.314 31.829-27.254 37.638v18.217h-21.036V173.12c1.834.54 3.782.83 5.803.83" transform="matrix(1.33333 0 0 -1.33333 0 318.452)"/><path style="fill:#fff;fill-opacity:1;fill-rule:nonzero;stroke:none;stroke-width:.15701" d="M209.884 58.707v22.11h-4.098v5.823h4.098v2.43c0 5.768 2.858 9.542 8.898 9.542 1.24 0 2.857-.108 3.56-.323v-6.094c-.433.055-1.024.107-1.62.107-2.264 0-3.126-.807-3.126-3.83V86.64h4.852v-5.823h-4.852v-22.11h-7.712m47.605 11.97c0-3.666-.593-7.117-5.5-7.117-2.804 0-4.044 1.725-4.044 3.721 0 2.696 1.725 4.151 6.417 4.151h3.127zm7.551-4.745v11.704c0 6.687-4.1 9.598-11.54 9.653-7.664 0-10.92-3.23-11.773-7.488l7.135-1.465c.323 2.049 1.078 3.398 4.313 3.398 3.614 0 4.314-1.943 4.314-3.937v-1.672h-3.99c-8.197 0-13.267-2.966-13.267-9.33 0-4.314 2.805-8.737 9.545-8.737 4.963 0 6.85 1.834 7.874 3.398 0-.7.162-2.21.378-2.75h7.388c-.162.648-.377 4.53-.377 7.226m74.61 9.815c-.054 3.236-1.348 5.987-5.122 5.987-3.668 0-5.179-2.536-5.502-5.987zm-10.786-4.745c0-3.506 1.78-6.902 5.609-6.902 3.236 0 4.153 1.294 4.908 2.964h7.712c-.972-3.396-4.044-9.006-12.782-9.006-9.221 0-13.212 6.85-13.212 14.184 0 8.79 4.476 15.047 13.482 15.047 9.546 0 12.836-6.957 12.836-13.914 0-.97 0-1.564-.109-2.373h-18.444m-8.403-3.29c-.917-4.637-4.206-9.654-12.512-9.654-8.681 0-13.157 5.987-13.157 14.4 0 8.25 5.015 14.83 13.535 14.83 9.383 0 12.026-6.795 12.134-9.922h-7.495c-.486 2.265-1.78 3.828-4.8 3.828-3.56 0-5.555-3.073-5.555-8.466 0-5.987 2.157-8.683 5.5-8.683 2.697 0 4.1 1.564 4.8 3.666h7.55m-52.31 11.865c0 2.373 0 4.962-.054 7.066h7.496c.161-.755.27-2.698.323-3.56.917 1.726 3.183 4.207 8.09 4.207 5.61 0 9.222-3.83 9.222-10.84V58.705h-7.712v16.88c0 3.183-1.024 5.447-4.475 5.447-3.291 0-5.125-1.834-5.125-6.794V58.705h-7.766v20.871m-43.626-.538c0 2.804 0 5.23-.055 7.604h7.604c.108-.649.216-3.4.216-4.908 1.24 3.18 4.207 5.5 8.952 5.555v-7.39c-5.609.163-8.952-1.346-8.952-9.005V58.705h-7.765v20.333M347.23-26.082c0-9.07 0-19.254.186-27.768h-25.92c-.369 2.592-.554 7.776-.74 11.107-5.738-9.628-14.069-13.329-26.472-13.329-19.438 0-31.842 11.848-31.842 35.544v62.573h26.473V-15.16c0-10.553 3.332-19.254 14.81-19.254 12.033 0 17.032 6.481 17.032 25.363v51.096h26.473v-68.126M227.907 4.649c-.185 11.108-4.627 20.549-17.586 20.549-12.59 0-17.772-8.702-18.882-20.55zm-37.024-16.292c0-12.032 6.109-23.696 19.252-23.696 11.109 0 14.255 4.444 16.847 10.18h26.472c-3.332-11.66-13.884-30.913-43.875-30.913-31.656 0-45.353 23.512-45.353 48.689 0 30.174 15.365 51.65 46.28 51.65 32.766 0 44.058-23.883 44.058-47.763 0-3.333 0-5.368-.369-8.147h-63.312m-34.537 92.932V-53.85h-27.583V81.29h27.583M73.678 22.975c-15.18 0-20.548-9.81-20.548-29.434 0-16.108 4.814-28.51 20.179-28.51 13.513 0 20.732 12.031 20.732 30.177 0 16.106-6.108 27.767-20.363 27.767zm-45.91 58.313h26.659V31.861c3.886 6.11 11.847 12.406 27.396 12.406 26.103 0 39.06-21.662 39.06-48.504 0-27.398-14.068-51.835-41.65-51.835-14.255 0-20.55 4.26-25.178 11.294 0-3.15-.556-6.667-1.11-9.072H27.582c.186 10.367.186 20.92.186 31.284V81.289m311.881-170.6c-.056 3.235-1.348 5.989-5.123 5.989-3.67 0-5.178-2.538-5.505-5.989zm-10.79-4.744c0-3.508 1.781-6.905 5.612-6.905 3.235 0 4.153 1.293 4.905 2.968h7.717c-.973-3.4-4.048-9.01-12.784-9.01-9.225 0-13.217 6.85-13.217 14.188 0 8.791 4.477 15.045 13.486 15.045 9.548 0 12.837-6.955 12.837-13.914 0-.97 0-1.566-.105-2.372h-18.45m-35.312 8.574c0 2.372 0 4.96-.055 7.065h7.499c.162-.757.268-2.694.323-3.558.914 1.726 3.181 4.205 8.091 4.205 5.607 0 9.221-3.826 9.221-10.841v-17.744h-7.712v16.88c0 3.186-1.025 5.451-4.476 5.451-3.291 0-5.124-1.837-5.124-6.797v-15.534h-7.767v20.873m-29.001 0c0 2.372 0 4.96-.055 7.065h7.499c.161-.757.268-2.694.323-3.558.914 1.726 3.18 4.205 8.09 4.205 5.608 0 9.22-3.826 9.22-10.841v-17.744h-7.71v16.88c0 3.186-1.026 5.451-4.477 5.451-3.29 0-5.123-1.837-5.123-6.797v-15.534h-7.767v20.873m-10.287-3.83c-.055 3.235-1.347 5.989-5.124 5.989-3.667 0-5.178-2.538-5.504-5.989zm-10.79-4.744c0-3.508 1.78-6.905 5.612-6.905 3.234 0 4.152 1.293 4.906 2.968h7.716c-.974-3.4-4.048-9.01-12.784-9.01-9.225 0-13.217 6.85-13.217 14.188 0 8.791 4.476 15.045 13.485 15.045 9.548 0 12.839-6.955 12.839-13.914 0-.97 0-1.566-.107-2.372h-18.45m-25.563 15.64c2.861-9.656 5.395-18.23 5.828-20.819h.052c.595 2.801 2.266 9.06 5.557 20.818h7.71l-9.38-28.747c-2.646-8.04-4.912-10.41-11.6-10.41-.7 0-2.265.056-3.612.217v6.202a21.99 21.99 0 0 1 1.994-.11c2.86 0 4.263.973 5.338 4.046l-10.193 28.802h8.306m-15.873-15.211h-3.13c-4.693 0-6.418-1.454-6.418-4.153 0-1.994 1.24-3.72 4.046-3.72 4.907 0 5.502 3.453 5.502 7.12zm7.55-5.5c0-2.696.217-6.58.379-7.227h-7.39c-.216.54-.378 2.049-.378 2.75-1.025-1.565-2.912-3.397-7.874-3.397-6.742 0-9.543 4.421-9.543 8.736 0 6.365 5.067 9.333 13.264 9.333h3.992v1.67c0 1.997-.702 3.94-4.315 3.94-3.236 0-3.993-1.35-4.315-3.401h-7.334c.379 4.966 3.453 8.954 11.972 8.954 7.444-.052 11.542-2.965 11.542-9.655v-11.703m-67.33 13.484c0 2.427 0 4.8-.056 7.227h7.389c.11-.7.272-2.265.323-3.341 1.402 2.049 3.669 3.988 7.767 3.988 3.991 0 6.202-2.1 7.175-4.26 1.67 2.266 4.043 4.26 8.631 4.26 4.855 0 8.846-3.02 8.846-10.246v-18.34h-7.554v17.367c0 2.538-.914 5.016-4.098 5.016-3.236 0-4.533-2.154-4.533-6.416v-15.966h-7.604v17.098c0 2.856-.701 5.233-3.988 5.233-3.129 0-4.642-1.943-4.642-6.742v-15.59h-7.657v20.712" transform="matrix(1.33333 0 0 -1.33333 0 318.452)"/></svg>