<svg xml:space="preserve" width="500" height="500" xmlns="http://www.w3.org/2000/svg"><path d="M375-136.161H0v375h375Z" style="fill:#0077d7;fill-opacity:1;fill-rule:nonzero;stroke:none;stroke-width:1.57009" transform="matrix(1.33333 0 0 -1.33333 0 318.452)"/><path style="fill:#bfddf5;fill-opacity:1;fill-rule:nonzero;stroke:none;stroke-width:1.57009" d="M311.77 138.02a20.464 20.464 0 0 0-6.84-1.168c-10.798 0-19.55 8.305-19.55 18.55 0 2.855.68 5.562 1.897 7.979H263.28a38.464 38.464 0 0 1-.836-7.98c0-22.262 19.022-40.31 42.487-40.31 2.328 0 4.613.18 6.84.523zm-6.84 35.93c10.798 0 19.55-8.304 19.55-18.549 0-3.146-.827-6.109-2.284-8.704h24.224c.65 2.804.997 5.715.997 8.704 0 17.17-11.314 31.829-27.254 37.638v18.217h-21.036V173.12c1.834.54 3.782.83 5.803.83" transform="matrix(1.33333 0 0 -1.33333 0 318.452)"/><path style="fill:#fff;fill-opacity:1;fill-rule:nonzero;stroke:none;stroke-width:.15701" d="M209.884 58.708v22.11h-4.098v5.822h4.098v2.43c0 5.768 2.858 9.542 8.898 9.542 1.24 0 2.857-.108 3.56-.323v-6.094c-.433.055-1.024.107-1.62.107-2.264 0-3.126-.807-3.126-3.828V86.64h4.852v-5.822h-4.852v-22.11h-7.712m47.605 11.97c0-3.667-.593-7.118-5.5-7.118-2.804 0-4.044 1.725-4.044 3.721 0 2.696 1.725 4.153 6.417 4.153h3.127zm7.551-4.746v11.704c0 6.687-4.1 9.598-11.54 9.653-7.664 0-10.92-3.23-11.773-7.488l7.135-1.465c.323 2.049 1.078 3.398 4.313 3.398 3.614 0 4.314-1.943 4.314-3.937v-1.672h-3.99c-8.197 0-13.267-2.966-13.267-9.33 0-4.314 2.805-8.737 9.545-8.737 4.963 0 6.85 1.834 7.874 3.398 0-.7.162-2.21.378-2.75h7.388c-.162.648-.377 4.53-.377 7.226m74.61 9.815c-.054 3.236-1.348 5.987-5.122 5.987-3.668 0-5.179-2.534-5.502-5.987zm-10.786-4.745c0-3.506 1.78-6.902 5.609-6.902 3.236 0 4.153 1.294 4.908 2.964h7.712c-.972-3.397-4.044-9.006-12.782-9.006-9.221 0-13.212 6.85-13.212 14.184 0 8.79 4.476 15.047 13.482 15.047 9.546 0 12.836-6.957 12.836-13.914 0-.97 0-1.564-.109-2.373h-18.444m-8.403-3.29c-.917-4.637-4.206-9.654-12.512-9.654-8.681 0-13.157 5.987-13.157 14.4 0 8.25 5.015 14.83 13.535 14.83 9.383 0 12.026-6.795 12.134-9.922h-7.495c-.486 2.265-1.78 3.83-4.8 3.83-3.56 0-5.555-3.075-5.555-8.468 0-5.987 2.157-8.683 5.5-8.683 2.697 0 4.1 1.564 4.8 3.668h7.55m-52.31 11.863c0 2.374 0 4.962-.054 7.066h7.496c.161-.755.27-2.698.323-3.56.917 1.726 3.183 4.207 8.09 4.207 5.61 0 9.222-3.83 9.222-10.84V58.707h-7.712v16.878c0 3.183-1.024 5.447-4.475 5.447-3.291 0-5.125-1.832-5.125-6.794V58.707h-7.766v20.87m-43.626-.54c0 2.805 0 5.232-.055 7.605h7.604c.108-.647.216-3.4.216-4.908 1.24 3.18 4.207 5.5 8.952 5.555v-7.39c-5.609.163-8.952-1.346-8.952-9.005V58.707h-7.765v20.33M347.23-26.082c0-9.069 0-19.253.186-27.767h-25.92c-.369 2.592-.554 7.776-.74 11.107-5.738-9.626-14.069-13.329-26.472-13.329-19.438 0-31.842 11.848-31.842 35.544v62.573h26.473V-15.16c0-10.553 3.332-19.253 14.81-19.253 12.033 0 17.032 6.48 17.032 25.362v51.096h26.473v-68.128M227.907 4.648c-.185 11.109-4.627 20.55-17.586 20.55-12.59 0-17.772-8.702-18.882-20.55zm-37.024-16.291c0-12.032 6.109-23.696 19.252-23.696 11.109 0 14.255 4.444 16.847 10.182h26.472c-3.332-11.661-13.884-30.915-43.875-30.915-31.656 0-45.353 23.512-45.353 48.689 0 30.175 15.365 51.65 46.28 51.65 32.766 0 44.058-23.883 44.058-47.763 0-3.333 0-5.368-.369-8.147h-63.312m-34.537 92.932V-53.85h-27.583V81.29h27.583M73.678 22.975c-15.18 0-20.548-9.812-20.548-29.434 0-16.107 4.814-28.51 20.179-28.51 13.513 0 20.732 12.031 20.732 30.177 0 16.106-6.108 27.767-20.363 27.767zm-45.91 58.313h26.659V31.861c3.886 6.11 11.847 12.406 27.396 12.406 26.103 0 39.06-21.662 39.06-48.504 0-27.398-14.068-51.835-41.65-51.835-14.255 0-20.55 4.26-25.178 11.294 0-3.15-.556-6.667-1.11-9.072H27.582c.186 10.369.186 20.92.186 31.285V81.29M339.649-89.314c-.055 3.24-1.347 5.99-5.123 5.99-3.668 0-5.177-2.538-5.505-5.99zm-10.79-4.743c0-3.508 1.783-6.904 5.612-6.904 3.236 0 4.155 1.292 4.907 2.966h7.715c-.973-3.4-4.048-9.008-12.784-9.008-9.224 0-13.217 6.85-13.217 14.186 0 8.792 4.477 15.045 13.486 15.045 9.548 0 12.839-6.954 12.839-13.913 0-.97 0-1.565-.107-2.372h-18.45m-18.115 15.64h7.768v-27.939h-7.768zm0 4.53v6.905h7.768v-6.904h-7.768m-17.285-26.915c5.284 0 5.93 4.422 5.93 8.414 0 4.8-.701 8.413-5.768 8.413-4.048 0-6.097-3.18-6.097-8.468 0-5.446 2.104-8.359 5.935-8.359zm13.324 33.819v-31.713c0-2.54 0-5.128.05-7.66h-7.389c-.161.861-.323 2.265-.378 2.91-1.347-2.21-3.774-3.558-7.927-3.558-7.066 0-11.544 5.664-11.544 14.4 0 8.578 4.75 14.83 12.679 14.83 4.041 0 6.202-1.453 6.792-2.694v13.485h7.717m-54.76-18.501c0 2.372 0 4.962-.055 7.065h7.499c.161-.752.268-2.695.323-3.558.914 1.726 3.18 4.204 8.09 4.204 5.608 0 9.22-3.825 9.22-10.84v-17.744h-7.71v16.882c0 3.183-1.026 5.45-4.478 5.45-3.29 0-5.122-1.838-5.122-6.799v-15.533h-7.767v20.873m-11.547-8.146h-3.129c-4.688 0-6.414-1.454-6.414-4.152 0-1.994 1.236-3.72 4.042-3.72 4.911 0 5.501 3.45 5.501 7.12zm7.556-5.5c0-2.695.212-6.581.373-7.227h-7.389c-.216.539-.378 2.049-.378 2.75-1.025-1.565-2.912-3.397-7.872-3.397-6.744 0-9.55 4.422-9.55 8.737 0 6.363 5.072 9.33 13.272 9.33h3.988v1.671c0 1.998-.701 3.94-4.314 3.94-3.236 0-3.993-1.351-4.315-3.4h-7.334c.379 4.962 3.453 8.953 11.975 8.953 7.441-.05 11.544-2.963 11.544-9.654v-11.703m-67.339 13.485c0 2.426 0 4.799-.051 7.226h7.387c.108-.701.27-2.265.323-3.345 1.404 2.053 3.67 3.99 7.768 3.99 3.99 0 6.201-2.098 7.175-4.259 1.672 2.267 4.043 4.26 8.63 4.26 4.85 0 8.844-3.018 8.844-10.245v-18.339h-7.551v17.365c0 2.54-.919 5.017-4.098 5.017-3.236 0-4.531-2.156-4.531-6.419v-15.963h-7.606v17.098c0 2.857-.702 5.233-3.993 5.233-3.126 0-4.638-1.943-4.638-6.743v-15.588h-7.659v20.712m-18.1-.379c0 2.805 0 5.233-.053 7.605h7.606c.105-.647.213-3.396.213-4.906 1.242 3.181 4.206 5.501 8.954 5.552v-7.387c-5.61.161-8.954-1.349-8.954-9.01v-12.187h-7.766v20.333m-22.313-6.364c0-5.394 2.32-8.574 6.042-8.574 3.83 0 5.932 3.18 5.932 8.52 0 5.827-2.157 8.577-6.041 8.577-3.559 0-5.933-2.644-5.933-8.523zm19.797.055c0-8.469-5.071-14.67-13.918-14.67-8.63 0-13.7 6.201-13.7 14.509 0 8.629 5.232 14.72 14.079 14.72 8.198 0 13.539-5.823 13.539-14.56m-55.073 6.85c0 2.372 0 4.962-.053 7.065h7.497c.161-.752.27-2.695.322-3.558.92 1.726 3.185 4.204 8.093 4.204 5.61 0 9.223-3.825 9.223-10.84v-17.744h-7.714v16.882c0 3.183-1.024 5.45-4.477 5.45-3.29 0-5.125-1.838-5.125-6.799v-15.533h-7.766v20.873" transform="matrix(1.33333 0 0 -1.33333 0 318.452)"/></svg>