<svg xml:space="preserve" width="500" height="500" xmlns="http://www.w3.org/2000/svg"><path d="M375-136.161H0v375h375Z" style="fill:#0077d7;fill-opacity:1;fill-rule:nonzero;stroke:none;stroke-width:1.57009" transform="matrix(1.33333 0 0 -1.33333 0 318.452)"/><path style="fill:#bfddf5;fill-opacity:1;fill-rule:nonzero;stroke:none;stroke-width:1.57009" d="M311.77 138.02a20.464 20.464 0 0 0-6.84-1.168c-10.798 0-19.55 8.305-19.55 18.55 0 2.855.68 5.562 1.897 7.979H263.28a38.464 38.464 0 0 1-.836-7.98c0-22.262 19.022-40.31 42.487-40.31 2.328 0 4.613.18 6.84.523zm-6.84 35.93c10.798 0 19.55-8.304 19.55-18.549 0-3.146-.827-6.109-2.284-8.704h24.224c.65 2.804.997 5.715.997 8.704 0 17.17-11.314 31.829-27.254 37.638v18.217h-21.036V173.12c1.834.54 3.782.83 5.803.83" transform="matrix(1.33333 0 0 -1.33333 0 318.452)"/><path style="fill:#fff;fill-opacity:1;fill-rule:nonzero;stroke:none;stroke-width:.15701" d="M209.884 58.707v22.111h-4.098v5.822h4.098v2.43c0 5.768 2.858 9.542 8.898 9.542 1.24 0 2.857-.108 3.56-.323v-6.094c-.433.054-1.024.107-1.62.107-2.264 0-3.126-.807-3.126-3.83V86.64h4.852v-5.822h-4.852V58.707h-7.712m47.605 11.972c0-3.668-.593-7.12-5.5-7.12-2.804 0-4.044 1.726-4.044 3.722 0 2.696 1.725 4.153 6.417 4.153h3.127zm7.551-4.747v11.702c0 6.689-4.1 9.6-11.54 9.655-7.664 0-10.92-3.23-11.773-7.488l7.135-1.465c.323 2.049 1.078 3.398 4.313 3.398 3.614 0 4.314-1.943 4.314-3.937v-1.672h-3.99c-8.197 0-13.267-2.966-13.267-9.33 0-4.314 2.805-8.737 9.545-8.737 4.963 0 6.85 1.834 7.874 3.398 0-.7.162-2.21.378-2.75h7.388c-.162.648-.377 4.53-.377 7.226m74.61 9.815c-.054 3.236-1.348 5.987-5.122 5.987-3.668 0-5.179-2.536-5.502-5.987zm-10.786-4.745c0-3.506 1.78-6.902 5.609-6.902 3.236 0 4.153 1.292 4.908 2.964h7.712c-.972-3.397-4.044-9.006-12.782-9.006-9.221 0-13.212 6.849-13.212 14.184 0 8.79 4.476 15.047 13.482 15.047 9.546 0 12.836-6.957 12.836-13.914 0-.97 0-1.564-.109-2.373h-18.444m-8.403-3.29c-.917-4.637-4.206-9.654-12.512-9.654-8.681 0-13.157 5.987-13.157 14.4 0 8.25 5.015 14.83 13.535 14.83 9.383 0 12.026-6.795 12.134-9.922h-7.495c-.486 2.264-1.78 3.828-4.8 3.828-3.56 0-5.555-3.075-5.555-8.466 0-5.987 2.157-8.683 5.5-8.683 2.697 0 4.1 1.564 4.8 3.668h7.55m-52.31 11.863c0 2.373 0 4.962-.054 7.066h7.496c.161-.755.27-2.698.323-3.56.917 1.726 3.183 4.207 8.09 4.207 5.61 0 9.222-3.83 9.222-10.84V58.705h-7.712v16.88c0 3.183-1.024 5.447-4.475 5.447-3.291 0-5.125-1.834-5.125-6.794V58.705h-7.766v20.871m-43.626-.538c0 2.802 0 5.23-.055 7.604h7.604c.108-.649.216-3.4.216-4.908 1.24 3.18 4.207 5.5 8.952 5.555v-7.39c-5.609.163-8.952-1.346-8.952-9.005V58.705h-7.765v20.333M347.23-26.083c0-9.069 0-19.253.186-27.767h-25.92c-.369 2.592-.554 7.776-.74 11.107-5.738-9.626-14.069-13.329-26.472-13.329-19.438 0-31.842 11.848-31.842 35.544v62.573h26.473V-15.16c0-10.553 3.332-19.253 14.81-19.253 12.033 0 17.032 6.48 17.032 25.362v51.096h26.473v-68.128M227.907 4.648c-.185 11.109-4.627 20.548-17.586 20.548-12.59 0-17.772-8.701-18.882-20.548zm-37.024-16.291c0-12.032 6.109-23.696 19.252-23.696 11.109 0 14.255 4.444 16.847 10.182h26.472c-3.332-11.661-13.884-30.915-43.875-30.915-31.656 0-45.353 23.512-45.353 48.687 0 30.177 15.365 51.652 46.28 51.652 32.766 0 44.058-23.883 44.058-47.763 0-3.333 0-5.368-.369-8.147h-63.312m-34.537 92.932V-53.85h-27.583V81.29h27.583M73.678 22.975c-15.18 0-20.548-9.812-20.548-29.434 0-16.108 4.814-28.51 20.179-28.51 13.513 0 20.732 12.031 20.732 30.175 0 16.108-6.108 27.769-20.363 27.769zm-45.91 58.313h26.659V31.861c3.886 6.11 11.847 12.406 27.396 12.406 26.103 0 39.06-21.662 39.06-48.504 0-27.398-14.068-51.835-41.65-51.835-14.255 0-20.55 4.26-25.178 11.294 0-3.15-.556-6.667-1.11-9.072H27.582c.186 10.367.186 20.92.186 31.284V81.289M334.04-100.8c5.285 0 5.93 4.422 5.93 8.414 0 4.798-.7 8.413-5.768 8.413-4.046 0-6.095-3.18-6.095-8.47 0-5.444 2.103-8.357 5.933-8.357zm13.324 33.819v-31.715c0-2.537 0-5.126.05-7.66h-7.387c-.162.863-.324 2.267-.379 2.912-1.348-2.21-3.776-3.558-7.929-3.558-7.065 0-11.541 5.662-11.541 14.4 0 8.577 4.747 14.83 12.676 14.83 4.043 0 6.202-1.453 6.794-2.694v13.485h7.716m-43.94-19.04c0 2.804 0 5.232-.056 7.604h7.606c.11-.647.216-3.397.216-4.906 1.242 3.18 4.21 5.501 8.953 5.552v-7.387c-5.607.16-8.953-1.349-8.953-9.01v-12.188h-7.767v20.334m-22.314-6.364c0-5.394 2.32-8.576 6.042-8.576 3.83 0 5.933 3.182 5.933 8.52 0 5.83-2.159 8.579-6.04 8.579-3.563 0-5.935-2.644-5.935-8.523zm19.794.055c0-8.469-5.068-14.67-13.914-14.67-8.63 0-13.702 6.201-13.702 14.509 0 8.629 5.233 14.72 14.08 14.72 8.196 0 13.536-5.823 13.536-14.56m-55.066 6.85c0 2.371 0 4.96-.055 7.065h7.498c.162-.757.269-2.695.324-3.559.914 1.727 3.18 4.205 8.089 4.205 5.608 0 9.221-3.826 9.221-10.84v-17.745h-7.71v16.881c0 3.185-1.026 5.45-4.477 5.45-3.29 0-5.123-1.836-5.123-6.797v-15.534h-7.767v20.874" transform="matrix(1.33333 0 0 -1.33333 0 318.452)"/></svg>