<svg xml:space="preserve" width="500" height="500" xmlns="http://www.w3.org/2000/svg"><path d="M375-136.161H0v375h375Z" style="fill:#0077d7;fill-opacity:1;fill-rule:nonzero;stroke:none;stroke-width:1.57009" transform="matrix(1.33333 0 0 -1.33333 0 318.452)"/><path style="fill:#bfddf5;fill-opacity:1;fill-rule:nonzero;stroke:none;stroke-width:1.57009" d="M311.77 138.02a20.464 20.464 0 0 0-6.84-1.168c-10.798 0-19.55 8.305-19.55 18.55 0 2.855.68 5.562 1.897 7.979H263.28a38.464 38.464 0 0 1-.836-7.98c0-22.262 19.022-40.31 42.487-40.31 2.328 0 4.613.18 6.84.523zm-6.84 35.93c10.798 0 19.55-8.304 19.55-18.549 0-3.146-.827-6.109-2.284-8.704h24.224c.65 2.804.997 5.715.997 8.704 0 17.17-11.314 31.829-27.254 37.638v18.217h-21.036V173.12c1.834.54 3.782.83 5.803.83" transform="matrix(1.33333 0 0 -1.33333 0 318.452)"/><path style="fill:#fff;fill-opacity:1;fill-rule:nonzero;stroke:none;stroke-width:.15701" d="M209.884 58.707v22.111h-4.098v5.822h4.098v2.43c0 5.768 2.858 9.542 8.898 9.542 1.24 0 2.857-.108 3.56-.323v-6.094c-.433.055-1.024.107-1.62.107-2.264 0-3.126-.807-3.126-3.828V86.64h4.852v-5.822h-4.852V58.707h-7.712m47.605 11.972c0-3.668-.593-7.12-5.5-7.12-2.804 0-4.044 1.726-4.044 3.722 0 2.696 1.725 4.153 6.417 4.153h3.127zm7.551-4.747v11.702c0 6.689-4.1 9.6-11.54 9.655-7.664 0-10.92-3.23-11.773-7.488l7.135-1.465c.323 2.049 1.078 3.398 4.313 3.398 3.614 0 4.314-1.943 4.314-3.937v-1.672h-3.99c-8.197 0-13.267-2.966-13.267-9.33 0-4.314 2.805-8.737 9.545-8.737 4.963 0 6.85 1.834 7.874 3.398 0-.7.162-2.21.378-2.75h7.388c-.162.648-.377 4.53-.377 7.226m74.61 9.815c-.054 3.236-1.348 5.987-5.122 5.987-3.668 0-5.179-2.534-5.502-5.987zm-10.786-4.745c0-3.506 1.78-6.904 5.609-6.904 3.236 0 4.153 1.296 4.908 2.966h7.712c-.972-3.397-4.044-9.006-12.782-9.006-9.221 0-13.212 6.85-13.212 14.184 0 8.79 4.476 15.047 13.482 15.047 9.546 0 12.836-6.957 12.836-13.914 0-.97 0-1.564-.109-2.373h-18.444m-8.403-3.29c-.917-4.637-4.206-9.654-12.512-9.654-8.681 0-13.157 5.987-13.157 14.4 0 8.25 5.015 14.83 13.535 14.83 9.383 0 12.026-6.795 12.134-9.922h-7.495c-.486 2.264-1.78 3.828-4.8 3.828-3.56 0-5.555-3.073-5.555-8.466 0-5.987 2.157-8.683 5.5-8.683 2.697 0 4.1 1.564 4.8 3.668h7.55m-52.31 11.863c0 2.373 0 4.962-.054 7.066h7.496c.161-.755.27-2.698.323-3.56.917 1.726 3.183 4.207 8.09 4.207 5.61 0 9.222-3.83 9.222-10.84V58.707h-7.712v16.878c0 3.183-1.024 5.447-4.475 5.447-3.291 0-5.125-1.832-5.125-6.794V58.707h-7.766v20.87m-43.626-.54c0 2.805 0 5.232-.055 7.605h7.604c.108-.649.216-3.4.216-4.908 1.24 3.18 4.207 5.5 8.952 5.555v-7.39c-5.609.163-8.952-1.346-8.952-9.005V58.707h-7.765v20.33M347.23-26.082c0-9.069 0-19.253.186-27.767h-25.92c-.369 2.592-.554 7.776-.74 11.107-5.738-9.626-14.069-13.329-26.472-13.329-19.438 0-31.842 11.848-31.842 35.544v62.573h26.473V-15.16c0-10.553 3.332-19.253 14.81-19.253 12.033 0 17.032 6.48 17.032 25.362v51.096h26.473v-68.128M227.907 4.648c-.185 11.109-4.627 20.548-17.586 20.548-12.59 0-17.772-8.7-18.882-20.548zm-37.024-16.291c0-12.032 6.109-23.696 19.252-23.696 11.109 0 14.255 4.444 16.847 10.182h26.472c-3.332-11.661-13.884-30.915-43.875-30.915-31.656 0-45.353 23.512-45.353 48.689 0 30.175 15.365 51.65 46.28 51.65 32.766 0 44.058-23.883 44.058-47.763 0-3.333 0-5.368-.369-8.147h-63.312m-34.537 92.932V-53.85h-27.583V81.29h27.583M73.678 22.975c-15.18 0-20.548-9.812-20.548-29.434 0-16.108 4.814-28.51 20.179-28.51 13.513 0 20.732 12.031 20.732 30.175 0 16.108-6.108 27.769-20.363 27.769zm-45.91 58.313h26.659V31.861c3.886 6.11 11.847 12.406 27.396 12.406 26.103 0 39.06-21.662 39.06-48.504 0-27.398-14.068-51.835-41.65-51.835-14.255 0-20.55 4.26-25.178 11.294 0-3.15-.556-6.667-1.11-9.072H27.582c.186 10.367.186 20.92.186 31.284V81.289M330.373-97.948c.59-2.266 2.428-3.503 5.285-3.503 2.86 0 3.885 1.026 3.885 2.75 0 1.778-1.186 2.48-5.179 3.454-9.114 2.26-10.571 5.067-10.571 9.003 0 4.102 2.856 8.468 11.273 8.468 8.47 0 11.38-4.638 11.598-8.412h-7.338c-.267 1.024-.969 2.967-4.583 2.967-2.537 0-3.401-1.135-3.401-2.372 0-1.404.864-2.049 5.395-3.129 9.33-2.16 10.68-5.34 10.68-9.443 0-4.638-3.558-8.84-12.027-8.84-8.524 0-11.975 4.097-12.622 9.057h7.605m-34.732 12.46c0 2.373 0 4.962-.055 7.065h7.499c.162-.756.267-2.693.323-3.557.914 1.725 3.18 4.204 8.09 4.204 5.608 0 9.22-3.825 9.22-10.84v-17.744h-7.712v16.881c0 3.185-1.023 5.45-4.476 5.45-3.29 0-5.122-1.837-5.122-6.797v-15.534h-7.767v20.873m-11.546-8.145h-3.13c-4.688 0-6.415-1.454-6.415-4.154 0-1.994 1.237-3.72 4.043-3.72 4.911 0 5.502 3.453 5.502 7.12zm7.553-5.501c0-2.696.214-6.58.376-7.227h-7.39c-.216.54-.378 2.049-.378 2.75-1.025-1.565-2.912-3.396-7.874-3.396-6.742 0-9.547 4.42-9.547 8.736 0 6.364 5.071 9.331 13.272 9.331h3.988v1.67c0 1.998-.702 3.942-4.315 3.942-3.236 0-3.993-1.352-4.315-3.401h-7.334c.379 4.965 3.453 8.952 11.976 8.952 7.44-.05 11.541-2.962 11.541-9.654v-11.703m-27.542 32.687-8.631-7.983h-6.742l6.203 7.983zm-5.825-22.87c-.055 3.233-1.347 5.989-5.122 5.989-3.67 0-5.178-2.539-5.506-5.99zm-10.788-4.746c0-3.508 1.78-6.904 5.611-6.904 3.234 0 4.153 1.293 4.905 2.968h7.717c-.975-3.401-4.048-9.008-12.784-9.008-9.226 0-13.217 6.847-13.217 14.186 0 8.791 4.477 15.044 13.484 15.044 9.55 0 12.839-6.955 12.839-13.913 0-.97 0-1.564-.105-2.373h-18.45m-18.115-12.298v39.375h7.766v-39.375h-7.766m-18.076 20.334c0 2.805 0 5.233-.055 7.603h7.604c.111-.645.218-3.396.218-4.904 1.24 3.18 4.208 5.501 8.953 5.551v-7.388c-5.609.162-8.953-1.348-8.953-9.008v-12.188h-7.767v20.334m-22.313-6.365c0-5.395 2.32-8.575 6.044-8.575 3.826 0 5.93 3.18 5.93 8.52 0 5.828-2.156 8.578-6.042 8.578-3.558 0-5.932-2.644-5.932-8.523zm19.796.055c0-8.468-5.071-14.67-13.914-14.67-8.633 0-13.702 6.202-13.702 14.51 0 8.628 5.231 14.72 14.075 14.72 8.201 0 13.541-5.823 13.541-14.56" transform="matrix(1.33333 0 0 -1.33333 0 318.452)"/></svg>