<svg xml:space="preserve" width="500" height="500" xmlns="http://www.w3.org/2000/svg"><path d="M375-136.16H0v375h375Z" style="fill:#0077d7;fill-opacity:1;fill-rule:nonzero;stroke:none;stroke-width:1.57009" transform="matrix(1.33333 0 0 -1.33333 0 318.452)"/><path style="fill:#bfddf5;fill-opacity:1;fill-rule:nonzero;stroke:none;stroke-width:1.57009" d="M311.77 138.02a20.464 20.464 0 0 0-6.84-1.168c-10.797 0-19.55 8.305-19.55 18.55 0 2.856.681 5.562 1.898 7.979h-23.999a38.464 38.464 0 0 1-.835-7.98c0-22.262 19.021-40.31 42.486-40.31 2.329 0 4.613.18 6.84.523zm-6.84 35.93c10.798 0 19.551-8.304 19.551-18.549 0-3.146-.827-6.109-2.284-8.704h24.223c.65 2.804.997 5.715.997 8.704 0 17.17-11.314 31.83-27.254 37.639v18.216h-21.036V173.12c1.834.54 3.783.83 5.803.83" transform="matrix(1.33333 0 0 -1.33333 0 318.452)"/><path style="fill:#fff;fill-opacity:1;fill-rule:nonzero;stroke:none;stroke-width:.15701" d="M209.885 58.706v22.11h-4.098v5.824h4.098v2.428c0 5.769 2.857 9.544 8.897 9.544 1.24 0 2.858-.109 3.558-.324v-6.093c-.43.054-1.022.106-1.617.106-2.264 0-3.126-.807-3.126-3.83V86.64h4.852v-5.824h-4.852v-22.11h-7.712m47.605 11.97c0-3.666-.593-7.117-5.5-7.117-2.804 0-4.044 1.726-4.044 3.721 0 2.696 1.725 4.151 6.417 4.151h3.127zm7.55-4.745v11.704c0 6.687-4.099 9.598-11.54 9.653-7.663 0-10.92-3.23-11.772-7.488l7.135-1.465c.323 2.05 1.078 3.398 4.313 3.398 3.614 0 4.314-1.942 4.314-3.936v-1.672h-3.99c-8.197 0-13.267-2.966-13.267-9.33 0-4.315 2.804-8.738 9.545-8.738 4.963 0 6.85 1.834 7.874 3.398 0-.7.162-2.21.378-2.75h7.388c-.162.648-.377 4.53-.377 7.226m74.611 9.815c-.055 3.236-1.349 5.987-5.123 5.987-3.668 0-5.178-2.536-5.502-5.987zm-10.787-4.745c0-3.506 1.781-6.902 5.609-6.902 3.236 0 4.153 1.294 4.908 2.964h7.712c-.972-3.396-4.044-9.006-12.782-9.006-9.221 0-13.212 6.85-13.212 14.185 0 8.79 4.476 15.046 13.482 15.046 9.546 0 12.836-6.957 12.836-13.914 0-.97 0-1.564-.109-2.373h-18.444m-8.403-3.29c-.917-4.637-4.206-9.654-12.51-9.654-8.684 0-13.16 5.987-13.16 14.4 0 8.25 5.016 14.831 13.537 14.831 9.382 0 12.025-6.795 12.133-9.923h-7.495c-.486 2.266-1.78 3.828-4.8 3.828-3.56 0-5.555-3.073-5.555-8.466 0-5.987 2.157-8.683 5.5-8.683 2.697 0 4.1 1.564 4.8 3.666h7.55m-52.31 11.866c0 2.372 0 4.961-.054 7.065h7.495c.162-.755.27-2.697.324-3.56.917 1.726 3.183 4.207 8.09 4.207 5.61 0 9.222-3.83 9.222-10.84V58.704h-7.712v16.88c0 3.183-1.024 5.447-4.477 5.447-3.29 0-5.123-1.834-5.123-6.794V58.704h-7.766v20.872m-43.627-.539c0 2.804 0 5.23-.055 7.604h7.604c.109-.648.217-3.4.217-4.908 1.24 3.181 4.206 5.5 8.951 5.555v-7.389c-5.608.162-8.95-1.347-8.95-9.006V58.704h-7.767v20.333m122.709-105.12c0-9.07 0-19.254.185-27.768h-25.92c-.368 2.592-.554 7.776-.739 11.106-5.739-9.628-14.07-13.328-26.473-13.328-19.438 0-31.842 11.848-31.842 35.543v62.574h26.473v-57.205c0-10.553 3.332-19.254 14.81-19.254 12.033 0 17.032 6.48 17.032 25.363v51.096h26.474v-68.127M227.908 4.647c-.185 11.109-4.627 20.55-17.587 20.55-12.589 0-17.772-8.702-18.882-20.55zm-37.025-16.291c0-12.032 6.11-23.696 19.253-23.696 11.108 0 14.255 4.443 16.847 10.18h26.472c-3.332-11.66-13.884-30.913-43.875-30.913-31.655 0-45.354 23.512-45.354 48.689 0 30.174 15.365 51.65 46.28 51.65 32.767 0 44.06-23.883 44.06-47.763 0-3.333 0-5.368-.37-8.147h-63.313m-34.536 92.933v-135.14h-27.583v135.14h27.583M73.678 22.975c-15.18 0-20.547-9.81-20.547-29.434 0-16.109 4.812-28.51 20.178-28.51 13.513 0 20.733 12.03 20.733 30.177 0 16.106-6.11 27.767-20.364 27.767zm-45.91 58.314h26.659V31.86c3.886 6.11 11.847 12.406 27.397 12.406 26.102 0 39.06-21.662 39.06-48.504 0-27.398-14.069-51.835-41.651-51.835-14.255 0-20.55 4.26-25.178 11.293 0-3.15-.556-6.666-1.11-9.071H27.582c.186 10.367.186 20.92.186 31.283V81.29m313.674-170.61c-.055 3.237-1.349 5.991-5.123 5.991-3.67 0-5.178-2.537-5.505-5.99zm-10.79-4.743c0-3.507 1.78-6.905 5.612-6.905 3.234 0 4.153 1.292 4.905 2.968h7.717c-.974-3.401-4.048-9.008-12.784-9.008-9.226 0-13.217 6.849-13.217 14.186 0 8.79 4.476 15.045 13.484 15.045 9.55 0 12.839-6.955 12.839-13.915 0-.969 0-1.564-.105-2.37h-18.45m-10.315-4.21c0-2.644 0-5.607.055-8.089h-7.549c-.107.757-.162 2.264-.217 3.234-1.67-2.801-4.098-3.881-7.712-3.881-5.663 0-9.276 3.451-9.276 10.357v18.228h7.712v-16.664c0-3.078.969-5.613 4.315-5.613 3.508 0 4.961 1.888 4.961 7.39v14.887h7.711v-19.849m-41.785-2.534c4.75 0 5.828 3.398 5.828 8.47 0 5.394-1.078 8.357-5.666 8.357-4.153 0-6.04-3.453-6.04-8.47 0-4.96 1.835-8.357 5.878-8.357zm5.718-2.59c-1.563-2.532-4.043-3.612-7.767-3.612-6.202 0-11.758 4.638-11.758 14.347 0 9.005 5.395 14.884 12.41 14.884 4.42 0 6.469-1.833 7.115-3.291.055.701.162 1.943.272 2.645h7.28c0-2.372-.053-5.123-.053-7.66v-30.958h-7.499v13.646m-37.406 5.446c.59-2.265 2.428-3.502 5.284-3.502 2.862 0 3.886 1.023 3.886 2.75 0 1.776-1.186 2.478-5.178 3.451-9.115 2.263-10.574 5.067-10.574 9.005 0 4.101 2.858 8.468 11.275 8.468 8.47 0 11.38-4.639 11.594-8.413h-7.334c-.268 1.025-.969 2.968-4.583 2.968-2.537 0-3.4-1.136-3.4-2.373 0-1.402.863-2.049 5.394-3.13 9.331-2.158 10.68-5.338 10.68-9.44 0-4.638-3.56-8.843-12.027-8.843-8.524 0-11.975 4.098-12.622 9.06h7.605m-17.23 4.314h-3.13c-4.687 0-6.415-1.453-6.415-4.153 0-1.994 1.238-3.72 4.043-3.72 4.912 0 5.502 3.452 5.502 7.121zm7.554-5.502c0-2.694.213-6.58.375-7.225h-7.389c-.217.538-.378 2.047-.378 2.749-1.026-1.563-2.913-3.396-7.874-3.396-6.742 0-9.548 4.421-9.548 8.736 0 6.364 5.071 9.331 13.272 9.331h3.988v1.67c0 2-.702 3.942-4.315 3.942-3.236 0-3.992-1.352-4.314-3.4h-7.334c.378 4.965 3.45 8.952 11.975 8.952 7.44-.05 11.542-2.963 11.542-9.655v-11.704M197.78-83.98c-4.422 0-5.985-2.858-5.985-8.574 0-4.695 1.402-8.308 5.878-8.308 3.936 0 6.042 3.508 6.042 8.79 0 4.694-1.782 8.092-5.935 8.092zm-13.374 16.991h7.767V-81.39c1.13 1.78 3.451 3.613 7.98 3.613 7.605 0 11.38-6.309 11.38-14.131 0-7.984-4.099-15.1-12.133-15.1-4.154 0-5.987 1.242-7.339 3.291 0-.919-.161-1.944-.321-2.644h-7.39c.056 3.018.056 6.095.056 9.113v30.26m-29.759-30.96c.591-2.266 2.428-3.503 5.284-3.503 2.858 0 3.881 1.023 3.881 2.75 0 1.776-1.185 2.478-5.178 3.451-9.114 2.263-10.568 5.067-10.568 9.005 0 4.101 2.857 8.468 11.27 8.468 8.469 0 11.38-4.639 11.598-8.413h-7.334c-.271 1.025-.973 2.968-4.588 2.968-2.533 0-3.396-1.136-3.396-2.373 0-1.402.863-2.049 5.395-3.13 9.331-2.158 10.678-5.338 10.678-9.44 0-4.638-3.562-8.843-12.025-8.843-8.524 0-11.976 4.098-12.623 9.06h7.606m-25.38 19.525c2.857-9.654 5.39-18.228 5.824-20.818h.051c.596 2.802 2.266 9.058 5.557 20.818h7.716l-9.387-28.747c-2.644-8.039-4.91-10.411-11.597-10.411-.702 0-2.266.055-3.614.216v6.202c.54-.054 1.348-.11 1.998-.11 2.857 0 4.26.974 5.34 4.048l-10.195 28.802h8.307M113.39-93.635h-3.129c-4.693 0-6.42-1.453-6.42-4.153 0-1.994 1.242-3.72 4.048-3.72 4.91 0 5.501 3.452 5.501 7.121zm7.55-5.502c0-2.694.217-6.58.379-7.225h-7.389c-.217.538-.378 2.047-.378 2.749-1.025-1.563-2.912-3.396-7.873-3.396-6.743 0-9.548 4.421-9.548 8.736 0 6.364 5.071 9.331 13.268 9.331h3.991v1.67c0 2-.701 3.942-4.315 3.942-3.235 0-3.992-1.352-4.315-3.4h-7.333c.374 4.965 3.452 8.952 11.972 8.952 7.443-.05 11.541-2.963 11.541-9.655v-11.704M81.697-83.98c-4.37 0-5.934-2.858-5.934-8.47 0-5.338 1.458-8.412 5.61-8.412 4.1 0 6.097 3.184 6.097 8.846 0 5.123-2.053 8.036-5.773 8.036zm-13.323-33.062v31.876c0 2.264 0 4.476-.05 6.742h7.494c.106-.756.272-2.482.272-3.508 1.186 2.054 3.665 4.154 8.09 4.154 6.31 0 11.108-5.284 11.108-13.915 0-9.871-5.39-15.316-12.132-15.316-3.941 0-5.99 1.509-7.066 3.129v-13.162h-7.716" transform="matrix(1.33333 0 0 -1.33333 0 318.452)"/></svg>