<svg xml:space="preserve" width="500" height="500" xmlns="http://www.w3.org/2000/svg"><path d="M375-136.161H0v375h375Z" style="fill:#0077d7;fill-opacity:1;fill-rule:nonzero;stroke:none;stroke-width:1.57009" transform="matrix(1.33333 0 0 -1.33333 0 318.452)"/><path style="fill:#bfddf5;fill-opacity:1;fill-rule:nonzero;stroke:none;stroke-width:1.57009" d="M311.77 138.02a20.464 20.464 0 0 0-6.84-1.168c-10.798 0-19.55 8.305-19.55 18.55 0 2.855.68 5.562 1.897 7.979H263.28a38.464 38.464 0 0 1-.836-7.98c0-22.262 19.022-40.31 42.487-40.31 2.328 0 4.613.18 6.84.523zm-6.84 35.93c10.798 0 19.55-8.304 19.55-18.549 0-3.146-.827-6.109-2.284-8.704h24.224c.65 2.804.997 5.715.997 8.704 0 17.17-11.314 31.829-27.254 37.638v18.217h-21.036V173.12c1.834.54 3.782.83 5.803.83" transform="matrix(1.33333 0 0 -1.33333 0 318.452)"/><path style="fill:#fff;fill-opacity:1;fill-rule:nonzero;stroke:none;stroke-width:.15701" d="M209.884 58.707v22.111h-4.098v5.822h4.098v2.43c0 5.768 2.858 9.542 8.898 9.542 1.24 0 2.857-.108 3.56-.323v-6.094c-.433.054-1.024.107-1.62.107-2.264 0-3.126-.807-3.126-3.83V86.64h4.852v-5.822h-4.852V58.707h-7.712m47.605 11.972c0-3.668-.593-7.12-5.5-7.12-2.804 0-4.044 1.726-4.044 3.722 0 2.696 1.725 4.153 6.417 4.153h3.127zm7.551-4.747v11.702c0 6.689-4.1 9.6-11.54 9.655-7.664 0-10.92-3.23-11.773-7.488l7.135-1.465c.323 2.049 1.078 3.398 4.313 3.398 3.614 0 4.314-1.943 4.314-3.937v-1.672h-3.99c-8.197 0-13.267-2.966-13.267-9.33 0-4.314 2.805-8.737 9.545-8.737 4.963 0 6.85 1.834 7.874 3.398 0-.7.162-2.21.378-2.75h7.388c-.162.648-.377 4.53-.377 7.226m74.61 9.815c-.054 3.236-1.348 5.987-5.122 5.987-3.668 0-5.179-2.536-5.502-5.987zm-10.786-4.745c0-3.506 1.78-6.902 5.609-6.902 3.236 0 4.153 1.292 4.908 2.964h7.712c-.972-3.397-4.044-9.006-12.782-9.006-9.221 0-13.212 6.849-13.212 14.184 0 8.79 4.476 15.047 13.482 15.047 9.546 0 12.836-6.957 12.836-13.914 0-.97 0-1.564-.109-2.373h-18.444m-8.403-3.29c-.917-4.637-4.206-9.654-12.512-9.654-8.681 0-13.157 5.987-13.157 14.4 0 8.25 5.015 14.83 13.535 14.83 9.383 0 12.026-6.795 12.134-9.922h-7.495c-.486 2.264-1.78 3.828-4.8 3.828-3.56 0-5.555-3.075-5.555-8.466 0-5.987 2.157-8.683 5.5-8.683 2.697 0 4.1 1.564 4.8 3.668h7.55m-52.31 11.863c0 2.373 0 4.962-.054 7.066h7.496c.161-.755.27-2.698.323-3.56.917 1.726 3.183 4.207 8.09 4.207 5.61 0 9.222-3.83 9.222-10.84V58.705h-7.712v16.88c0 3.183-1.024 5.447-4.475 5.447-3.291 0-5.125-1.834-5.125-6.794V58.705h-7.766v20.871m-43.626-.538c0 2.802 0 5.23-.055 7.604h7.604c.108-.649.216-3.4.216-4.908 1.24 3.18 4.207 5.5 8.952 5.555v-7.39c-5.609.163-8.952-1.346-8.952-9.005V58.705h-7.765v20.333M347.23-26.083c0-9.069 0-19.253.186-27.767h-25.92c-.369 2.592-.554 7.776-.74 11.107-5.738-9.626-14.069-13.329-26.472-13.329-19.438 0-31.842 11.848-31.842 35.544v62.573h26.473V-15.16c0-10.553 3.332-19.253 14.81-19.253 12.033 0 17.032 6.48 17.032 25.362v51.096h26.473v-68.128M227.907 4.648c-.185 11.109-4.627 20.548-17.586 20.548-12.59 0-17.772-8.701-18.882-20.548zm-37.024-16.291c0-12.032 6.109-23.696 19.252-23.696 11.109 0 14.255 4.444 16.847 10.182h26.472c-3.332-11.661-13.884-30.915-43.875-30.915-31.656 0-45.353 23.512-45.353 48.687 0 30.177 15.365 51.652 46.28 51.652 32.766 0 44.058-23.883 44.058-47.763 0-3.333 0-5.368-.369-8.147h-63.312m-34.537 92.932V-53.85h-27.583V81.29h27.583M73.678 22.975c-15.18 0-20.548-9.812-20.548-29.434 0-16.108 4.814-28.51 20.179-28.51 13.513 0 20.732 12.031 20.732 30.175 0 16.108-6.108 27.769-20.363 27.769zm-45.91 58.313h26.659V31.861c3.886 6.11 11.847 12.406 27.396 12.406 26.103 0 39.06-21.662 39.06-48.504 0-27.398-14.068-51.835-41.65-51.835-14.255 0-20.55 4.26-25.178 11.294 0-3.15-.556-6.667-1.11-9.072H27.582c.186 10.367.186 20.92.186 31.284V81.289M347.362-98.266c0-2.646 0-5.61.055-8.091h-7.551c-.107.756-.162 2.265-.217 3.234-1.67-2.804-4.098-3.881-7.712-3.881-5.662 0-9.276 3.452-9.276 10.356v18.23h7.712v-16.666c0-3.073.969-5.61 4.315-5.61 3.507 0 4.961 1.887 4.961 7.387v14.888h7.713v-19.847m-46.841 5.878c0-5.395 2.322-8.575 6.042-8.575 3.83 0 5.935 3.18 5.935 8.52 0 5.828-2.16 8.579-6.042 8.579-3.563 0-5.935-2.644-5.935-8.524zm19.794.055c0-8.468-5.068-14.672-13.914-14.672-8.63 0-13.702 6.204-13.702 14.51 0 8.631 5.233 14.723 14.08 14.723 8.196 0 13.536-5.825 13.536-14.561M275.33-78.42h4.314v7.55h7.713v-7.55h5.5v-5.823h-5.5V-98.05c0-2.106.645-2.913 2.967-2.913.429 0 1.186 0 1.726.05v-5.282c-1.51-.54-3.613-.54-5.178-.54-5.45 0-7.228 2.912-7.228 7.821v14.672h-4.314v5.823m-9.03 0h7.767v-27.938H266.3zm0 4.533v6.904h7.767v-6.904H266.3m-22.344-18.502c0-5.395 2.32-8.575 6.04-8.575 3.831 0 5.935 3.18 5.935 8.52 0 5.828-2.159 8.579-6.04 8.579-3.562 0-5.935-2.644-5.935-8.524zm19.794.055c0-8.468-5.068-14.672-13.914-14.672-8.63 0-13.702 6.204-13.702 14.51 0 8.631 5.233 14.723 14.08 14.723 8.196 0 13.536-5.825 13.536-14.561m-42.3 8.357c-4.37 0-5.935-2.856-5.935-8.467 0-5.34 1.46-8.413 5.612-8.413 4.098 0 6.092 3.184 6.092 8.846 0 5.124-2.049 8.034-5.769 8.034zm-13.323-33.06v31.875c0 2.265 0 4.476-.055 6.742h7.498c.107-.752.269-2.478.269-3.506 1.185 2.052 3.67 4.153 8.089 4.153 6.313 0 11.113-5.285 11.113-13.914 0-9.872-5.395-15.319-12.137-15.319-3.936 0-5.985 1.511-7.065 3.13v-13.16h-7.712" transform="matrix(1.33333 0 0 -1.33333 0 318.452)"/></svg>