<svg xml:space="preserve" width="500" height="500" xmlns="http://www.w3.org/2000/svg"><path d="M375-136.16H0v375h375Z" style="fill:#0077d7;fill-opacity:1;fill-rule:nonzero;stroke:none;stroke-width:1.57009" transform="matrix(1.33333 0 0 -1.33333 0 318.452)"/><path style="fill:#bfddf5;fill-opacity:1;fill-rule:nonzero;stroke:none;stroke-width:1.57009" d="M311.77 138.02a20.464 20.464 0 0 0-6.84-1.168c-10.797 0-19.55 8.305-19.55 18.55 0 2.856.681 5.562 1.898 7.979h-23.999a38.464 38.464 0 0 1-.835-7.98c0-22.262 19.021-40.31 42.486-40.31 2.329 0 4.613.18 6.84.523zm-6.84 35.93c10.798 0 19.551-8.304 19.551-18.549 0-3.146-.827-6.109-2.284-8.704h24.223c.65 2.804.997 5.715.997 8.704 0 17.17-11.314 31.83-27.254 37.639v18.216h-21.036V173.12c1.834.54 3.783.83 5.803.83" transform="matrix(1.33333 0 0 -1.33333 0 318.452)"/><path style="fill:#fff;fill-opacity:1;fill-rule:nonzero;stroke:none;stroke-width:.15701" d="M209.885 58.706v22.112h-4.098v5.822h4.098v2.428c0 5.769 2.857 9.544 8.897 9.544 1.24 0 2.86-.109 3.56-.324v-6.093c-.432.054-1.024.106-1.619.106-2.264 0-3.126-.807-3.126-3.828V86.64h4.852v-5.822h-4.852V58.706h-7.712m47.605 11.972c0-3.668-.593-7.119-5.5-7.119-2.804 0-4.044 1.726-4.044 3.721 0 2.696 1.725 4.153 6.417 4.153h3.127zm7.55-4.747v11.704c0 6.687-4.097 9.598-11.54 9.653-7.663 0-10.92-3.23-11.772-7.488l7.135-1.465c.323 2.05 1.078 3.398 4.313 3.398 3.614 0 4.314-1.942 4.314-3.936v-1.672h-3.99c-8.197 0-13.267-2.966-13.267-9.33 0-4.315 2.804-8.738 9.545-8.738 4.963 0 6.85 1.834 7.874 3.398 0-.7.162-2.21.378-2.75h7.388c-.162.648-.377 4.53-.377 7.226m74.611 9.815c-.053 3.236-1.349 5.987-5.123 5.987-3.668 0-5.178-2.534-5.502-5.987zm-10.787-4.745c0-3.506 1.781-6.903 5.609-6.903 3.236 0 4.153 1.295 4.908 2.965h7.712c-.972-3.397-4.044-9.006-12.782-9.006-9.221 0-13.212 6.85-13.212 14.185 0 8.79 4.476 15.046 13.482 15.046 9.546 0 12.836-6.957 12.836-13.914 0-.97 0-1.564-.109-2.373h-18.444m-8.403-3.29c-.917-4.637-4.206-9.654-12.51-9.654-8.684 0-13.16 5.987-13.16 14.4 0 8.25 5.016 14.831 13.537 14.831 9.382 0 12.025-6.795 12.133-9.923h-7.495c-.486 2.266-1.78 3.83-4.8 3.83-3.56 0-5.555-3.075-5.555-8.468 0-5.987 2.157-8.683 5.5-8.683 2.697 0 4.1 1.564 4.8 3.668h7.55m-52.31 11.864c0 2.374 0 4.961-.054 7.065h7.495c.162-.755.27-2.697.324-3.56.917 1.726 3.183 4.207 8.09 4.207 5.61 0 9.222-3.83 9.222-10.84V58.706h-7.712v16.878c0 3.183-1.024 5.447-4.475 5.447-3.291 0-5.125-1.832-5.125-6.794V58.706h-7.766v20.87m-43.627-.539c0 2.804 0 5.232-.055 7.604h7.604c.109-.648.217-3.4.217-4.908 1.24 3.181 4.206 5.5 8.951 5.555v-7.389c-5.608.162-8.95-1.347-8.95-9.006V58.706h-7.767v20.331M347.233-26.084c0-9.069 0-19.253.185-27.767h-25.92c-.368 2.592-.554 7.776-.739 11.106-5.739-9.626-14.07-13.328-26.473-13.328-19.438 0-31.842 11.848-31.842 35.543v62.574h26.473v-57.205c0-10.553 3.332-19.253 14.81-19.253 12.033 0 17.032 6.48 17.032 25.362v51.096h26.474v-68.128M227.908 4.647c-.185 11.109-4.627 20.548-17.587 20.548-12.589 0-17.772-8.7-18.882-20.548zm-37.025-16.291c0-12.032 6.11-23.696 19.253-23.696 11.108 0 14.255 4.443 16.847 10.182h26.472c-3.332-11.661-13.884-30.915-43.875-30.915-31.655 0-45.354 23.512-45.354 48.689 0 30.175 15.365 51.65 46.282 51.65 32.765 0 44.057-23.883 44.057-47.763 0-3.333 0-5.368-.369-8.147h-63.313m-34.536 92.933v-135.14h-27.584v135.14h27.584M73.678 22.975c-15.18 0-20.547-9.812-20.547-29.434 0-16.107 4.813-28.51 20.178-28.51 13.513 0 20.733 12.03 20.733 30.175 0 16.108-6.11 27.769-20.364 27.769zm-45.91 58.314h26.659V31.86c3.886 6.11 11.847 12.406 27.397 12.406 26.102 0 39.06-21.662 39.06-48.504 0-27.398-14.069-51.835-41.651-51.835-14.255 0-20.55 4.26-25.178 11.293 0-3.15-.556-6.666-1.11-9.071H27.583c.184 10.368.184 20.92.184 31.285V81.29M339.65-89.318c-.055 3.238-1.347 5.99-5.122 5.99-3.669 0-5.178-2.538-5.506-5.99zm-10.788-4.744c0-3.507 1.78-6.905 5.611-6.905 3.235 0 4.153 1.292 4.905 2.967h7.716c-.972-3.4-4.046-9.007-12.782-9.007-9.226 0-13.218 6.848-13.218 14.185 0 8.792 4.477 15.045 13.485 15.045 9.549 0 12.838-6.954 12.838-13.914 0-.969 0-1.564-.105-2.37h-18.45m-8.35-3.292c-.919-4.638-4.21-9.654-12.515-9.654-8.681 0-13.158 5.985-13.158 14.399 0 8.256 5.017 14.831 13.536 14.831 9.386 0 12.03-6.792 12.137-9.921h-7.499c-.485 2.266-1.777 3.829-4.8 3.829-3.557 0-5.556-3.077-5.556-8.468 0-5.99 2.159-8.685 5.505-8.685 2.695 0 4.098 1.565 4.8 3.67h7.55m-53.178 11.864c0 2.373 0 4.96-.056 7.066h7.5c.162-.752.267-2.696.322-3.56.914 1.728 3.181 4.205 8.09 4.205 5.608 0 9.222-3.826 9.222-10.84v-17.745h-7.712v16.882c0 3.184-1.024 5.45-4.477 5.45-3.29 0-5.123-1.836-5.123-6.797v-15.535h-7.766v20.874m-10.289-3.83c-.055 3.238-1.347 5.99-5.121 5.99-3.67 0-5.179-2.538-5.507-5.99zm-10.79-4.744c0-3.507 1.783-6.905 5.614-6.905 3.234 0 4.153 1.292 4.905 2.967h7.715c-.973-3.4-4.046-9.007-12.782-9.007-9.226 0-13.217 6.848-13.217 14.185 0 8.792 4.476 15.045 13.484 15.045 9.548 0 12.839-6.954 12.839-13.914 0-.969 0-1.564-.11-2.37h-18.447m-25.358 15.639c2.64-9.493 4.855-17.745 5.39-21.091h.056c.808 4.588 3.507 13 5.935 21.09h7.71l-9.87-27.939h-8.09l-9.493 27.94h8.362m-26.727-13.97c0-5.394 2.32-8.575 6.04-8.575 3.83 0 5.935 3.181 5.935 8.52 0 5.829-2.16 8.578-6.04 8.578-3.563 0-5.935-2.644-5.935-8.522zm19.792.055c0-8.468-5.066-14.67-13.912-14.67-8.631 0-13.698 6.202-13.698 14.51 0 8.628 5.228 14.72 14.076 14.72 8.196 0 13.534-5.823 13.534-14.56m-44.31 6.31c0 2.805 0 5.233-.05 7.605h7.601c.11-.647.217-3.398.217-4.907 1.242 3.18 4.21 5.502 8.952 5.552v-7.387c-5.606.16-8.952-1.35-8.952-9.01v-12.188h-7.768v20.334m-16.221 2.05c-4.37 0-5.936-2.858-5.936-8.47 0-5.338 1.454-8.413 5.608-8.413 4.103 0 6.096 3.185 6.096 8.848 0 5.122-2.05 8.034-5.768 8.034zm-13.323-33.063v31.877c0 2.266 0 4.476-.056 6.742h7.5c.106-.752.267-2.48.267-3.508 1.186 2.054 3.669 4.153 8.09 4.153 6.312 0 11.112-5.283 11.112-13.914 0-9.871-5.395-15.316-12.137-15.316-3.936 0-5.986 1.509-7.065 3.129v-13.163h-7.711" transform="matrix(1.33333 0 0 -1.33333 0 318.452)"/></svg>