<svg xml:space="preserve" width="500" height="500" xmlns="http://www.w3.org/2000/svg"><path d="M375-136.16H0v375h375Z" style="fill:#0077d7;fill-opacity:1;fill-rule:nonzero;stroke:none;stroke-width:1.57009" transform="matrix(1.33333 0 0 -1.33333 0 318.452)"/><path style="fill:#bfddf5;fill-opacity:1;fill-rule:nonzero;stroke:none;stroke-width:1.57009" d="M311.77 138.02a20.464 20.464 0 0 0-6.84-1.168c-10.797 0-19.55 8.305-19.55 18.55 0 2.856.681 5.562 1.898 7.979h-23.999a38.464 38.464 0 0 1-.835-7.98c0-22.262 19.021-40.31 42.486-40.31 2.329 0 4.613.18 6.84.523zm-6.84 35.93c10.798 0 19.551-8.304 19.551-18.549 0-3.146-.827-6.109-2.284-8.704h24.223c.65 2.804.997 5.715.997 8.704 0 17.17-11.314 31.83-27.254 37.639v18.216h-21.036V173.12c1.834.54 3.783.83 5.803.83" transform="matrix(1.33333 0 0 -1.33333 0 318.452)"/><path style="fill:#fff;fill-opacity:1;fill-rule:nonzero;stroke:none;stroke-width:.15701" d="M209.885 58.707v22.11h-4.098v5.823h4.098v2.428c0 5.769 2.857 9.544 8.897 9.544 1.24 0 2.86-.109 3.56-.324v-6.093c-.432.054-1.024.106-1.619.106-2.264 0-3.126-.807-3.126-3.828V86.64h4.852v-5.822h-4.852v-22.11h-7.712m47.605 11.97c0-3.668-.593-7.119-5.5-7.119-2.804 0-4.044 1.726-4.044 3.721 0 2.696 1.725 4.153 6.417 4.153h3.127zm7.55-4.747v11.704c0 6.687-4.097 9.598-11.54 9.653-7.663 0-10.92-3.23-11.772-7.488l7.135-1.465c.323 2.05 1.078 3.398 4.313 3.398 3.614 0 4.314-1.942 4.314-3.936v-1.672h-3.99c-8.197 0-13.267-2.966-13.267-9.33 0-4.315 2.804-8.738 9.545-8.738 4.963 0 6.85 1.834 7.874 3.398 0-.7.162-2.21.378-2.75h7.388c-.162.648-.377 4.53-.377 7.226m74.611 9.815c-.053 3.236-1.349 5.987-5.123 5.987-3.668 0-5.178-2.534-5.502-5.987zm-10.787-4.745c0-3.506 1.781-6.902 5.609-6.902 3.236 0 4.153 1.294 4.908 2.964h7.712c-.972-3.397-4.044-9.006-12.782-9.006-9.221 0-13.212 6.85-13.212 14.185 0 8.79 4.476 15.046 13.482 15.046 9.546 0 12.836-6.957 12.836-13.914 0-.97 0-1.564-.109-2.373h-18.444m-8.403-3.29c-.917-4.637-4.206-9.654-12.51-9.654-8.684 0-13.16 5.987-13.16 14.4 0 8.25 5.016 14.831 13.537 14.831 9.382 0 12.025-6.795 12.133-9.923h-7.495c-.486 2.266-1.78 3.83-4.8 3.83-3.56 0-5.555-3.075-5.555-8.468 0-5.987 2.157-8.683 5.5-8.683 2.697 0 4.1 1.564 4.8 3.668h7.55m-52.31 11.864c0 2.374 0 4.961-.054 7.065h7.495c.162-.755.27-2.697.324-3.56.917 1.726 3.183 4.207 8.09 4.207 5.61 0 9.222-3.83 9.222-10.84V58.706h-7.712v16.878c0 3.183-1.024 5.447-4.475 5.447-3.291 0-5.125-1.832-5.125-6.794V58.706h-7.766v20.87m-43.627-.539c0 2.804 0 5.232-.055 7.604h7.604c.109-.647.217-3.4.217-4.908 1.24 3.181 4.206 5.5 8.951 5.555v-7.389c-5.608.162-8.95-1.347-8.95-9.006V58.706h-7.767v20.331M347.233-26.084c0-9.069 0-19.253.185-27.767h-25.92c-.368 2.592-.554 7.776-.739 11.106-5.739-9.626-14.07-13.328-26.473-13.328-19.438 0-31.842 11.848-31.842 35.543v62.574h26.473v-57.205c0-10.553 3.332-19.253 14.81-19.253 12.033 0 17.032 6.48 17.032 25.362v51.096h26.474v-68.128M227.908 4.647c-.185 11.109-4.627 20.55-17.587 20.55-12.589 0-17.772-8.702-18.882-20.55zm-37.025-16.291c0-12.032 6.11-23.696 19.253-23.696 11.108 0 14.255 4.443 16.847 10.182h26.472c-3.332-11.661-13.884-30.915-43.875-30.915-31.655 0-45.354 23.512-45.354 48.689 0 30.175 15.365 51.65 46.282 51.65 32.765 0 44.057-23.883 44.057-47.763 0-3.333 0-5.368-.369-8.147h-63.313m-34.536 92.933v-135.14h-27.584v135.14h27.584M73.678 22.975c-15.18 0-20.547-9.812-20.547-29.434 0-16.107 4.813-28.51 20.178-28.51 13.513 0 20.733 12.03 20.733 30.177 0 16.106-6.11 27.767-20.364 27.767zm-45.91 58.314h26.659V31.86c3.886 6.11 11.847 12.406 27.397 12.406 26.102 0 39.06-21.662 39.06-48.504 0-27.398-14.069-51.835-41.651-51.835-14.255 0-20.55 4.26-25.178 11.293 0-3.15-.556-6.666-1.11-9.071H27.583c.184 10.368.184 20.92.184 31.285V81.29M339.65-92.391c0 6.308.107 13.429.268 17.638h-.268c-1.726-7.605-5.45-19.959-9.008-31.608h-6.849c-2.75 10.195-6.58 24.27-8.2 31.713h-.267c.322-4.365.484-12.025.484-18.39v-13.323h-7.338v37.165h11.976c2.912-9.711 6.148-21.899 7.282-27.405h.052c.918 4.856 4.966 17.912 8.093 27.405h11.542v-37.165h-7.767v13.97m-60.482 23.195h25.946v-6.582h-18.067v-9.115h16.937v-6.58h-16.937v-14.888h-7.879v37.165m-4.14-25.678c-1.457-6.955-6.69-12.027-16.023-12.027-11.809 0-17.366 8.363-17.366 18.931 0 10.195 5.774 19.312 17.744 19.312 9.928 0 14.728-5.771 15.645-12.03h-8.04c-.806 2.913-2.805 5.773-7.872 5.773-6.637 0-9.17-5.99-9.17-12.783 0-6.257 2.212-12.889 9.382-12.889 5.288 0 6.904 3.503 7.606 5.713h8.094m-56.965 9.82h6.742c4.365 0 6.092 1.67 6.092 4.745 0 3.022-1.994 4.747-5.93 4.747h-6.904zm0-6.419v-14.888h-7.879v37.165h16.346c8.091 0 12.46-4.426 12.46-10.195 0-4.966-2.698-7.66-5.394-8.792 1.832-.7 4.638-2.588 4.638-9.28v-1.832c0-2.482 0-5.34.54-7.066h-7.66c-.647 1.62-.753 4.422-.753 8.363v.535c0 4.046-1.028 5.99-7.015 5.99h-5.283M27.583 211.255h93.301v-91.248H27.583v91.248" transform="matrix(1.33333 0 0 -1.33333 0 318.452)"/><path style="fill:#040606;fill-opacity:1;fill-rule:nonzero;stroke:none;stroke-width:.209347" d="M90.93 45.26c-2.31-.163-4.085 2.961-6.717 1.383-3.888-.647-7.122 3.237-10.356 1.294l-8.416 3.885c-.953 3.172-3.147 5.721-5.138 8.26-.044-.013-.083-.027-.127-.039l-.457-.129-.334.334c-.295.293-.662.587-1.04.889-1.29 1.038-3.06 2.459-2.396 4.467l.184.554h.617c-.118.406-.214.82-.275 1.246-.295.254-.597.507-.913.754-.498.392-.978.77-1.355 1.149l-.969.968 1.319.38c.37.105.756.194 1.14.286-.134.967-.114 1.945-.076 2.916-.678-.057-1.371.046-1.818.368-.596.429-.746 1.136-.39 1.843l.099.155a13.043 13.043 0 0 0 1.953 1.888c-.177.776-.483 1.516-1.027 2.196 2.592 7.764-5.18 12.296-5.825 18.775.645 2.588 3.233 1.943 5.178 3.232 0 1.943-5.177 3.885-1.293 6.475-2.59 2.594.645 3.885 1.94 5.828-6.475 16.187 16.186 4.531 18.125 16.188 6.47 3.236 11.006 9.71 10.359 16.832 18.124 4.53 21.363-20.066 36.254-23.307v-.644c-4.53-3.888-10.359-8.42-9.063-14.247.649-1.938 3.235-2.59 1.942-5.181 2.592 0 .649-3.885 3.884-3.885 0-1.292-1.292-3.884.649-4.533 1.941 3.243 1.292 7.125 1.941 10.36 0 2.522.964 3.809 2.344 4.562l-.775.775 1.004.502c.742.37 1.617.543 2.464.713.778.155 1.512.302 2.065.578l.521.26 1.11-1.11c1.219.395 2.276 1.002 2.926 2.137.532 1.068.724 2.024.705 2.906l-11.05 12.436 2.749 5.5c-2.817 2.588-8.107 4.374-10.543 7.36-.8.53-1.639 1.02-2.557 1.413l-.334.141-.875 2.607.153.3c.273.546 1.738 3.314 3.6 4.245l.946.479.643-3.234a20.315 20.315 0 0 0 2.314 2.751c2.591 1.292 6.478 1.293 8.416-.646 3.886-5.828 7.124-11.657 12.3-16.19.65-9.707 1.943-18.124.65-27.185 0-9.067-12.301-2.592-12.95-11.012.204-1.22.856-1.802 1.733-2.066l-.291.584 1.672-.387a12.07 12.07 0 0 0 1.28-.369h.001c1.452.06 2.955.182 4.023-.354 10.357-3.88 7.77-16.18 12.3-23.3.647-5.184 9.706-9.712 5.181-14.885-1.299-.651-1.298.646-1.945 1.291-.647 1.943-3.237 4.526-5.832 3.238v-2.592c-.643-2.587-2.585-4.533-4.53-4.533-2.587-1.938.652-4.53-1.293-6.472-1.294-.647-3.236-.648-4.529.646 1.946 7.122-7.121 3.889-7.77 9.713a62.66 62.66 0 0 0 1.274 3.406c-.636.404-1.251.744-1.834.938l-.711.236.182.727c.32 1.277.69 2.59 1.068 3.925 1.932 6.819 3.93 13.866.313 20.069l-.043.072c-.735.494-1.483.873-2.186 1.049-1.299 0-1.945-1.293-1.945-1.94 2.588-.649 1.292-3.888 3.882-5.177-1.938-2.59 2.594-3.237 0-5.825 2.594-2.593-1.293-4.535-1.937-7.125 1.291-2.591-1.944-2.592-.652-5.18l-9.063-7.116-.648-2.59c-3.886.645-5.828-4.535-9.711-3.237-3.238-.649-6.477-1.944-9.711-3.238-.607-.486-1.17-.699-1.703-.736zm39.293 4.492c-.543-.012-1.4.545-.996 1.353.648.647 1.293.001 1.293-.648.241-.485.028-.698-.297-.705zm-.418 4.687c.49-.002.956.15 1.36.555-.646 1.292-2.583 1.94-3.878 2.592-1.294 0-.648-1.3-.648-1.947.892-.444 2.087-1.194 3.166-1.2zm3.527 2.85c1.031.01 2.041.456 3.012 1.59-1.295 3.232-6.469 2.583-6.469 7.117l1.94 12.303c2.59-1.294.647-5.826 1.298-9.065 3.883-1.295 5.823-6.477 9.707-5.181-.644 3.885-3.886 7.77-5.18 11.656-1.939 6.473-1.938 16.178-10.353 18.123 1.295-2.588 4.526-4.534 5.174-7.121-1.943 0-3.234 3.238-5.822 3.238.648-1.947 3.236-4.535 3.236-7.125l-4.53 3.887c4.53-7.769.647-16.833-1.296-24.6 2.916-.968 6.19-4.853 9.283-4.822zM59.955 60.82c4.532 1.292 7.77 3.233 11.652 5.825-2.59 1.293-5.825-2.593-7.12-1.295 6.477 9.06 20.066 1.294 27.193 8.414l-1.3 1.945c2.59 3.883 8.417.646 12.302 3.883-1.294.649-3.885-1.294-5.18 0l3.887 3.232c-1.94.647-5.182-1.941-7.772-1.941 4.535 4.53 11.655 4.532 16.834 9.066 0-.649 1.295-.001 1.295-.65l-5.183-7.117c2.593.642 4.537 3.232 5.833 5.82l-1.294 4.533c-1.293-2.587-5.831-3.885-9.067-3.236l7.121 4.533c-3.884 1.296-7.768-.648-11.004-1.297.645-1.94 1.938-4.533 0-7.12-3.885-3.889-8.419 1.297-12.302 2.587l-9.713-2.588c1.941-.647 4.529 0 6.472-1.293-4.532-1.938-10.354-1.298-14.884-2.596-5.182-.642-10.363-1.933-13.59-5.816-.65-1.298 1.937-1.3 2.582-.652l16.834 4.535c3.231 0 6.47-1.294 9.058 0-3.236-2.588-10.354-1.944-14.884-3.883-2.594-4.534-8.419-4.534-12.946-5.83 1.293-1.296 3.88-2.589 3.88-4.53h-1.942c-.645-1.944 1.942-3.237 3.238-4.529zm66.29 1.106c-.413.251-.824.487-1.235.674.272 1.044.574 2.109.88 3.191 1.594 5.627 3.355 11.873 1.688 17.707.622-.847 1.107-1.727 1.313-2.547 2.551-6.638-.127-12.875-2.647-19.025zm9.401 1.303c.677-.01.577.945.055 1.47l-.65-1.295c.243-.121.44-.173.595-.175zm-1.683.796c.654 0 .654.644.654 1.295 0 0-1.299.643-1.299 0zM57.36 86.061c.649 0 1.946.652 1.946 1.296 0 .645-.65.644-1.297 1.293-1.294 0 0-1.938-.649-2.59zm63.45 18.128c3.239 1.294 9.065.001 9.709 4.536 0 1.293-.645.646-1.293.646l-3.235 3.236c-1.298-.646-3.237-.646-4.531-1.293 2.588-2.59-3.24-5.182-.65-7.125zm10.353 14.245.65.65c1.3 4.53-.65 7.766-.65 12.299-1.937 1.947-5.172 3.239-6.47 5.824v.65l-3.883-7.771zm-7.896 10.105-1.49 1.676 1.964 3.928c.96-1.482 1.036-3.262-.474-5.604zm-1.807 9.318.644 3.881c-3.237 1.296-5.182 5.828-9.066 5.828l-.643 3.239c-1.296-.65-2.587-2.591-3.24-3.887l.653-1.945c4.527-1.939 7.114-5.822 11.652-7.116zm-9.758 7.069c-.4.226-.81.445-1.242.642l-.428 1.282c.478.885 1.144 1.862 1.822 2.539l.522-2.63h.066a12.88 12.88 0 0 1-.74-1.833z"/></svg>