<svg xml:space="preserve" width="500" height="500" xmlns="http://www.w3.org/2000/svg"><path d="M375-136.16H0v375h375Z" style="fill:#0077d7;fill-opacity:1;fill-rule:nonzero;stroke:none;stroke-width:1.57009" transform="matrix(1.33333 0 0 -1.33333 0 318.452)"/><path style="fill:#bfddf5;fill-opacity:1;fill-rule:nonzero;stroke:none;stroke-width:1.57009" d="M311.77 138.02a20.464 20.464 0 0 0-6.84-1.168c-10.797 0-19.55 8.305-19.55 18.55 0 2.856.681 5.562 1.898 7.979h-23.999a38.464 38.464 0 0 1-.835-7.98c0-22.262 19.021-40.31 42.486-40.31 2.329 0 4.613.18 6.84.523zm-6.84 35.93c10.798 0 19.551-8.304 19.551-18.549 0-3.146-.827-6.109-2.284-8.704h24.223c.65 2.804.997 5.715.997 8.704 0 17.17-11.314 31.83-27.254 37.639v18.216h-21.036V173.12c1.834.54 3.783.83 5.803.83" transform="matrix(1.33333 0 0 -1.33333 0 318.452)"/><path style="fill:#fff;fill-opacity:1;fill-rule:nonzero;stroke:none;stroke-width:.15701" d="M209.885 58.706v22.11h-4.098v5.824h4.098v2.428c0 5.769 2.857 9.544 8.897 9.544 1.24 0 2.858-.109 3.558-.324v-6.093c-.43.054-1.022.106-1.617.106-2.264 0-3.126-.807-3.126-3.83V86.64h4.852v-5.824h-4.852v-22.11h-7.712m47.605 11.97c0-3.666-.593-7.117-5.5-7.117-2.804 0-4.044 1.726-4.044 3.721 0 2.696 1.725 4.151 6.417 4.151h3.127zm7.55-4.745v11.704c0 6.687-4.099 9.598-11.54 9.653-7.663 0-10.92-3.23-11.772-7.488l7.135-1.465c.323 2.05 1.078 3.398 4.313 3.398 3.614 0 4.314-1.942 4.314-3.936v-1.672h-3.99c-8.197 0-13.267-2.966-13.267-9.33 0-4.315 2.804-8.738 9.545-8.738 4.963 0 6.85 1.834 7.874 3.398 0-.7.162-2.21.378-2.75h7.388c-.162.648-.377 4.53-.377 7.226m74.611 9.815c-.055 3.236-1.349 5.987-5.123 5.987-3.668 0-5.178-2.536-5.502-5.987zm-10.787-4.745c0-3.506 1.781-6.902 5.609-6.902 3.236 0 4.153 1.294 4.908 2.964h7.712c-.972-3.396-4.044-9.006-12.782-9.006-9.221 0-13.212 6.85-13.212 14.185 0 8.79 4.476 15.046 13.482 15.046 9.546 0 12.836-6.957 12.836-13.914 0-.97 0-1.564-.109-2.373h-18.444m-8.403-3.29c-.917-4.637-4.206-9.654-12.51-9.654-8.684 0-13.16 5.987-13.16 14.4 0 8.25 5.016 14.831 13.537 14.831 9.382 0 12.025-6.795 12.133-9.923h-7.495c-.486 2.266-1.78 3.828-4.8 3.828-3.56 0-5.555-3.073-5.555-8.466 0-5.987 2.157-8.683 5.5-8.683 2.697 0 4.1 1.564 4.8 3.666h7.55m-52.31 11.866c0 2.372 0 4.961-.054 7.065h7.495c.162-.755.27-2.697.324-3.56.917 1.726 3.183 4.207 8.09 4.207 5.61 0 9.222-3.83 9.222-10.84V58.704h-7.712v16.88c0 3.183-1.024 5.447-4.477 5.447-3.29 0-5.123-1.834-5.123-6.794V58.704h-7.766v20.872m-43.627-.539c0 2.804 0 5.23-.055 7.604h7.604c.109-.648.217-3.4.217-4.908 1.24 3.181 4.206 5.5 8.951 5.555v-7.389c-5.608.162-8.95-1.347-8.95-9.006V58.704h-7.767v20.333m122.709-105.12c0-9.07 0-19.254.185-27.768h-25.92c-.368 2.592-.554 7.776-.739 11.106-5.739-9.628-14.07-13.328-26.473-13.328-19.438 0-31.842 11.848-31.842 35.543v62.574h26.473v-57.205c0-10.553 3.332-19.254 14.81-19.254 12.033 0 17.032 6.48 17.032 25.363v51.096h26.474v-68.127M227.908 4.647c-.185 11.109-4.627 20.55-17.587 20.55-12.589 0-17.772-8.702-18.882-20.55zm-37.025-16.291c0-12.032 6.11-23.696 19.253-23.696 11.108 0 14.255 4.443 16.847 10.18h26.472c-3.332-11.66-13.884-30.913-43.875-30.913-31.655 0-45.354 23.512-45.354 48.689 0 30.174 15.365 51.65 46.28 51.65 32.767 0 44.06-23.883 44.06-47.763 0-3.333 0-5.368-.37-8.147h-63.313m-34.536 92.933v-135.14h-27.583v135.14h27.583M73.678 22.975c-15.18 0-20.547-9.81-20.547-29.434 0-16.109 4.812-28.51 20.178-28.51 13.513 0 20.733 12.03 20.733 30.177 0 16.106-6.11 27.767-20.364 27.767zm-45.91 58.314h26.659V31.86c3.886 6.11 11.847 12.406 27.397 12.406 26.102 0 39.06-21.662 39.06-48.504 0-27.398-14.069-51.835-41.651-51.835-14.255 0-20.55 4.26-25.178 11.293 0-3.15-.556-6.666-1.11-9.071H27.582c.186 10.367.186 20.92.186 31.283V81.29m294.57-166.775c0 2.374 0 4.963-.054 7.067h7.498c.162-.754.269-2.696.324-3.56.914 1.728 3.18 4.205 8.09 4.205 5.607 0 9.22-3.824 9.22-10.84v-17.743h-7.71v16.882c0 3.182-1.026 5.448-4.477 5.448-3.29 0-5.123-1.836-5.123-6.797v-15.533h-7.767v20.871m-22.345-6.902c0-5.397 2.321-8.574 6.042-8.574 3.83 0 5.934 3.177 5.934 8.517 0 5.828-2.16 8.58-6.04 8.58-3.563 0-5.936-2.644-5.936-8.523zm19.795.054c0-8.468-5.069-14.67-13.915-14.67-8.63 0-13.702 6.202-13.702 14.51 0 8.629 5.233 14.72 14.08 14.72 8.197 0 13.537-5.823 13.537-14.56m-37.879-14.023v39.373h7.767v-39.373h-7.767m-11.699 0v39.373h7.766v-39.373h-7.766m-11.7 27.938h7.767v-27.938h-7.767zm0 4.531v6.904h7.767v-6.904h-7.767m-19.482-24.057c.59-2.265 2.427-3.502 5.283-3.502 2.861 0 3.886 1.023 3.886 2.748 0 1.778-1.187 2.48-5.178 3.453-9.114 2.266-10.573 5.068-10.573 9.005 0 4.103 2.858 8.467 11.275 8.467 8.468 0 11.38-4.636 11.597-8.412h-7.337c-.269 1.025-.97 2.967-4.583 2.967-2.54 0-3.401-1.13-3.401-2.372 0-1.402.862-2.05 5.395-3.13 9.33-2.158 10.678-5.338 10.678-9.437 0-4.641-3.558-8.846-12.027-8.846-8.523 0-11.975 4.097-12.62 9.06h7.605m-25.356 0c.592-2.266 2.428-3.503 5.285-3.503 2.861 0 3.886 1.023 3.886 2.748 0 1.778-1.187 2.48-5.178 3.453-9.114 2.266-10.573 5.068-10.573 9.005 0 4.103 2.858 8.467 11.275 8.467 8.468 0 11.38-4.636 11.597-8.412h-7.337c-.269 1.025-.97 2.967-4.583 2.967-2.54 0-3.401-1.13-3.401-2.372 0-1.402.862-2.05 5.395-3.13 9.33-2.158 10.678-5.338 10.678-9.437 0-4.641-3.558-8.846-12.027-8.846-8.523 0-11.975 4.097-12.622 9.06h7.605m-9.844-.324c0-2.644 0-5.607.055-8.09h-7.55c-.108.756-.162 2.265-.217 3.235-1.671-2.806-4.098-3.881-7.713-3.881-5.662 0-9.274 3.452-9.274 10.356v18.229h7.71v-16.665c0-3.074.974-5.611 4.315-5.611 3.508 0 4.962 1.887 4.962 7.388v14.888h7.712v-19.849m-46.84 5.88c0-5.397 2.316-8.574 6.04-8.574 3.83 0 5.931 3.177 5.931 8.517 0 5.828-2.156 8.58-6.042 8.58-3.558 0-5.93-2.644-5.93-8.523zm19.793.054c0-8.468-5.071-14.67-13.914-14.67-8.63 0-13.702 6.202-13.702 14.51 0 8.629 5.234 14.72 14.08 14.72 8.196 0 13.536-5.823 13.536-14.56m-44.314 6.31c0 2.805 0 5.233-.052 7.605h7.602c.11-.647.216-3.398.216-4.907 1.242 3.18 4.209 5.502 8.954 5.552v-7.387c-5.607.162-8.954-1.348-8.954-9.01v-12.186h-7.766v20.333" transform="matrix(1.33333 0 0 -1.33333 0 318.452)"/></svg>