<svg xml:space="preserve" width="500" height="500" xmlns="http://www.w3.org/2000/svg"><path d="M375-136.16H0v375h375Z" style="fill:#0077d7;fill-opacity:1;fill-rule:nonzero;stroke:none;stroke-width:1.57009" transform="matrix(1.33333 0 0 -1.33333 0 318.452)"/><path style="fill:#bfddf5;fill-opacity:1;fill-rule:nonzero;stroke:none;stroke-width:1.57009" d="M311.77 138.02a20.464 20.464 0 0 0-6.84-1.168c-10.797 0-19.55 8.305-19.55 18.55 0 2.856.681 5.562 1.898 7.979h-23.999a38.464 38.464 0 0 1-.835-7.98c0-22.262 19.021-40.31 42.486-40.31 2.329 0 4.613.18 6.84.523zm-6.84 35.93c10.798 0 19.551-8.304 19.551-18.549 0-3.146-.827-6.109-2.284-8.704h24.223c.65 2.804.997 5.715.997 8.704 0 17.17-11.314 31.83-27.254 37.639v18.216h-21.036V173.12c1.834.54 3.783.83 5.803.83" transform="matrix(1.33333 0 0 -1.33333 0 318.452)"/><path style="fill:#fff;fill-opacity:1;fill-rule:nonzero;stroke:none;stroke-width:.15701" d="M209.885 58.706v22.11h-4.098v5.824h4.098v2.428c0 5.769 2.857 9.544 8.897 9.544 1.24 0 2.86-.109 3.56-.324v-6.093c-.432.054-1.024.106-1.619.106-2.264 0-3.126-.807-3.126-3.83V86.64h4.852v-5.824h-4.852v-22.11h-7.712m47.605 11.97c0-3.666-.593-7.117-5.5-7.117-2.804 0-4.044 1.726-4.044 3.721 0 2.696 1.725 4.151 6.417 4.151h3.127zm7.55-4.745v11.704c0 6.687-4.097 9.598-11.54 9.653-7.663 0-10.92-3.23-11.772-7.488l7.135-1.465c.323 2.05 1.078 3.398 4.313 3.398 3.614 0 4.314-1.942 4.314-3.936v-1.672h-3.99c-8.197 0-13.267-2.966-13.267-9.33 0-4.315 2.804-8.738 9.545-8.738 4.963 0 6.85 1.834 7.874 3.398 0-.7.162-2.21.378-2.75h7.388c-.162.648-.377 4.53-.377 7.226m74.611 9.815c-.053 3.236-1.349 5.987-5.123 5.987-3.668 0-5.178-2.536-5.502-5.987zm-10.787-4.745c0-3.506 1.781-6.902 5.609-6.902 3.236 0 4.153 1.294 4.908 2.964h7.712c-.972-3.396-4.044-9.006-12.782-9.006-9.221 0-13.212 6.85-13.212 14.185 0 8.79 4.476 15.046 13.482 15.046 9.546 0 12.836-6.957 12.836-13.914 0-.97 0-1.564-.109-2.373h-18.444m-8.403-3.29c-.917-4.637-4.206-9.654-12.51-9.654-8.684 0-13.16 5.987-13.16 14.4 0 8.25 5.016 14.831 13.537 14.831 9.382 0 12.025-6.795 12.133-9.923h-7.495c-.486 2.266-1.78 3.828-4.8 3.828-3.56 0-5.555-3.073-5.555-8.466 0-5.987 2.157-8.683 5.5-8.683 2.697 0 4.1 1.564 4.8 3.666h7.55m-52.31 11.866c0 2.372 0 4.961-.054 7.065h7.495c.162-.755.27-2.697.324-3.56.917 1.726 3.183 4.207 8.09 4.207 5.61 0 9.222-3.83 9.222-10.84V58.704h-7.712v16.88c0 3.183-1.024 5.447-4.475 5.447-3.291 0-5.125-1.834-5.125-6.794V58.704h-7.766v20.872m-43.627-.539c0 2.804 0 5.23-.055 7.604h7.604c.109-.648.217-3.4.217-4.908 1.24 3.181 4.206 5.5 8.951 5.555v-7.389c-5.608.162-8.95-1.347-8.95-9.006V58.704h-7.767v20.333m122.709-105.12c0-9.07 0-19.254.185-27.768h-25.92c-.368 2.592-.554 7.776-.739 11.106-5.739-9.628-14.07-13.328-26.473-13.328-19.438 0-31.842 11.848-31.842 35.543v62.574h26.473v-57.205c0-10.553 3.332-19.254 14.81-19.254 12.033 0 17.032 6.48 17.032 25.363v51.096h26.474v-68.127M227.908 4.647c-.185 11.109-4.627 20.55-17.587 20.55-12.589 0-17.772-8.702-18.882-20.55zm-37.025-16.291c0-12.032 6.11-23.696 19.253-23.696 11.108 0 14.255 4.443 16.847 10.18h26.472c-3.332-11.66-13.884-30.913-43.875-30.913-31.655 0-45.354 23.512-45.354 48.689 0 30.174 15.365 51.65 46.282 51.65 32.765 0 44.057-23.883 44.057-47.763 0-3.333 0-5.368-.369-8.147h-63.313m-34.536 92.933v-135.14h-27.584v135.14h27.584M73.678 22.975c-15.18 0-20.547-9.81-20.547-29.434 0-16.109 4.813-28.51 20.178-28.51 13.513 0 20.733 12.03 20.733 30.177 0 16.106-6.11 27.767-20.364 27.767zm-45.91 58.314h26.659V31.86c3.886 6.11 11.847 12.406 27.397 12.406 26.102 0 39.06-21.662 39.06-48.504 0-27.398-14.069-51.835-41.651-51.835-14.255 0-20.55 4.26-25.178 11.293 0-3.15-.556-6.666-1.11-9.071H27.583c.184 10.367.184 20.92.184 31.283V81.29M341.265-92.864c-.044 2.565-1.068 4.745-4.058 4.745-2.906 0-4.1-2.011-4.36-4.745zm-8.546-3.757c0-2.778 1.411-5.469 4.444-5.469 2.563 0 3.29 1.024 3.886 2.35h6.111c-.77-2.694-3.204-7.134-10.124-7.134-7.307 0-10.47 5.425-10.47 11.236 0 6.963 3.548 11.915 10.682 11.915 7.562 0 10.168-5.508 10.168-11.019 0-.77 0-1.24-.083-1.88H332.72m-19.398 6.365c0 2.221 0 4.144-.044 6.022h6.025c.086-.512.171-2.689.171-3.884.983 2.518 3.333 4.357 7.09 4.396v-5.852c-4.44.129-7.09-1.067-7.09-7.134v-9.653h-6.152v16.105m-9.276 6.022h6.152v-22.127h-6.152zm0 3.591v5.468h6.152v-5.468h-6.152M286.35-95.299c0-4.272 1.839-6.79 4.786-6.79 3.033 0 4.7 2.518 4.7 6.748 0 4.616-1.71 6.794-4.785 6.794-2.821 0-4.7-2.095-4.7-6.752zm15.678.044c0-6.708-4.013-11.62-11.02-11.62-6.835 0-10.852 4.912-10.852 11.493 0 6.835 4.145 11.66 11.151 11.66 6.492 0 10.72-4.612 10.72-11.533m-30-11.107v31.186h6.152v-31.186h-6.151m-16.351 13.498c-.044 2.565-1.068 4.745-4.057 4.745-2.907 0-4.101-2.011-4.36-4.745zm-8.546-3.757c0-2.778 1.411-5.469 4.445-5.469 2.562 0 3.289 1.024 3.886 2.35h6.11c-.77-2.694-3.204-7.134-10.124-7.134-7.307 0-10.469 5.425-10.469 11.236 0 6.963 3.547 11.915 10.681 11.915 7.562 0 10.168-5.508 10.168-11.019 0-.77 0-1.24-.087-1.88h-14.61m-27.967 6.791c0 1.88 0 3.93-.044 5.596h5.94c.128-.595.212-2.133.256-2.818.723 1.368 2.518 3.33 6.407 3.33 4.442 0 7.304-3.03 7.304-8.585v-14.054h-6.109v13.37c0 2.522-.81 4.317-3.545 4.317-2.607 0-4.057-1.455-4.057-5.384v-12.303h-6.152v16.531m-22.969 0c0 1.88 0 3.93-.045 5.596h5.936c.129-.595.217-2.133.256-2.818.727 1.368 2.523 3.33 6.41 3.33 4.446 0 7.308-3.03 7.308-8.585v-14.054h-6.11v13.37c0 2.522-.813 4.317-3.548 4.317-2.605 0-4.06-1.455-4.06-5.384v-12.303h-6.147v16.531m-8.149-3.033c-.044 2.565-1.07 4.745-4.062 4.745-2.901 0-4.1-2.011-4.355-4.745zm-8.546-3.757c0-2.778 1.412-5.469 4.445-5.469 2.562 0 3.29 1.024 3.886 2.35h6.11c-.77-2.694-3.205-7.134-10.125-7.134-7.305 0-10.464 5.425-10.464 11.236 0 6.963 3.542 11.915 10.676 11.915 7.563 0 10.17-5.508 10.17-11.019 0-.77 0-1.24-.085-1.88H179.5m-14.35 12.387h6.154v-22.127h-6.155zm0 3.591v5.468h6.154v-5.468h-6.155m-15.444-3.59h3.417v5.98h6.108v-5.98h4.357v-4.613h-4.357v-10.937c0-1.665.512-2.306 2.35-2.306.344 0 .943 0 1.368.04v-4.185c-1.195-.427-2.862-.427-4.101-.427-4.314 0-5.725 2.307-5.725 6.196v11.619h-3.417v4.612m-1.347 9.485-6.835-6.322h-5.34l4.913 6.322zm-4.613-18.114c-.043 2.565-1.067 4.745-4.057 4.745-2.906 0-4.101-2.011-4.357-4.745zm-8.542-3.757c0-2.778 1.407-5.469 4.441-5.469 2.562 0 3.29 1.024 3.889 2.35h6.108c-.768-2.694-3.205-7.134-10.125-7.134-7.306 0-10.468 5.425-10.468 11.236 0 6.963 3.549 11.915 10.68 11.915 7.563 0 10.169-5.508 10.169-11.019 0-.77 0-1.24-.088-1.88h-14.606m-8.663 3.929v-5.34h-11.876v5.34h11.876m-26.035 8.458h3.418v5.98h6.108v-5.98h4.357v-4.612h-4.357v-10.937c0-1.665.511-2.306 2.35-2.306.343 0 .943 0 1.367.04v-4.185c-1.195-.427-2.862-.427-4.101-.427-4.314 0-5.724 2.307-5.724 6.196v11.619h-3.418v4.612M79.848-89.83c0 1.88 0 3.93-.04 5.596h5.939c.128-.595.212-2.133.256-2.818.727 1.368 2.519 3.33 6.408 3.33 4.44 0 7.303-3.03 7.303-8.585v-14.054h-6.108v13.37c0 2.522-.811 4.317-3.545 4.317-2.607 0-4.058-1.455-4.058-5.384v-12.303h-6.155v16.531m-9.29 5.596h6.152v-22.127h-6.152Zm0 3.591v5.468h6.152v-5.468h-6.152M61.444-96.28h-2.479c-3.717 0-5.084-1.153-5.084-3.291 0-1.58.983-2.946 3.202-2.946 3.89 0 4.36 2.733 4.36 5.64zm5.98-4.36c0-2.133.168-5.21.296-5.722h-5.852c-.169.427-.296 1.622-.296 2.178-.815-1.24-2.31-2.69-6.24-2.69-5.34 0-7.559 3.501-7.559 6.92 0 5.04 4.014 7.39 10.506 7.39h3.165v1.322c0 1.583-.56 3.123-3.422 3.123-2.562 0-3.158-1.07-3.413-2.694h-5.812c.296 3.928 2.734 7.09 9.482 7.09 5.899-.039 9.145-2.347 9.145-7.646v-9.27m-33.816.94c.468-1.794 1.923-2.774 4.185-2.774 2.263 0 3.078.81 3.078 2.178 0 1.406-.943 1.963-4.101 2.735-7.22 1.794-8.374 4.013-8.374 7.131 0 3.249 2.266 6.706 8.926 6.706 6.707 0 9.017-3.672 9.185-6.663H40.7c-.212.811-.77 2.35-3.633 2.35-2.007 0-2.69-.895-2.69-1.878 0-1.111.683-1.623 4.273-2.479 7.39-1.71 8.457-4.228 8.457-7.475 0-3.676-2.818-7.006-9.525-7.006-6.75 0-9.485 3.246-9.996 7.175h6.023" transform="matrix(1.33333 0 0 -1.33333 0 318.452)"/></svg>