<svg xml:space="preserve" width="500" height="500" xmlns="http://www.w3.org/2000/svg"><path d="M375-136.16H0v375h375Z" style="fill:#0077d7;fill-opacity:1;fill-rule:nonzero;stroke:none;stroke-width:1.57009" transform="matrix(1.33333 0 0 -1.33333 0 318.452)"/><path style="fill:#bfddf5;fill-opacity:1;fill-rule:nonzero;stroke:none;stroke-width:1.57009" d="M311.77 138.02a20.464 20.464 0 0 0-6.84-1.168c-10.797 0-19.55 8.305-19.55 18.55 0 2.856.681 5.562 1.898 7.979h-23.999a38.464 38.464 0 0 1-.835-7.98c0-22.262 19.021-40.31 42.486-40.31 2.329 0 4.613.18 6.84.523zm-6.84 35.93c10.798 0 19.551-8.304 19.551-18.549 0-3.146-.827-6.109-2.284-8.704h24.223c.65 2.804.997 5.715.997 8.704 0 17.17-11.314 31.83-27.254 37.639v18.216h-21.036V173.12c1.834.54 3.783.83 5.803.83" transform="matrix(1.33333 0 0 -1.33333 0 318.452)"/><path style="fill:#fff;fill-opacity:1;fill-rule:nonzero;stroke:none;stroke-width:.15701" d="M209.885 58.706v22.11h-4.098v5.824h4.098v2.428c0 5.769 2.857 9.544 8.897 9.544 1.24 0 2.86-.109 3.56-.324v-6.093c-.432.054-1.024.106-1.619.106-2.264 0-3.126-.807-3.126-3.83V86.64h4.852v-5.824h-4.852v-22.11h-7.712m47.605 11.97c0-3.666-.593-7.117-5.5-7.117-2.804 0-4.044 1.726-4.044 3.721 0 2.696 1.725 4.151 6.417 4.151h3.127zm7.55-4.745v11.704c0 6.687-4.097 9.598-11.54 9.653-7.663 0-10.92-3.23-11.772-7.488l7.135-1.465c.323 2.05 1.078 3.398 4.313 3.398 3.614 0 4.314-1.942 4.314-3.936v-1.672h-3.99c-8.197 0-13.267-2.966-13.267-9.33 0-4.315 2.804-8.738 9.545-8.738 4.963 0 6.85 1.834 7.874 3.398 0-.7.162-2.21.378-2.75h7.388c-.162.648-.377 4.53-.377 7.226m74.611 9.815c-.053 3.236-1.349 5.987-5.123 5.987-3.668 0-5.178-2.536-5.502-5.987zm-10.787-4.745c0-3.506 1.781-6.902 5.609-6.902 3.236 0 4.153 1.294 4.908 2.964h7.712c-.972-3.396-4.044-9.006-12.782-9.006-9.221 0-13.212 6.85-13.212 14.185 0 8.79 4.476 15.046 13.482 15.046 9.546 0 12.836-6.957 12.836-13.914 0-.97 0-1.564-.109-2.373h-18.444m-8.403-3.29c-.917-4.637-4.206-9.654-12.51-9.654-8.684 0-13.16 5.987-13.16 14.4 0 8.25 5.016 14.831 13.537 14.831 9.382 0 12.025-6.795 12.133-9.923h-7.495c-.486 2.266-1.78 3.828-4.8 3.828-3.56 0-5.555-3.073-5.555-8.466 0-5.987 2.157-8.683 5.5-8.683 2.697 0 4.1 1.564 4.8 3.666h7.55m-52.31 11.866c0 2.372 0 4.961-.054 7.065h7.495c.162-.755.27-2.697.324-3.56.917 1.726 3.183 4.207 8.09 4.207 5.61 0 9.222-3.83 9.222-10.84V58.704h-7.712v16.88c0 3.183-1.024 5.447-4.475 5.447-3.291 0-5.125-1.834-5.125-6.794V58.704h-7.766v20.872m-43.627-.539c0 2.804 0 5.23-.055 7.604h7.604c.109-.648.217-3.4.217-4.908 1.24 3.181 4.206 5.5 8.951 5.555v-7.389c-5.608.162-8.95-1.347-8.95-9.006V58.704h-7.767v20.333m122.709-105.12c0-9.07 0-19.254.185-27.768h-25.92c-.368 2.592-.554 7.776-.739 11.106-5.739-9.628-14.07-13.328-26.473-13.328-19.438 0-31.842 11.848-31.842 35.543v62.574h26.473v-57.205c0-10.553 3.332-19.254 14.81-19.254 12.033 0 17.032 6.48 17.032 25.363v51.096h26.474v-68.127M227.908 4.647c-.185 11.109-4.627 20.55-17.587 20.55-12.589 0-17.772-8.702-18.882-20.55zm-37.025-16.291c0-12.032 6.11-23.696 19.253-23.696 11.108 0 14.255 4.443 16.847 10.18h26.472c-3.332-11.66-13.884-30.913-43.875-30.913-31.655 0-45.354 23.512-45.354 48.689 0 30.174 15.365 51.65 46.282 51.65 32.765 0 44.057-23.883 44.057-47.763 0-3.333 0-5.368-.369-8.147h-63.313m-34.536 92.933v-135.14h-27.584v135.14h27.584M73.678 22.975c-15.18 0-20.547-9.81-20.547-29.434 0-16.109 4.813-28.51 20.178-28.51 13.513 0 20.733 12.03 20.733 30.177 0 16.106-6.11 27.767-20.364 27.767zm-45.91 58.314h26.659V31.86c3.886 6.11 11.847 12.406 27.397 12.406 26.102 0 39.06-21.662 39.06-48.504 0-27.398-14.069-51.835-41.651-51.835-14.255 0-20.55 4.26-25.178 11.293 0-3.15-.556-6.666-1.11-9.071H27.583c.184 10.367.184 20.92.184 31.283V81.29m311.997-170.86c-.054 3.189-1.327 5.902-5.047 5.902-3.616 0-5.103-2.5-5.424-5.902zm-10.632-4.675c0-3.454 1.756-6.802 5.53-6.802 3.188 0 4.092 1.274 4.835 2.924h7.6c-.957-3.35-3.986-8.875-12.593-8.875-9.09 0-13.023 6.748-13.023 13.977 0 8.662 4.41 14.824 13.287 14.824 9.406 0 12.648-6.853 12.648-13.71 0-.954 0-1.542-.105-2.338h-18.179m-17.845 15.411h7.65v-27.527h-7.65zm0 4.465v6.802h7.65v-6.802h-7.65M289.27-92.598c0-5.317 2.287-8.45 5.952-8.45 3.773 0 5.847 3.133 5.847 8.394 0 5.744-2.128 8.452-5.952 8.452-3.51 0-5.847-2.604-5.847-8.396zm19.502.053c0-8.344-4.993-14.454-13.71-14.454-8.502 0-13.5 6.11-13.5 14.295 0 8.502 5.156 14.506 13.873 14.506 8.075 0 13.337-5.739 13.337-14.347m-44.505 13.71c2.602-9.353 4.784-17.483 5.312-20.78h.055c.796 4.52 3.454 12.809 5.847 20.78h7.598l-9.726-27.527h-7.97l-9.354 27.527h8.238m-15.735-14.986h-3.08c-4.623 0-6.324-1.434-6.324-4.094 0-1.962 1.224-3.664 3.984-3.664 4.837 0 5.42 3.402 5.42 7.016zm7.442-5.421c0-2.656.21-6.484.369-7.12h-7.28c-.21.53-.373 2.019-.373 2.71-1.01-1.542-2.868-3.347-7.758-3.347-6.643 0-9.406 4.356-9.406 8.607 0 6.27 4.996 9.194 13.073 9.194h3.933v1.647c0 1.968-.691 3.882-4.252 3.882-3.187 0-3.928-1.332-4.252-3.35h-7.225c.373 4.891 3.402 8.821 11.796 8.821 7.334-.051 11.375-2.92 11.375-9.513v-11.531m-42.066 1.168c.582-2.232 2.393-3.45 5.206-3.45 2.82 0 3.83 1.009 3.83 2.71 0 1.75-1.17 2.441-5.103 3.4-8.98 2.228-10.416 4.993-10.416 8.871 0 4.043 2.814 8.345 11.108 8.345 8.344 0 11.213-4.57 11.421-8.29h-7.224c-.265 1.01-.956 2.924-4.515 2.924-2.501 0-3.35-1.118-3.35-2.338 0-1.382.849-2.017 5.314-3.082 9.194-2.128 10.521-5.262 10.521-9.303 0-4.57-3.506-8.712-11.85-8.712-8.396 0-11.799 4.038-12.435 8.925h7.493m-25.97 8.503c-.058 3.189-1.331 5.902-5.05 5.902-3.61 0-5.102-2.5-5.42-5.902zm-10.63-4.675c0-3.454 1.751-6.802 5.53-6.802 3.183 0 4.088 1.274 4.833 2.924h7.598c-.954-3.35-3.988-8.875-12.59-8.875-9.09 0-13.023 6.748-13.023 13.977 0 8.662 4.41 14.824 13.286 14.824 9.404 0 12.646-6.853 12.646-13.71 0-.954 0-1.542-.105-2.338H177.31m-23.234-6.643c5.206 0 5.843 4.357 5.843 8.29 0 4.728-.687 8.289-5.684 8.289-3.988 0-6.007-3.132-6.007-8.344 0-5.364 2.073-8.235 5.848-8.235zm13.122 33.32v-31.246c0-2.5 0-5.052.055-7.547h-7.28c-.159.85-.319 2.231-.372 2.868-1.329-2.177-3.72-3.505-7.813-3.505-6.961 0-11.372 5.58-11.372 14.187 0 8.452 4.675 14.614 12.49 14.614 3.984 0 6.107-1.433 6.695-2.656v13.286h7.597m-54.56-30.506c.586-2.232 2.391-3.45 5.206-3.45 2.82 0 3.828 1.009 3.828 2.71 0 1.75-1.168 2.441-5.101 3.4-8.985 2.228-10.417 4.993-10.417 8.871 0 4.043 2.814 8.345 11.108 8.345 8.343 0 11.213-4.57 11.426-8.29h-7.23c-.267 1.01-.954 2.924-4.515 2.924-2.5 0-3.35-1.118-3.35-2.338 0-1.382.85-2.017 5.315-3.082 9.194-2.128 10.522-5.262 10.522-9.303 0-4.57-3.506-8.712-11.85-8.712-8.398 0-11.799 4.038-12.436 8.925h7.494M87.632-78.835c2.815-9.512 5.311-17.96 5.739-20.512h.053c.583 2.76 2.233 8.926 5.475 20.512h7.598l-9.248-28.323c-2.605-7.921-4.833-10.258-11.427-10.258-.687 0-2.228.053-3.56.214v6.11a21.467 21.467 0 0 1 1.969-.107c2.814 0 4.197.957 5.261 3.986L79.448-78.835h8.184m-15.64-14.986H68.91c-4.625 0-6.325-1.434-6.325-4.094 0-1.962 1.223-3.664 3.983-3.664 4.838 0 5.425 3.402 5.425 7.016zm7.438-5.421c0-2.656.21-6.484.37-7.12h-7.28c-.21.53-.37 2.019-.37 2.71-1.013-1.542-2.873-3.347-7.76-3.347-6.644 0-9.404 4.356-9.404 8.607 0 6.27 4.993 9.194 13.068 9.194h3.938v1.647c0 1.968-.695 3.882-4.256 3.882-3.188 0-3.929-1.332-4.247-3.35h-7.23c.369 4.891 3.402 8.821 11.795 8.821 7.339-.051 11.376-2.92 11.376-9.513v-11.531M40.762-84.31c-4.306 0-5.848-2.813-5.848-8.344 0-5.26 1.437-8.288 5.53-8.288 4.037 0 6.006 3.137 6.006 8.716 0 5.047-2.02 7.916-5.688 7.916zm-13.127-32.575v31.407c0 2.233 0 4.41-.05 6.643h7.388c.104-.746.264-2.446.264-3.456 1.168 2.024 3.614 4.093 7.97 4.093 6.217 0 10.95-5.207 10.95-13.71 0-9.727-5.316-15.091-11.959-15.091-3.883 0-5.901 1.486-6.961 3.083v-12.969h-7.602" transform="matrix(1.33333 0 0 -1.33333 0 318.452)"/></svg>