<svg xml:space="preserve" width="500" height="500" xmlns="http://www.w3.org/2000/svg"><path d="M375-136.16H0v375h375Z" style="fill:#0077d7;fill-opacity:1;fill-rule:nonzero;stroke:none;stroke-width:1.57009" transform="matrix(1.33333 0 0 -1.33333 0 318.452)"/><path style="fill:#bfddf5;fill-opacity:1;fill-rule:nonzero;stroke:none;stroke-width:1.57009" d="M311.77 138.02a20.464 20.464 0 0 0-6.84-1.168c-10.797 0-19.55 8.305-19.55 18.55 0 2.856.681 5.562 1.898 7.979h-23.999a38.464 38.464 0 0 1-.835-7.98c0-22.262 19.021-40.31 42.486-40.31 2.329 0 4.613.18 6.84.523zm-6.84 35.93c10.798 0 19.551-8.304 19.551-18.549 0-3.146-.827-6.109-2.284-8.704h24.223c.65 2.804.997 5.715.997 8.704 0 17.17-11.314 31.83-27.254 37.639v18.216h-21.036V173.12c1.834.54 3.783.83 5.803.83" transform="matrix(1.33333 0 0 -1.33333 0 318.452)"/><path style="fill:#fff;fill-opacity:1;fill-rule:nonzero;stroke:none;stroke-width:.15701" d="M209.885 58.706v22.112h-4.098v5.822h4.098v2.428c0 5.769 2.857 9.544 8.897 9.544 1.24 0 2.858-.109 3.558-.324v-6.093c-.43.054-1.022.106-1.617.106-2.264 0-3.126-.807-3.126-3.828V86.64h4.852v-5.822h-4.852V58.706h-7.712m47.605 11.972c0-3.668-.593-7.119-5.5-7.119-2.804 0-4.044 1.726-4.044 3.721 0 2.696 1.725 4.153 6.417 4.153h3.127zm7.55-4.747v11.704c0 6.687-4.099 9.598-11.54 9.653-7.663 0-10.92-3.23-11.772-7.488l7.135-1.465c.323 2.05 1.078 3.398 4.313 3.398 3.614 0 4.314-1.942 4.314-3.936v-1.672h-3.99c-8.197 0-13.267-2.966-13.267-9.33 0-4.315 2.804-8.738 9.545-8.738 4.963 0 6.85 1.834 7.874 3.398 0-.7.162-2.21.378-2.75h7.388c-.162.648-.377 4.53-.377 7.226m74.611 9.815c-.055 3.236-1.349 5.987-5.123 5.987-3.668 0-5.178-2.534-5.502-5.987zm-10.787-4.745c0-3.506 1.781-6.903 5.609-6.903 3.236 0 4.153 1.295 4.908 2.965h7.712c-.972-3.397-4.044-9.006-12.782-9.006-9.221 0-13.212 6.85-13.212 14.185 0 8.79 4.476 15.046 13.482 15.046 9.546 0 12.836-6.957 12.836-13.914 0-.97 0-1.564-.109-2.373h-18.444m-8.403-3.29c-.917-4.637-4.206-9.654-12.51-9.654-8.684 0-13.16 5.987-13.16 14.4 0 8.25 5.016 14.831 13.537 14.831 9.382 0 12.025-6.795 12.133-9.923h-7.495c-.486 2.266-1.78 3.83-4.8 3.83-3.56 0-5.555-3.075-5.555-8.468 0-5.987 2.157-8.683 5.5-8.683 2.697 0 4.1 1.564 4.8 3.668h7.55m-52.31 11.864c0 2.374 0 4.961-.054 7.065h7.495c.162-.755.27-2.697.324-3.56.917 1.726 3.183 4.207 8.09 4.207 5.61 0 9.222-3.83 9.222-10.84V58.706h-7.712v16.878c0 3.183-1.024 5.447-4.477 5.447-3.29 0-5.123-1.832-5.123-6.794V58.706h-7.766v20.87m-43.627-.539c0 2.804 0 5.232-.055 7.604h7.604c.109-.648.217-3.4.217-4.908 1.24 3.181 4.206 5.5 8.951 5.555v-7.389c-5.608.162-8.95-1.347-8.95-9.006V58.706h-7.767v20.331M347.233-26.084c0-9.069 0-19.253.185-27.767h-25.92c-.368 2.592-.554 7.776-.739 11.106-5.739-9.626-14.07-13.328-26.473-13.328-19.438 0-31.842 11.848-31.842 35.543v62.574h26.473v-57.205c0-10.553 3.332-19.253 14.81-19.253 12.033 0 17.032 6.48 17.032 25.362v51.096h26.474v-68.128M227.908 4.647c-.185 11.109-4.627 20.548-17.587 20.548-12.589 0-17.772-8.7-18.882-20.548zm-37.025-16.291c0-12.032 6.11-23.696 19.253-23.696 11.108 0 14.255 4.443 16.847 10.182h26.472c-3.332-11.661-13.884-30.915-43.875-30.915-31.655 0-45.354 23.512-45.354 48.689 0 30.175 15.365 51.65 46.28 51.65 32.767 0 44.06-23.883 44.06-47.763 0-3.333 0-5.368-.37-8.147h-63.313m-34.536 92.933v-135.14h-27.583v135.14h27.583M73.678 22.975c-15.18 0-20.547-9.812-20.547-29.434 0-16.107 4.812-28.51 20.178-28.51 13.513 0 20.733 12.03 20.733 30.175 0 16.108-6.11 27.769-20.364 27.769zm-45.91 58.314h26.659V31.86c3.886 6.11 11.847 12.406 27.397 12.406 26.102 0 39.06-21.662 39.06-48.504 0-27.398-14.069-51.835-41.651-51.835-14.255 0-20.55 4.26-25.178 11.293 0-3.15-.556-6.666-1.11-9.071H27.582c.186 10.368.186 20.92.186 31.285V81.29M341.442-89.315c-.055 3.234-1.349 5.99-5.123 5.99-3.67 0-5.178-2.54-5.505-5.99zm-10.79-4.746c0-3.507 1.78-6.903 5.612-6.903 3.234 0 4.153 1.292 4.905 2.968h7.717c-.974-3.401-4.048-9.01-12.784-9.01-9.226 0-13.217 6.849-13.217 14.186 0 8.793 4.476 15.046 13.484 15.046 9.55 0 12.839-6.955 12.839-13.914 0-.97 0-1.566-.105-2.373h-18.45m-35.31 8.575c0 2.373 0 4.961-.057 7.066h7.5c.16-.757.267-2.696.322-3.558.914 1.725 3.181 4.204 8.09 4.204 5.608 0 9.222-3.826 9.222-10.841v-17.744h-7.712v16.882c0 3.184-1.024 5.45-4.477 5.45-3.29 0-5.123-1.837-5.123-6.799v-15.533h-7.766v20.873M283.61-78.42h7.766v-27.939h-7.766zm0 4.53v6.906h7.766v-6.905h-7.766m-11.514-19.743h-3.127c-4.69 0-6.416-1.454-6.416-4.153 0-1.994 1.237-3.719 4.043-3.719 4.91 0 5.5 3.45 5.5 7.12zm7.556-5.5c0-2.696.212-6.582.373-7.227h-7.389c-.216.54-.378 2.05-.378 2.75-1.024-1.564-2.91-3.397-7.872-3.397-6.742 0-9.548 4.421-9.548 8.736 0 6.365 5.071 9.331 13.272 9.331h3.986v1.673c0 1.997-.7 3.94-4.314 3.94-3.235 0-3.992-1.351-4.315-3.402h-7.334c.378 4.966 3.453 8.954 11.977 8.954 7.439-.051 11.542-2.964 11.542-9.654v-11.704m-41.402 13.106c0 2.806 0 5.233-.057 7.606h7.606c.111-.646.216-3.397.216-4.906 1.242 3.18 4.21 5.5 8.955 5.552v-7.389c-5.609.162-8.955-1.346-8.955-9.009v-12.187h-7.765v20.333m-4.03-12.244c0-2.644 0-5.607.05-8.089h-7.55c-.106.757-.161 2.266-.218 3.235-1.67-2.801-4.098-3.882-7.71-3.882-5.664 0-9.277 3.453-9.277 10.357v18.229h7.711v-16.666c0-3.077.97-5.611 4.316-5.611 3.506 0 4.96 1.887 4.96 7.389v14.888h7.717v-19.85m-46.844 5.88c0-5.395 2.316-8.574 6.04-8.574 3.827 0 5.93 3.18 5.93 8.52 0 5.827-2.154 8.579-6.04 8.579-3.557 0-5.93-2.644-5.93-8.525zm19.793.055c0-8.467-5.072-14.671-13.914-14.671-8.63 0-13.701 6.204-13.701 14.51 0 8.63 5.233 14.722 14.076 14.722 8.2 0 13.539-5.825 13.539-14.56M162.182-78.42h4.315v7.55h7.71v-7.55h5.502v-5.824h-5.502v-13.81c0-2.103.647-2.91 2.968-2.91.43 0 1.187 0 1.727.05v-5.283c-1.51-.54-3.614-.54-5.178-.54-5.447 0-7.227 2.912-7.227 7.822v14.671h-4.315v5.824" transform="matrix(1.33333 0 0 -1.33333 0 318.452)"/></svg>