<svg xml:space="preserve" width="500" height="500" xmlns="http://www.w3.org/2000/svg"><path d="M375-136.16H0v375h375Z" style="fill:#0077d7;fill-opacity:1;fill-rule:nonzero;stroke:none;stroke-width:1.57009" transform="matrix(1.33333 0 0 -1.33333 0 318.452)"/><path style="fill:#bfddf5;fill-opacity:1;fill-rule:nonzero;stroke:none;stroke-width:1.57009" d="M311.77 138.02a20.464 20.464 0 0 0-6.84-1.168c-10.797 0-19.55 8.305-19.55 18.55 0 2.856.681 5.562 1.898 7.979h-23.999a38.464 38.464 0 0 1-.835-7.98c0-22.262 19.021-40.31 42.486-40.31 2.329 0 4.613.18 6.84.523zm-6.84 35.93c10.798 0 19.551-8.304 19.551-18.549 0-3.146-.827-6.109-2.284-8.704h24.223c.65 2.804.997 5.715.997 8.704 0 17.17-11.314 31.83-27.254 37.639v18.216h-21.036V173.12c1.834.54 3.783.83 5.803.83" transform="matrix(1.33333 0 0 -1.33333 0 318.452)"/><path style="fill:#fff;fill-opacity:1;fill-rule:nonzero;stroke:none;stroke-width:.15701" d="M209.885 58.706v22.112h-4.098v5.823h4.098v2.427c0 5.77 2.857 9.545 8.897 9.545 1.24 0 2.858-.108 3.558-.325v-6.093c-.43.054-1.022.108-1.617.108-2.264 0-3.126-.809-3.126-3.83v-1.832h4.852v-5.823h-4.852V58.706h-7.712m47.605 11.972c0-3.668-.593-7.119-5.5-7.119-2.804 0-4.044 1.727-4.044 3.721 0 2.696 1.725 4.153 6.417 4.153h3.127zm7.55-4.747v11.704c0 6.687-4.099 9.598-11.54 9.653-7.663 0-10.92-3.228-11.772-7.488l7.135-1.465c.323 2.05 1.078 3.398 4.313 3.398 3.614 0 4.314-1.94 4.314-3.936v-1.672h-3.99c-8.197 0-13.267-2.965-13.267-9.33 0-4.315 2.804-8.736 9.545-8.736 4.963 0 6.85 1.832 7.874 3.396 0-.7.162-2.21.378-2.75h7.388c-.162.65-.377 4.53-.377 7.226m74.611 9.817c-.055 3.234-1.349 5.985-5.123 5.985-3.668 0-5.178-2.534-5.502-5.985zM328.865 71c0-3.504 1.781-6.902 5.609-6.902 3.236 0 4.153 1.294 4.908 2.966h7.712c-.972-3.398-4.044-9.006-12.782-9.006-9.221 0-13.212 6.849-13.212 14.184 0 8.79 4.476 15.045 13.482 15.045 9.546 0 12.836-6.957 12.836-13.914 0-.97 0-1.564-.109-2.373h-18.444m-8.403-3.29c-.917-4.637-4.206-9.652-12.51-9.652-8.684 0-13.16 5.987-13.16 14.398 0 8.252 5.016 14.831 13.537 14.831 9.382 0 12.025-6.795 12.133-9.923h-7.495c-.486 2.266-1.78 3.83-4.8 3.83-3.56 0-5.555-3.075-5.555-8.468 0-5.985 2.157-8.681 5.5-8.681 2.697 0 4.1 1.564 4.8 3.666h7.55m-52.31 11.864c0 2.374 0 4.961-.054 7.065h7.495c.162-.755.27-2.696.324-3.56.917 1.726 3.183 4.207 8.09 4.207 5.61 0 9.222-3.83 9.222-10.84V58.706h-7.712v16.878c0 3.183-1.024 5.449-4.477 5.449-3.29 0-5.123-1.834-5.123-6.796V58.706h-7.766v20.87m-43.627-.539c0 2.804 0 5.232-.055 7.604h7.604c.109-.647.217-3.398.217-4.908 1.24 3.183 4.206 5.5 8.951 5.555v-7.389c-5.608.163-8.95-1.347-8.95-9.006V58.706h-7.767v20.331m122.709-105.12c0-9.069 0-19.252.185-27.767h-25.92c-.368 2.59-.554 7.775-.739 11.105-5.739-9.626-14.07-13.326-26.473-13.326-19.438 0-31.842 11.847-31.842 35.543v62.572h26.473V-15.16c0-10.553 3.332-19.255 14.81-19.255 12.033 0 17.032 6.48 17.032 25.362v51.096h26.474v-68.127M227.908 4.647c-.185 11.11-4.627 20.55-17.587 20.55-12.589 0-17.772-8.702-18.882-20.55zm-37.025-16.29c0-12.031 6.11-23.696 19.253-23.696 11.108 0 14.255 4.442 16.847 10.18h26.472c-3.332-11.659-13.884-30.912-43.875-30.912-31.655 0-45.354 23.512-45.354 48.687 0 30.175 15.365 51.65 46.28 51.65 32.767 0 44.06-23.883 44.06-47.763 0-3.333 0-5.368-.37-8.146h-63.313M156.347 81.29v-135.14h-27.583V81.29h27.583M73.678 22.977c-15.18 0-20.547-9.812-20.547-29.435 0-16.108 4.812-28.512 20.178-28.512 13.513 0 20.733 12.032 20.733 30.178 0 16.106-6.11 27.769-20.364 27.769zm-45.91 58.312h26.659V31.86c3.886 6.11 11.847 12.406 27.397 12.406 26.102 0 39.06-21.662 39.06-48.504 0-27.397-14.069-51.833-41.651-51.833-14.255 0-20.55 4.257-25.178 11.291 0-3.15-.556-6.666-1.11-9.07H27.582c.186 10.366.186 20.918.186 31.284V81.29m311.881-170.61c-.055 3.237-1.347 5.992-5.122 5.992-3.669 0-5.178-2.538-5.504-5.991zm-10.788-4.743c0-3.507 1.78-6.903 5.611-6.903 3.235 0 4.153 1.29 4.905 2.967h7.717c-.975-3.4-4.047-9.009-12.783-9.009-9.226 0-13.218 6.849-13.218 14.187 0 8.79 4.477 15.045 13.485 15.045 9.549 0 12.838-6.956 12.838-13.916 0-.969 0-1.564-.105-2.37h-18.45m-25.516-3.887c.59-2.265 2.427-3.502 5.283-3.502 2.861 0 3.886 1.025 3.886 2.75 0 1.776-1.185 2.48-5.178 3.453-9.114 2.261-10.573 5.067-10.573 9.003 0 4.103 2.858 8.469 11.275 8.469 8.468 0 11.38-4.638 11.597-8.414h-7.337c-.269 1.025-.969 2.968-4.583 2.968-2.538 0-3.401-1.136-3.401-2.373 0-1.402.863-2.049 5.395-3.127 9.33-2.161 10.678-5.34 10.678-9.443 0-4.638-3.558-8.843-12.025-8.843-8.525 0-11.977 4.098-12.623 9.06h7.606m-9.838-.324c0-2.644 0-5.607.055-8.089h-7.55c-.106.757-.161 2.266-.216 3.234-1.67-2.801-4.098-3.881-7.712-3.881-5.662 0-9.276 3.453-9.276 10.357v18.23h7.712v-16.666c0-3.078.969-5.613 4.315-5.613 3.507 0 4.961 1.888 4.961 7.39v14.889h7.71v-19.851m-36.317-8.089v39.375h7.767v-39.375h-7.767m-2.278 9.008c-.919-4.639-4.208-9.655-12.511-9.655-8.686 0-13.162 5.985-13.162 14.398 0 8.252 5.016 14.834 13.536 14.834 9.386 0 12.03-6.794 12.137-9.923h-7.5c-.484 2.268-1.777 3.831-4.8 3.831-3.557 0-5.556-3.074-5.556-8.469 0-5.99 2.16-8.686 5.507-8.686 2.694 0 4.098 1.566 4.798 3.67h7.55m-28.274-.919c0-2.644 0-5.607.05-8.089h-7.549c-.106.757-.161 2.266-.216 3.234-1.673-2.801-4.1-3.881-7.713-3.881-5.663 0-9.276 3.453-9.276 10.357v18.23h7.712v-16.666c0-3.078.97-5.613 4.315-5.613 3.508 0 4.962 1.888 4.962 7.39v14.889h7.715v-19.851m-35.949 4.638h-3.128c-4.693 0-6.42-1.453-6.42-4.153 0-1.994 1.242-3.72 4.043-3.72 4.91 0 5.505 3.453 5.505 7.121zm7.55-5.5c0-2.696.214-6.58.374-7.227h-7.387c-.213.538-.375 2.05-.375 2.75-1.024-1.564-2.911-3.397-7.877-3.397-6.742 0-9.543 4.421-9.543 8.736 0 6.365 5.066 9.331 13.267 9.331h3.991v1.672c0 1.998-.7 3.941-4.315 3.941-3.239 0-3.99-1.353-4.314-3.4h-7.337c.378 4.964 3.45 8.952 11.975 8.952 7.439-.052 11.542-2.964 11.542-9.656v-11.702m-42.372 20.713c2.645-9.494 4.856-17.745 5.396-21.091h.055c.807 4.586 3.506 12.999 5.93 21.09h7.716l-9.872-27.939h-8.09l-9.493 27.94h8.358" transform="matrix(1.33333 0 0 -1.33333 0 318.452)"/></svg>