<?xml version="1.0" encoding="UTF-8" standalone="no"?>
<!-- Created with Inkscape (http://www.inkscape.org/) -->

<svg
   width="512"
   height="512"
   viewBox="0 0 512 512"
   version="1.1"
   id="svg1"
   inkscape:version="1.4.3 (0d15f75, 2025-12-25)"
   sodipodi:docname="radio-france-avatar.svg"
   inkscape:export-filename="radio-france-avatar.png"
   inkscape:export-xdpi="112.5"
   inkscape:export-ydpi="112.5"
   xmlns:inkscape="http://www.inkscape.org/namespaces/inkscape"
   xmlns:sodipodi="http://sodipodi.sourceforge.net/DTD/sodipodi-0.dtd"
   xmlns="http://www.w3.org/2000/svg"
   xmlns:svg="http://www.w3.org/2000/svg">
  <sodipodi:namedview
     id="namedview1"
     pagecolor="#ffffff"
     bordercolor="#000000"
     borderopacity="0.25"
     inkscape:showpageshadow="2"
     inkscape:pageopacity="0.0"
     inkscape:pagecheckerboard="0"
     inkscape:deskcolor="#d1d1d1"
     inkscape:document-units="px"
     inkscape:zoom="2.2128906"
     inkscape:cx="256"
     inkscape:cy="256"
     inkscape:window-width="2560"
     inkscape:window-height="1351"
     inkscape:window-x="-9"
     inkscape:window-y="-9"
     inkscape:window-maximized="1"
     inkscape:current-layer="layer1" />
  <defs
     id="defs1">
    <clipPath
       clipPathUnits="userSpaceOnUse"
       id="clipPath2086">
      <path
         id="path2088"
         style="display:inline;fill:#000000;stroke:none;stroke-width:0.15;stroke-miterlimit:4;stroke-dasharray:none"
         d="M 112.06366,-138.89689 H 79.723823 c 1.945305,-3.46875 3.050775,-7.42188 3.050775,-11.625 0,-13.67578 -11.687498,-24.76172 -26.105469,-24.76172 -2.695312,0 -5.296867,0.38672 -7.74609,1.10938 v -50.91798 H 77.00898 v 24.32032 c 21.281251,7.75781 36.38671,27.32812 36.38671,50.25 0,3.99219 -0.46094,7.87891 -1.33203,11.625 z m -46.26172,41.499998 c -2.972648,0.45312 -6.02343,0.69531 -9.132811,0.69531 -31.324216,0 -56.72265894,-24.093748 -56.72265894,-53.820308 0,-3.64453 0.38672251,-7.20703 1.11329254,-10.65234 H 33.102719 c -1.624995,3.22656 -2.53515,6.83984 -2.53515,10.65234 0,13.67969 11.687497,24.76563 26.10156,24.76563 3.214838,0 6.289058,-0.55079 9.132811,-1.5586 z" />
    </clipPath>
    <filter
       inkscape:collect="always"
       style="color-interpolation-filters:sRGB"
       id="filter64831"
       x="-0.05281893"
       y="-0.067955623"
       width="1.1056379"
       height="1.1359112">
      <feGaussianBlur
         inkscape:collect="always"
         stdDeviation="4.0665803"
         id="feGaussianBlur64833" />
    </filter>
    <filter
       inkscape:collect="always"
       style="color-interpolation-filters:sRGB"
       id="filter64835"
       x="-0.091854262"
       y="-0.087286543"
       width="1.1837085"
       height="1.1745731">
      <feGaussianBlur
         inkscape:collect="always"
         stdDeviation="4.0665803"
         id="feGaussianBlur64837" />
    </filter>
    <filter
       inkscape:collect="always"
       style="color-interpolation-filters:sRGB"
       id="filter64839"
       x="-0.20868779"
       y="-0.18701426"
       width="1.4173756"
       height="1.3740285">
      <feGaussianBlur
         inkscape:collect="always"
         stdDeviation="4.0665803"
         id="feGaussianBlur64841" />
    </filter>
    <filter
       inkscape:collect="always"
       style="color-interpolation-filters:sRGB"
       id="filter64843"
       x="-0.39869853"
       y="-0.25714205"
       width="1.7973971"
       height="1.5142841">
      <feGaussianBlur
         inkscape:collect="always"
         stdDeviation="8.569753"
         id="feGaussianBlur64845" />
    </filter>
    <filter
       inkscape:collect="always"
       style="color-interpolation-filters:sRGB"
       id="filter64847"
       x="-0.11916545"
       y="-0.090512652"
       width="1.2383309"
       height="1.1810253">
      <feGaussianBlur
         inkscape:collect="always"
         stdDeviation="4.0665803"
         id="feGaussianBlur64849" />
    </filter>
    <filter
       inkscape:collect="always"
       style="color-interpolation-filters:sRGB"
       id="filter64851"
       x="-0.21158544"
       y="-0.52962573"
       width="1.4231709"
       height="2.0592515">
      <feGaussianBlur
         inkscape:collect="always"
         stdDeviation="6.869289"
         id="feGaussianBlur64853" />
    </filter>
    <filter
       inkscape:collect="always"
       style="color-interpolation-filters:sRGB"
       id="filter64855"
       x="-0.10635394"
       y="-0.096932069"
       width="1.2127079"
       height="1.1938641">
      <feGaussianBlur
         inkscape:collect="always"
         stdDeviation="4.0665803"
         id="feGaussianBlur64857" />
    </filter>
    <filter
       inkscape:collect="always"
       style="color-interpolation-filters:sRGB"
       id="filter64863"
       x="-0.079209316"
       y="-0.11265097"
       width="1.1584186"
       height="1.2253019">
      <feGaussianBlur
         inkscape:collect="always"
         stdDeviation="4.0665803"
         id="feGaussianBlur64865" />
    </filter>
  </defs>
  <g
     inkscape:label="Calque 1"
     inkscape:groupmode="layer"
     id="layer1">
    <g
       id="g226654"
       clip-path="url(#clipPath2086)"
       transform="matrix(3.5258065,0,0,3.5258065,56.188738,823.29132)"
       style="display:inline">
      <rect
         style="fill:#ae2598;fill-opacity:1;stroke:none;stroke-width:0"
         id="rect14792"
         width="143.50369"
         height="152.65086"
         x="-9.3156099"
         y="-233.41513" />
      <path
         style="mix-blend-mode:normal;fill:#ee1d8c;fill-opacity:1;stroke:none;stroke-width:0.75px;stroke-linecap:butt;stroke-linejoin:miter;stroke-opacity:1;filter:url(#filter64831)"
         d="m 93.682774,-164.89529 c 38.092626,14.47629 51.788616,42.58852 55.942136,78.957543 6.70712,37.43432 -35.71296,50.356028 -65.162845,47.940447 C 54.663196,-41.591473 20.29058,-33.024373 -5.1116091,-52.99036 -37.89214,-85.101483 -43.482799,-139.5348 -20.450472,-178.60918 c 36.647444,-1.54322 92.514355,-10.01172 114.133246,13.71389 z"
         id="path1075"
         sodipodi:nodetypes="cccccc" />
      <path
         style="mix-blend-mode:normal;fill:#dc098d;fill-opacity:1;stroke:none;stroke-width:0.75px;stroke-linecap:butt;stroke-linejoin:miter;stroke-opacity:1;filter:url(#filter64835)"
         d="m 30.149675,-124.93237 c -3.192702,36.042685 27.835608,68.629057 63.619108,67.33456 41.973437,-7.382856 35.934107,-64.22775 4.823348,-81.98325 -17.133921,-12.13855 -36.676912,-22.77285 -57.731761,-25.55077 -29.813782,-19.23244 -28.847928,32.7406 -10.710695,40.19946 z"
         id="path1038"
         sodipodi:nodetypes="ccccc" />
      <path
         style="mix-blend-mode:normal;fill:#ed252c;fill-opacity:1;stroke:none;stroke-width:0.75px;stroke-linecap:butt;stroke-linejoin:miter;stroke-opacity:1;filter:url(#filter64839)"
         d="m 66.258467,-128.07047 c -39.373321,-29.73229 -51.444006,61.006053 -3.428931,44.017272 21.555229,-9.255144 18.517585,-31.155352 3.428931,-44.017272 z"
         id="path1036" />
      <path
         style="mix-blend-mode:normal;fill:#7d369e;fill-opacity:1;stroke:none;stroke-width:0.75px;stroke-linecap:butt;stroke-linejoin:miter;stroke-opacity:1;filter:url(#filter64843)"
         d="M -5.1291862,-157.21623 C 27.000995,-148.5349 63.154472,-77.314335 7.858991,-77.231619 -32.038893,-82.898744 -8.4369735,-133.00571 -5.1291862,-157.21623 Z"
         id="path1073"
         sodipodi:nodetypes="cccc" />
      <path
         style="mix-blend-mode:normal;fill:#f36257;fill-opacity:1;stroke:none;stroke-width:0.75px;stroke-linecap:butt;stroke-linejoin:miter;stroke-opacity:1;filter:url(#filter64847)"
         d="m 146.24516,-65.273464 c -26.22277,-27.601899 -18.80241,-79.076946 -63.647349,-94.365146 -27.132377,-13.47432 -16.90186,-19.55119 3.964396,-5.2584 26.750023,24.57154 71.146613,59.73538 59.682953,99.623546 z"
         id="path1079" />
      <path
         style="mix-blend-mode:normal;fill:#60aead;fill-opacity:1;stroke:none;stroke-width:0.75px;stroke-linecap:butt;stroke-linejoin:miter;stroke-opacity:1;filter:url(#filter64851)"
         d="m -7.4547674,-197.95627 c 21.2932764,-25.02802 71.2425774,-5.08099 77.9179024,19.59575 -24.058093,-6.18518 -60.9940031,-9.13145 -77.9179024,-19.59575 z"
         id="path1081"
         sodipodi:nodetypes="cccc"
         transform="matrix(1.0501462,0.11967634,-0.08023704,0.70407094,-14.238393,-61.335159)" />
      <path
         style="mix-blend-mode:normal;fill:#3d5ab1;fill-opacity:1;stroke:none;stroke-width:0.75px;stroke-linecap:butt;stroke-linejoin:miter;stroke-opacity:1;filter:url(#filter64855)"
         d="m 78.899254,-187.59276 c 41.768276,16.25125 75.153266,50.8124 71.963666,96.825178 43.55648,-5.583808 2.95111,-73.800978 -27.13313,-82.601388 -8.18311,-1.63801 -51.719867,-27.71949 -44.830536,-14.22379 z"
         id="path1083"
         sodipodi:nodetypes="ccccc" />
      <path
         style="mix-blend-mode:normal;fill:#a10f5c;fill-opacity:1;stroke:none;stroke-width:0.75px;stroke-linecap:butt;stroke-linejoin:miter;stroke-opacity:1;filter:url(#filter64863)"
         d="m 44.538867,-225.94937 c 30.584389,29.4001 79.903293,27.17213 107.900573,60.94215 12.1613,14.43036 18.86418,18.46532 4.37601,0.58991 -24.66551,-32.07923 -64.766314,-43.32226 -93.842875,-68.74971 -5.733553,-12.17896 -29.001656,-3.82226 -18.433708,7.21765 z"
         id="path52520"
         transform="matrix(1.2569045,0,0,1.2692869,-8.3381587,62.412035)" />
    </g>
  </g>
</svg>
