<?xml version="1.0" encoding="UTF-8" standalone="no"?>
<svg
   xmlns:dc="http://purl.org/dc/elements/1.1/"
   xmlns:cc="http://creativecommons.org/ns#"
   xmlns:rdf="http://www.w3.org/1999/02/22-rdf-syntax-ns#"
   xmlns:svg="http://www.w3.org/2000/svg"
   xmlns="http://www.w3.org/2000/svg"
   width="460"
   height="460"
   viewBox="0 0 460 460"
   version="1.1"
   id="svg2">
  <metadata
     id="metadata19">
    <rdf:RDF>
      <cc:Work
         rdf:about="">
        <dc:format>image/svg+xml</dc:format>
        <dc:type
           rdf:resource="http://purl.org/dc/dcmitype/StillImage" />
        <dc:title>RadioFrance</dc:title>
      </cc:Work>
    </rdf:RDF>
  </metadata>
  <!-- Generator: Sketch 43.2 (39069) - http://www.bohemiancoding.com/sketch -->
  <title
     id="title4">RadioFrance</title>
  <desc
     id="desc6">Created with Sketch.</desc>
  <defs
     id="defs8">
    <clipPath
       id="clipPath5715"
       clipPathUnits="userSpaceOnUse">
      <path
         id="path5717"
         d="m 0,144.48 386.815,0 L 386.815,0 0,0 0,144.48 Z" />
    </clipPath>
  </defs>
  <g
     style="fill:none;fill-rule:evenodd;stroke:none;stroke-width:1"
     transform="translate(-734,-2976)"
     id="RF-Avatars" />
  <g
     id="radio-france-blanc"
     transform="matrix(1.8845313,0,0,1.8845313,61.925718,123.66468)"
     style="fill:#000000;fill-rule:nonzero;stroke:none;stroke-width:1.10751">
    <path
       d="M 95.003844,0.05149384 V 9.8824715 H 105.44214 V 0.05149384 Z M 78.958245,0.74408241 V 16.804578 c -2.27258,-3.253504 -4.971218,-4.431307 -9.018708,-4.431307 -10.509751,0 -13.207714,10.315941 -13.207714,18.691073 0,8.168815 2.840313,17.861228 12.994586,17.861228 4.616255,0 7.598858,-2.422844 9.587056,-6.161525 h 0.142085 v 5.470193 h 9.940986 V 0.74408241 Z M 16.785748,12.356901 c -3.982456,0.154693 -5.917574,3.781029 -6.9158053,7.28603 H 9.726563 V 13.067119 H 0 V 48.23424 H 10.437002 V 34.803062 c 0,-6.22977 0.995339,-12.529857 8.948954,-12.114001 V 12.511789 l -1.776099,-0.138518 c -0.284019,-0.02161 -0.558612,-0.02669 -0.824109,-0.01637 z m 21.699408,0.01637 c -7.598137,0 -16.11928,2.493016 -17.184888,11.008378 l 9.869943,0.900365 c 0,-3.462237 2.911924,-5.123895 6.249285,-5.123895 1.56245,0 3.338756,0.484309 4.261345,1.660953 1.065608,1.315263 0.923569,3.115892 0.923569,4.639083 v 0.829847 c -4.402968,0.415854 -10.154789,0.693092 -14.273375,2.216283 -4.758446,1.731118 -8.096427,5.261657 -8.096427,10.451789 0,6.645628 4.972827,9.969498 11.363155,9.969498 5.396654,0 8.52078,-2.00735 11.502663,-6.160261 -0.0711,1.799622 0.07203,3.669307 0.498602,5.468929 h 10.367249 c -0.568765,-1.730313 -0.71173,-3.461535 -0.71173,-5.261156 V 26.566296 c 0,-4.223026 0.356331,-8.100614 -3.336481,-11.008378 -2.910794,-2.353289 -7.740071,-3.184647 -11.43291,-3.184647 z m 88.258544,0.0013 c -11.00659,0 -17.11385,7.960938 -17.11385,18.205001 0,10.177174 6.03616,18.346042 17.11385,18.346042 10.65194,0 17.39802,-7.961546 17.39802,-17.998489 0,-10.384293 -6.10705,-18.552554 -17.39802,-18.552554 z M 95.003844,13.0659 V 48.233025 H 105.44214 V 13.0659 Z m 31.810896,6.023001 c 2.41477,0 4.11864,0.900667 4.97179,3.184647 0.99368,2.631332 1.1354,5.953691 1.1354,8.722836 0,4.223026 -0.28391,11.14438 -6.17823,11.14438 -5.96459,0 -5.89278,-8.584521 -5.89278,-12.598816 0,-4.015096 0.35388,-10.453047 5.96382,-10.453047 z m -52.898034,0.415553 c 4.758446,0 5.041539,5.814267 5.041539,9.206388 v 4.84686 c 0,1.730312 -0.07125,3.6002 -0.923569,5.191894 -0.851494,1.593307 -2.627132,2.838358 -4.544233,2.838358 -5.183367,0 -5.751973,-6.438558 -5.751973,-10.246535 0,-4.22222 0.213644,-11.836965 6.178236,-11.836965 z M 42.60441,31.410678 v 1.385177 c 0,2.492712 0.07047,4.569371 -1.420881,6.784848 -1.206972,1.79962 -3.125105,2.906356 -5.254667,2.906356 -2.911614,0 -4.616566,-1.867874 -4.616566,-4.637828 0,-5.122434 7.315719,-6.022698 11.292114,-6.438553 z"
       id="path4347"
       style="fill:#000000;fill-opacity:1;stroke-width:1.10751" />
    <path
       d="M 11.3554,51.517421 C 7.65207,51.598931 3.74621,53.044442 1.63401,56.13384 -0.1409,58.764366 0,62.434427 0,65.480003 H -4.18902 V 73.37173 H 0 V 99.748013 H 10.43829 V 73.37173 h 6.39137 v -7.891727 h -6.39137 v -0.76059 c 0,-2.977072 10e-5,-5.331012 3.76404,-5.123891 l 3.5509,0.207773 v -7.822469 l -4.8284,-0.415553 c -0.51493,-0.0432 -1.04038,-0.05951 -1.56943,-0.04784 z m 24.17561,12.353248 c -3.98236,0.154692 -5.91628,3.781027 -6.91451,7.286029 H 28.47312 V 64.580885 H 18.74397 V 99.748003 H 29.18356 V 86.316827 c 0,-6.229769 0.99487,-12.529854 8.94766,-12.113999 V 64.025554 l -1.7761,-0.138515 c -0.28402,-0.0216 -0.55862,-0.02669 -0.82411,-0.01638 v 6e-6 z m 21.70199,0.01638 c -7.59896,0 -16.1214,2.493011 -17.18618,11.008372 l 9.86995,0.900369 c 0,-3.462237 2.91109,-5.123898 6.24928,-5.123898 1.56245,0 3.33876,0.484314 4.26135,1.660958 1.0656,1.315264 0.92228,3.115891 0.92228,4.639082 v 0.829847 c -4.40215,0.415855 -10.15479,0.693092 -14.27338,2.216283 -4.75762,1.731118 -8.09514,5.261659 -8.09514,10.451784 0,6.645631 4.9707,9.969494 11.36187,9.969494 5.39665,0 8.52251,-2.007347 11.50525,-6.160254 -0.0711,1.799622 0.0703,3.669307 0.49601,5.468927 H 72.71154 C 72.1436,98.017703 72.00239,96.286481 72.00239,94.486859 V 78.080073 c 0,-4.223026 0.35424,-8.100615 -3.33777,-11.008378 -2.91244,-2.35329 -7.74043,-3.184646 -11.43162,-3.184646 z m 40.04554,0 c -5.25529,0 -8.23769,2.147677 -10.36725,6.646328 H 86.7692 V 64.580896 H 76.89926 V 99.748013 H 87.33755 V 80.849166 c 0,-2.216282 0.14085,-4.223226 1.20646,-6.230775 0.85232,-1.5925 2.55577,-2.630578 4.40343,-2.630578 5.25363,0 4.75736,5.260498 4.75736,8.861353 v 18.898847 h 10.4383 V 78.010816 c 0,-3.184194 -0.001,-7.616006 -1.98924,-10.246532 -2.13039,-2.838454 -5.46687,-3.877235 -8.87532,-3.877235 z m 68.37786,0 c -11.2207,0 -17.5401,8.37684 -17.5401,18.760327 0,10.453602 7.03097,17.791964 17.82427,17.791964 12.21357,0 16.40341,-10.383686 16.40341,-12.113998 l -9.6581,-0.69259 c 0,3.253504 -3.19538,5.536923 -6.39138,5.536936 -4.54433,0 -6.9584,-3.391271 -6.95843,-7.544182 l 0.0711,-1.731467 h 23.14999 c 0.0711,-4.776694 -0.70946,-9.761116 -3.69299,-13.776214 -2.98188,-4.015099 -8.16654,-6.230776 -13.20772,-6.230776 v 0 z m -35.78677,0.0013 c -11.36125,0 -18.03613,7.823275 -18.03613,18.621811 0,10.384293 6.46123,17.92922 17.39673,17.92922 8.80594,0 15.55155,-5.192243 16.4047,-13.914727 l -9.94229,-0.554067 c -0.35548,3.252697 -2.20039,6.09226 -5.89406,6.09226 -5.96459,0 -6.03615,-6.091455 -6.03615,-10.38379 0,-4.499457 0.71075,-10.038753 6.46371,-10.038753 3.76228,0 5.46653,3.115839 5.4665,6.300034 l 9.94229,-0.552811 c -0.71096,-8.238125 -7.38594,-13.499177 -15.7653,-13.499177 z m 36.21304,6.64507 c 4.54433,0 5.8224,3.53094 6.03486,7.338917 h -12.78146 c 0.35548,-4.015904 2.13034,-7.338917 6.7466,-7.338917 z M 61.34968,82.924455 v 1.385179 c 0,2.492707 0.0705,4.569366 -1.42089,6.784843 -1.20614,1.799622 -3.12298,2.906357 -5.25337,2.906357 -2.91162,0 -4.61657,-1.867873 -4.61657,-4.637824 0,-5.122434 7.3136,-6.022699 11.29083,-6.438555 z"
       id="path4221"
       style="fill:#000000;fill-opacity:1;stroke-width:1.10751" />
  </g>
</svg>
