<?xml version="1.0" encoding="UTF-8" standalone="no"?>

<svg
   version="1.1"
   id="svg2"
   xml:space="preserve"
   width="500"
   height="500"
   viewBox="0 0 499.99999 500"
   xmlns="http://www.w3.org/2000/svg"
   xmlns:svg="http://www.w3.org/2000/svg"><defs
     id="defs6"><clipPath
       clipPathUnits="userSpaceOnUse"
       id="clipPath18"><path
         d="M 0,720 H 1280 V 0 H 0 Z"
         id="path16" /></clipPath><clipPath
       clipPathUnits="userSpaceOnUse"
       id="clipPath40"><path
         d="m 687.732,461.852 h 54.12 v -61.248 h -54.12 z"
         id="path38" /></clipPath></defs>/>
	 <g id="g8"
     transform="matrix(1.3333333,0,0,-1.3333333,-693.84154,641.48076)"><path
       id="path868"
       style="fill:#000;fill-opacity:1;fill-rule:nonzero;stroke:none;stroke-width:0.544676"
       d="m 707.88392,126.80904 c -81.4018,0 -147.38928,62.61049 -147.38928,139.84008 0,9.47737 1.00221,18.73142 2.89768,27.68043 h 83.24827 c -4.21581,-8.38799 -6.57969,-17.76731 -6.57969,-27.68043 0,-35.54011 30.36566,-64.348 67.82302,-64.348 8.34442,0 16.34028,1.43796 23.72606,4.05239 v -77.73068 c -7.72346,-1.1874 -15.64849,-1.81379 -23.72607,-1.81379 M 851.81456,236.4523 h -84.03265 c 5.05458,9.00351 7.91958,19.28154 7.91958,30.19682 0,35.5401 -30.36019,64.348 -67.81758,64.348 -7.00997,0 -13.7694,-1.00761 -20.13121,-2.88131 v 132.2963 h 72.97567 v -63.19329 c 55.29005,-20.15846 94.53934,-71.0094 94.53934,-130.5697 0,-10.37063 -1.19826,-20.46891 -3.45315,-30.19682" /></g></svg>
